<svg xmlns="http://www.w3.org/2000/svg" viewBox="0 0 210.95 253.28"><defs><style>.cls-1{fill:#eeeef1;}</style></defs><title>Asset 7</title><g id="Layer_2" data-name="Layer 2"><g id="Layer_1-2" data-name="Layer 1"><path class="cls-1" d="M200.8,221.27c-4.12.93-10.8,3.63-14.59,5.24-.24-5.74-2.25-12.21-5.71-19.25,10.61-.57,23.4-1.36,21.22-10.23-2.32-9.43-13.19-8.27-16.47-1.19a70.78,70.78,0,0,1-5.53,9.86,133.89,133.89,0,0,0-7.91-13.23c12.86-3.8,26-15.92,22.5-21.81-3.65-6.15-10.64-3.51-16.48,2.4-4.38,4.42-6.5,13.36-7.28,17.57-3.58-5.2-7.68-10.6-12.19-16.16,10-3.53,22.65-13.74,21.76-19.54-.94-6.12-3.5-9.66-8.75-4-4.33,4.63-11.47,18-13.85,22.54q-5.15-6.28-10.92-12.82c10.51-7.46,22.06-18.09,19.9-22.25s-5.84-8.21-10.5-3.77c-4.23,4-8.82,22.37-9.64,25.75-5.73-6.5-11.87-13.14-18.28-19.89,10.2-.58,21.48-1.75,19.42-10.13-2.31-9.43-13.19-8.27-16.47-1.19a70.73,70.73,0,0,1-5,9.13q-4.63-4.85-9.41-9.74c13.19-3.42,27.19-16.06,23.59-22.12s-10.64-3.5-16.49,2.4c-5.11,5.17-7.13,16.51-7.56,19.25-5.18-5.3-10.47-10.64-15.79-16,10-3.51,22.7-13.74,21.81-19.55-.94-6.12-3.5-9.66-8.76-4-4.37,4.69-11.63,18.3-13.93,22.7L87.21,98.94c-.7-.7-1.41-1.4-2.11-2.11l.18-.36-.42.12-3.13-3.12c8.92-6.27,21-17,15-21.68-6.26-4.87-10.61-1.71-12.57,4.13-1.53,4.56-2.81,13.17-3.29,16.7C45.09,56.82,12.37,23.41,3.12,1A1.62,1.62,0,0,0,1,.12,1.65,1.65,0,0,0,0,1.29a1.64,1.64,0,0,0,.09,1C9.85,25.8,44.24,60.58,81.34,97.65c-5.33,1.65-14.67,4.68-19.05,7.08-6.31,3.45-2.57,7.56,2.57,9.11,4.51,1.36,13.66-6.19,18.6-14.06l1.46,1.46c5,5,10.06,10.05,15.06,15.07a67.4,67.4,0,0,1-12.92,5.33c-7.78,2.19-15.2,6.94-7,13.27,7.69,6,14.33-9.82,20.48-18.08,5.58,5.62,11.11,11.23,16.51,16.78-3.18.94-16.75,5-22.3,8.06-6.31,3.45-2.58,7.56,2.56,9.11s15.82-8,20.13-16.77c4.42,4.56,8.75,9.08,12.94,13.55-4,1.2-16.44,5-21.69,7.88-6.31,3.45-2.58,7.56,2.57,9.11,4.92,1.48,15.36-7.65,19.84-16.22,3.78,4,7.45,8,11,12-1.43.81-13.55,7.61-19.1,9.59-5.9,2.11-9.1,4.69-.81,9.87s18.43-12.75,20-19.35c4.41,4.94,8.59,9.79,12.48,14.51A68.23,68.23,0,0,1,141,180.65c-7.79,2.19-15.21,6.94-7,13.27,7.87,6.1,14.64-10.61,20.92-18.67,5.16,6.29,9.78,12.35,13.72,18.13-4.31,1.29-16.27,5-21.4,7.79-6.31,3.46-2.57,7.56,2.57,9.11,4.83,1.46,15-7.32,19.6-15.75a123.22,123.22,0,0,1,7.91,13.36c-3.92,1.79-15.07,6.68-22.79,8-9.5,1.66-7.59,6.84-1,11.7,6.32,4.62,17.11-8.79,24.15-18.92,3.43,7,5.34,13.4,5.33,18.95a1.69,1.69,0,0,0,.07.45c-3.81,1.09-14.49,4.15-20.41,5.73-7.3,1.94-12.51,8.9-6.13,14,6.22,5,14.84-4.16,27-19a.69.69,0,0,0,.13.11c-2.9,10.35-5,24.34,2.12,24.32,7.93,0,9.41-5.19,7.35-11a102.89,102.89,0,0,0-6.53-13.14c9.91,4.08,23.42,7.79,24.24.72C211.76,222,206.81,219.91,200.8,221.27Z"/></g></g></svg>