
<svg width="60px" height="60px" viewBox="0 0 60 60" version="1.1" xmlns="http://www.w3.org/2000/svg" xmlns:xlink="http://www.w3.org/1999/xlink">
    <g id="Page-1" stroke="none" stroke-width="1" fill="none" fill-rule="evenodd">
        <g id="Desktop-HD" transform="translate(-1063.000000, -1259.000000)" fill="#FFFFFF" fill-rule="nonzero">
            <g id="Footer" transform="translate(0.000000, 1228.000000)">
                <g id="Group-2" transform="translate(1063.000000, 31.000000)">
                    <g id="smartphone-(1)">
                        <path d="M42.595,0 L17.405,0 C14.977,0 13,1.977 13,4.405 L13,55.594 C13,58.023 14.977,60 17.405,60 L42.594,60 C45.023,60 47,58.023 47,55.595 L47,4.405 C47,1.977 45.023,0 42.595,0 Z M15,8 L45,8 L45,46 L15,46 L15,8 Z M17.405,2 L42.594,2 C43.921,2 45,3.079 45,4.405 L45,6 L15,6 L15,4.405 C15,3.079 16.079,2 17.405,2 Z M42.595,58 L17.405,58 C16.079,58 15,56.921 15,55.595 L15,48 L45,48 L45,55.595 C45,56.921 43.921,58 42.595,58 Z" id="Shape"></path>
                        <path d="M30,49 C27.794,49 26,50.794 26,53 C26,55.206 27.794,57 30,57 C32.206,57 34,55.206 34,53 C34,50.794 32.206,49 30,49 Z M30,55 C28.897,55 28,54.103 28,53 C28,51.897 28.897,51 30,51 C31.103,51 32,51.897 32,53 C32,54.103 31.103,55 30,55 Z" id="Shape"></path>
                        <path d="M26,5 L30,5 C30.553,5 31,4.553 31,4 C31,3.447 30.553,3 30,3 L26,3 C25.447,3 25,3.447 25,4 C25,4.553 25.447,5 26,5 Z" id="Path"></path>
                        <path d="M33,5 L34,5 C34.553,5 35,4.553 35,4 C35,3.447 34.553,3 34,3 L33,3 C32.447,3 32,3.447 32,4 C32,4.553 32.447,5 33,5 Z" id="Path"></path>
                        <path d="M56.612,4.569 C56.221,4.178 55.589,4.178 55.198,4.569 C54.807,4.96 54.807,5.592 55.198,5.983 C58.934,9.719 58.934,15.798 55.198,19.535 C54.807,19.926 54.807,20.558 55.198,20.949 C55.393,21.144 55.649,21.242 55.905,21.242 C56.161,21.242 56.417,21.144 56.612,20.949 C61.128,16.434 61.128,9.085 56.612,4.569 Z" id="Path"></path>
                        <path d="M52.401,6.845 C52.01,6.454 51.378,6.454 50.987,6.845 C50.596,7.236 50.596,7.868 50.987,8.259 C52.224,9.496 52.905,11.144 52.905,12.898 C52.905,14.652 52.224,16.299 50.987,17.536 C50.596,17.927 50.596,18.559 50.987,18.95 C51.182,19.145 51.438,19.243 51.694,19.243 C51.95,19.243 52.206,19.145 52.401,18.95 C54.016,17.336 54.905,15.186 54.905,12.898 C54.905,10.61 54.017,8.459 52.401,6.845 Z" id="Path"></path>
                        <path d="M4.802,5.983 C5.193,5.592 5.193,4.96 4.802,4.569 C4.411,4.178 3.779,4.178 3.388,4.569 C-1.128,9.085 -1.128,16.433 3.388,20.949 C3.583,21.144 3.839,21.242 4.095,21.242 C4.351,21.242 4.607,21.144 4.802,20.949 C5.193,20.558 5.193,19.926 4.802,19.535 C1.065,15.799 1.065,9.72 4.802,5.983 Z" id="Path"></path>
                        <path d="M9.013,6.569 C8.622,6.178 7.99,6.178 7.599,6.569 C5.984,8.183 5.095,10.333 5.095,12.621 C5.095,14.909 5.984,17.059 7.599,18.674 C7.794,18.869 8.05,18.967 8.306,18.967 C8.562,18.967 8.818,18.869 9.013,18.674 C9.404,18.283 9.404,17.651 9.013,17.26 C7.776,16.023 7.095,14.375 7.095,12.621 C7.095,10.867 7.775,9.22 9.013,7.983 C9.403,7.593 9.403,6.96 9.013,6.569 Z" id="Path"></path>
                    </g>
                </g>
            </g>
        </g>
    </g>
</svg>