
<svg width="60px" height="60px" viewBox="0 0 60 60" version="1.1" xmlns="http://www.w3.org/2000/svg" xmlns:xlink="http://www.w3.org/1999/xlink">
    <g id="Page-1" stroke="none" stroke-width="1" fill="none" fill-rule="evenodd">
        <g id="Desktop-HD" transform="translate(-183.000000, -1259.000000)" fill="#FFFFFF" fill-rule="nonzero">
            <g id="Footer" transform="translate(0.000000, 1228.000000)">
                <g id="Group-7" transform="translate(183.000000, 31.000000)">
                    <g id="Group-6">
                        <path d="M42.3348018,17 L17.6651982,17 C16.7400881,17 16,17.4444444 16,18 C16,18.5555556 16.7400881,19 17.6651982,19 L42.3348018,19 C43.2599119,19 44,18.5555556 44,18 C44,17.4444444 43.2475771,17 42.3348018,17 Z" id="Path"></path>
                        <path d="M42.3348018,26 L17.6651982,26 C16.7400881,26 16,26.4444444 16,27 C16,27.5555556 16.7400881,28 17.6651982,28 L42.3348018,28 C43.2599119,28 44,27.5555556 44,27 C44,26.4444444 43.2475771,26 42.3348018,26 Z" id="Path"></path>
                        <path d="M42.3348018,34 L17.6651982,34 C16.7400881,34 16,34.4444444 16,35 C16,35.5555556 16.7400881,36 17.6651982,36 L42.3348018,36 C43.2599119,36 44,35.5555556 44,35 C44,34.4444444 43.2475771,34 42.3348018,34 Z" id="Path"></path>
                        <g id="speech-bubble-2">
                            <g id="speech-bubble">
                                <path d="M13.24,59.4654545 C13.0927273,59.4654545 12.9436364,59.4290909 12.8090909,59.3563636 C12.5145455,59.1981818 12.3309091,58.8890909 12.3309091,58.5563636 L12.3309091,45.6036364 C4.37272727,41.4654545 0,34.22 0,25.1418182 C0,11.1127273 12.8963636,0.534545455 30,0.534545455 C47.1036364,0.534545455 60,11.1127273 60,25.1418182 C60,39.1690909 47.1036364,49.7472727 30,49.7472727 C29.4381818,49.7472727 28.8872727,49.7163636 28.3345455,49.6872727 L28.2981818,49.6854545 L13.74,59.3145455 C13.5890909,59.4145455 13.4145455,59.4654545 13.24,59.4654545 Z M30,2.35272727 C13.9345455,2.35272727 1.81818182,12.1509091 1.81818182,25.1418182 C1.81818182,31.1836364 3.86909091,39.4 13.6418182,44.2309091 C13.9509091,44.3836364 14.1472727,44.7 14.1472727,45.0454545 L14.1472727,56.8654545 L27.5454545,48.0036364 C27.7090909,47.8945455 27.9072727,47.8309091 28.0945455,47.8545455 L28.4327273,47.8727273 C28.9527273,47.9018182 29.4709091,47.9290909 29.9981818,47.9290909 C46.0636364,47.9290909 58.18,38.1327273 58.18,25.1418182 C58.18,12.1509091 46.0654545,2.35272727 30,2.35272727 Z" id="Shape"></path>
                            </g>
                        </g>
                    </g>
                </g>
            </g>
        </g>
    </g>
</svg>