<?xml version="1.0" encoding="utf-8"?>
<!-- Generator: Adobe Illustrator 21.1.0, SVG Export Plug-In . SVG Version: 6.00 Build 0)  -->
<svg version="1.1" id="Layer_1" xmlns="http://www.w3.org/2000/svg" xmlns:xlink="http://www.w3.org/1999/xlink" x="0px" y="0px"
	 viewBox="0 0 292 72.5" style="enable-background:new 0 0 292 72.5;" xml:space="preserve">
<style type="text/css">
	.st0{fill:#23509B;}
	.st1{fill:#143C6E;}
</style>
<g>
	<g>
		<path class="st0" d="M272,55.5L272,55.5l-1.2-1.9h0l-1,1.7l0,0L272,55.5z M269.5,49L269.5,49l1.3,2.4h0.1l1.2-2.3l0-0.1L269.5,49z
			 M268.5,49.5L268.5,49.5l0.1,5.5l0,0l1.5-2.5l0-0.1L268.5,49.5z M273.4,55.2l0-5.9l0,0l-1.8,3.2l0,0.1L273.4,55.2L273.4,55.2z
			 M265,34.1L265,34.1c0,1,0,2.6,0,2.6l0.8,1.4c0.3,0.4,2.3,10.1,2.3,10.1l2.5-1.3c-0.2-0.3-0.4-0.7-0.4-1.2c0-0.2,0-0.4,0.1-0.5
			c-0.1,0-0.7-0.1-0.8-0.3c-0.1-0.2-0.2-2.2,0.1-2.7c0-0.1-0.1-0.2-0.2-0.3c-0.4-0.5-1.8-2.1-1.8-2.4c0-0.2,0.3-0.6,0.3-0.6
			L265,34.1z M251.9,63c0-0.2-0.3-2.5-0.4-3.1c-2.7-0.2-4-0.5-4.3-0.9c-0.4-0.5,3.1-21.6,3.4-22c0.2-0.2,1-0.9,1.1-1.1
			c0.1-0.2,0-4.6,0-5.7h-0.1c-0.2,0-4.8,4.5-6.3,4.3c-1.1-0.1-2.2-0.7-2.8-1.1l2.4,37.5c2.6,0.8,5.3,1.3,8.1,1.5l0.8-1.3l0-2
			l-1.1-5.9C252.6,63.4,252,63.2,251.9,63z M255.7,0c-5.4,0-10.5,1.2-15.1,3.3l1.3,21.1c0.6-0.1,1-0.1,1.1,0
			c0.2,0.2,0.9,1.9,0.9,2.2c0,0.2,0,0.4-0.2,0.6c0.6,0.2,1.8,0.5,1.8,0.5c0,0,3.3-4.4,4.2-5c0.2-0.1,2.8-1.3,3.9-1.8
			c0.1-0.1,0.2-0.2,0.2-0.4c0-0.4,0.3-2.3,0.3-2.8c0-0.3,0.8-1,0.9-1.5c0.1-0.5,0.1-3,0.2-3.3c0.1-0.4,2.2-1.8,2.7-2.1
			c0.3-0.2,2.7-0.1,3-0.1c1,0.2,1.9,1.1,1.9,1.5c0,0.3-0.1,3.7-0.1,3.7c0,0.3,1.2,2.2,1.2,2.8c0,0.6-0.1,1.9-0.1,2.2
			c0,0.1,0.1,0.3,0.2,0.5c0.7,0.4,3.4,2.1,3.9,2.4c0.5,0.3,2.2,8.1,2.2,8.1l2.2,4.4c0,0,0.6-0.2,0.8-0.1c0.2,0.1,0.4,5.2,0.4,5.2v0
			c0.3,0.6,1,2,1,2.5c0,0.5-0.5,1-1.1,1.4c0,0.1,0,0.2,0,0.3c0,0.5-0.2,0.9-0.4,1.2c0.8,0.4,2.2,1.1,2.2,1.2c0,0.3,0,0.6,0,7.9
			c0,0-0.9,0.7-1,0.7c-0.1,0-3.1-0.2-5-0.3c0.1,1.4,0.2,2.6,0.1,2.9c-0.9,0.4-3.1,0.7-4.6,0.8c-0.3,1.1-1.3,4.6-1.6,4.6
			c-0.3,0-0.6,0-0.6,0s-1.9,2.7-1.9,3c0,0.2,0.7,2.6,0.7,2.6l1.8,1.5c16.4-3.5,28.7-18.1,28.7-35.5C292,16.3,275.7,0,255.7,0z"/>
		<path class="st1" d="M238.8,31.1c-0.5-0.4-1.3-2.3-1.2-3.4c0-1,0.7-2.2,0.9-2.6c0.1-0.1,0.3-0.2,0.6-0.3l-1.3-20.4
			c-11.3,6.2-18.9,18.1-18.9,31.9c0,15.4,9.6,28.5,23.1,33.8l-2.5-38.7C239.3,31.3,239,31.2,238.8,31.1z"/>
	</g>
	<g>
		<path class="st1" d="M115.1,19.1c1.5,0,2.8,1.2,2.8,2.8c0,1.5-1.2,2.7-2.8,2.7c-1.5,0-2.7-1.2-2.7-2.7
			C112.4,20.3,113.6,19.1,115.1,19.1z"/>
		<path class="st1" d="M113,29.9c0-0.4,0.3-0.8,0.8-0.8h2.6c0.4,0,0.8,0.4,0.8,0.8v19.8h-3.4c-0.4,0-0.8-0.4-0.8-0.8L113,29.9
			L113,29.9z"/>
		<path class="st1" d="M151.5,19.1c1.5,0,2.8,1.2,2.8,2.8c0,1.5-1.2,2.7-2.8,2.7c-1.5,0-2.7-1.2-2.7-2.7
			C148.8,20.3,149.9,19.1,151.5,19.1z"/>
		<path class="st1" d="M149.4,29.9c0-0.4,0.4-0.8,0.8-0.8h2.6c0.4,0,0.8,0.4,0.8,0.8v19.8h-3.4c-0.4,0-0.8-0.4-0.8-0.8L149.4,29.9
			L149.4,29.9z"/>
		<path class="st1" d="M142.2,18.6h-2.6c-0.4,0-0.8,0.3-0.8,0.8v11.5c-1.8-1.5-4.1-2.2-6.3-2.2c-1.9,0-3.6,0.5-5,1.3
			c-3.1,1.8-5.3,5.3-5.3,9.4c0,4.1,2.1,7.5,5.3,9.4c1.4,0.8,3.3,1.4,5.2,1.4c2.5,0,4.7-0.8,6.4-2.3V49c0,0.4,0.3,0.8,0.8,0.8h3.3
			V19.4C142.9,19,142.6,18.6,142.2,18.6z M138.8,43.3c-1.4,1.9-3.6,2.9-5.7,2.9c-4,0-6.8-3.1-6.8-6.8c0-3.6,2.6-6.8,6.6-6.8
			c2.5,0,4.6,1.3,5.9,2.9V43.3z"/>
		<path class="st1" d="M178.5,29.1h-2.5c-0.4,0-0.8,0.4-0.8,0.8V31c-1.9-1.6-4.1-2.3-6.5-2.3c-1.9,0-3.6,0.5-5,1.3
			c-3.1,1.8-5.3,5.3-5.3,9.4c0,4.1,2.1,7.5,5.3,9.4c1.4,0.8,3.3,1.4,5.2,1.4c2.5,0,4.6-0.8,6.2-2.2v1.1c0,2.6-0.4,4.2-1.1,5.3
			c-1,1.5-2.8,2.4-5,2.4c-3.1,0-4.9-1.4-6.4-3.2c0,0,0,0,0,0c-0.3-0.2-0.7-0.2-1,0c0,0-0.1,0.1-0.1,0.1l-2.4,2.2
			c1.3,2.1,4.7,4.8,10,4.8c4.1,0,7.2-1.9,8.9-5.1c0.8-1.6,1.2-3.7,1.2-6.8v-19C179.3,29.5,179,29.1,178.5,29.1z M175.1,43.3
			c-1.4,1.9-3.6,2.9-5.7,2.9c-4,0-6.8-3.1-6.8-6.8c0-3.6,2.6-6.8,6.6-6.8c2.5,0,4.6,1.3,5.9,2.9V43.3z"/>
		<path class="st1" d="M63.2,39.5c0-6.1-4.2-10.8-9.9-10.8c-5.8,0-10.1,4.6-10.1,10.8c0,6.2,4.7,10.8,10.7,10.8
			c4.2,0,7.2-1.9,8.7-3.9c0,0-2.3-2.2-2.3-2.2c-0.3-0.2-0.6-0.1-0.8,0c-0.1,0.1-0.2,0.2-0.2,0.2c-1.1,1.1-2.7,2.2-5.3,2.2
			c-3.6,0-6.4-2.8-6.7-6.2h15.1c0.4,0,0.8-0.3,0.8-0.7C63.2,39.6,63.2,39.5,63.2,39.5L63.2,39.5z M47.6,36.8
			c0.7-2.7,3.1-4.5,5.8-4.5c2.5,0,4.8,1.8,5.4,4.5H47.6z"/>
		<path class="st1" d="M204.1,39.5c0-6.1-4.2-10.8-9.9-10.8c-5.8,0-10.1,4.6-10.1,10.8c0,6.2,4.7,10.8,10.7,10.8
			c4.2,0,7.2-1.9,8.7-3.9c0,0-2.3-2.2-2.3-2.2c-0.3-0.2-0.6-0.1-0.8,0c-0.1,0.1-0.2,0.2-0.2,0.2c-1.1,1.1-2.7,2.2-5.3,2.2
			c-3.6,0-6.5-2.8-6.7-6.2h15.1c0.4,0,0.8-0.3,0.8-0.7c0,0,0,0,0,0l0,0C204.1,39.6,204.1,39.5,204.1,39.5L204.1,39.5z M188.5,36.8
			c0.7-2.7,3.1-4.5,5.8-4.5c2.5,0,4.8,1.8,5.4,4.5H188.5z"/>
		<path class="st1" d="M36.2,19.1c1.5,0,2.8,1.2,2.8,2.8c0,1.5-1.2,2.7-2.8,2.7c-1.5,0-2.7-1.2-2.7-2.7
			C33.5,20.3,34.7,19.1,36.2,19.1z"/>
		<path class="st1" d="M38.3,51.5c0,2.8-0.4,4.5-1.3,5.8c-1.5,2.2-4,3.4-6.8,3.4c-0.9,0-1.9-0.1-2.5-0.3l0.7-3.1
			c0.1-0.4,0.5-0.7,0.9-0.6l0.8,0c1.2,0,2.5-0.5,3.2-1.5c0.6-0.7,0.8-1.8,0.8-3.7v-0.8v-21c0-0.4,0.3-0.8,0.8-0.8h2.6
			c0.4,0,0.8,0.4,0.8,0.8v20.8L38.3,51.5L38.3,51.5z"/>
		<path class="st1" d="M85.9,32.3c-1.8-2.2-4.5-3.6-7.5-3.6c-3,0-5.1,1.4-6.2,2.4v-1.2c0-0.4-0.3-0.8-0.8-0.8H69
			c-0.4,0-0.8,0.4-0.8,0.8V49c0,0.4,0.4,0.8,0.8,0.8h2.6c0.4,0,0.8-0.4,0.8-0.8V35.6c1.2-1.5,3.2-2.9,5.9-2.9c1.7,0,3.3,0.8,4.3,2
			c0.7,0.9,1.2,2.2,1.2,4.8l0,0.8V49c0,0.4,0.3,0.8,0.8,0.8h2.6h0.8V39.7C87.9,36.1,87.2,34,85.9,32.3z"/>
		<path class="st1" d="M104.6,33.5C104.6,33.5,104.6,33.5,104.6,33.5C104.6,33.6,104.6,33.5,104.6,33.5L104.6,33.5z"/>
		<path class="st1" d="M93.9,44.9L93.9,44.9L93.9,44.9C94,44.9,94,44.9,93.9,44.9z"/>
		<path class="st1" d="M92.2,47.4c2.3,1.8,5,2.9,8.3,2.9c4,0,7.7-2.4,7.7-6.3c0-4.3-4.3-5.7-7.5-6.5c-2.1-0.5-3.7-1-3.7-2.4
			c0-1.6,1.7-2.6,3.7-2.6c1.4,0,2.7,0.5,3.8,1.2c0,0,0,0,0,0c0.4,0.2,0.9,0.1,1.1-0.2l1.1-1.5l0.1-0.1c0.3-0.4,0.3-0.8,0-1.1
			l-0.1-0.1c-1.6-1.1-3.6-1.8-6.2-1.8c-3.7,0-7.6,2-7.6,6.4c0,2.9,2.2,4.5,4.7,5.3c3,1,6.5,1.1,6.5,3.5c0,1.6-1.8,2.6-3.6,2.6
			c-1.8,0-3.7-0.6-5.4-1.8l0,0c-0.3-0.3-0.8-0.2-1.1,0.1L92.2,47.4z"/>
		<path class="st1" d="M27.9,31.9c0-0.4-0.3-0.8-0.8-0.8l-12.4,0v3.4c0,0.4,0.4,0.7,0.8,0.7l8,0v7.9c-1.6,1.6-4.3,2.9-7.5,2.9
			C9.4,46,4.4,41.3,4.4,34.4c0-6.6,4.9-11.6,11.1-11.6c3,0,5.9,1.2,7.8,2.9h0c0,0,0,0,0,0c0.3,0.3,0.7,0.3,1,0c0,0,0,0,0,0h0
			l1.9-1.8l0,0v0c0,0,0,0,0,0c0.2-0.3,0.3-0.7,0.1-1c0,0,0-0.1-0.1-0.1l0,0l0,0c0,0,0,0,0,0v0c-2.7-2.6-6.6-4.2-10.7-4.2
			C6.7,18.6,0,25.5,0,34.4c0,9.1,6.8,15.8,15.9,15.8c4.7,0,9.3-2.4,11.9-5.7V31.9z"/>
	</g>
</g>
</svg>
