
<svg width="126px" height="95px" viewBox="0 0 126 95" version="1.1" xmlns="http://www.w3.org/2000/svg" xmlns:xlink="http://www.w3.org/1999/xlink">
    <g id="Page-1" stroke="none" stroke-width="1" fill="none" fill-rule="evenodd">
        <g id="Desktop-HD" transform="translate(-186.000000, -400.000000)" fill-rule="nonzero">
            <g id="About" transform="translate(47.000000, 110.000000)">
                <g id="kokkos-copy" transform="translate(139.000000, 290.000000)">
                    <g id="Group-2">
                        <rect id="Rectangle" fill="#4A536B" x="13.8139535" y="70.6659292" width="12.6439535" height="7.86315265" rx="3.93157633"></rect>
                        <path d="M121.89327,54.9856199 L4.10210692,54.9856199 C1.94629296,54.9856199 0.0667580806,56.645642 0.00187435967,58.7969805 C-0.0309696597,59.8604618 0.368984078,60.8918534 1.11044531,61.6557378 C1.85190654,62.4196225 2.87159262,62.8508037 3.93675809,62.8508632 L48.7693162,62.8508632 C49.7350053,62.8508632 50.6611118,63.2342004 51.3437607,63.9164862 C52.0264097,64.5987723 52.4096389,65.5240744 52.4090836,66.4886951 L52.4090836,67.0824562 C52.4096389,68.0470768 52.0264097,68.972379 51.3437607,69.6546651 C50.6611118,70.3369511 49.7350053,70.7202882 48.7693162,70.720288 L35.614665,70.720288 C34.6489759,70.720288 33.7228696,71.1036252 33.0402204,71.785911 C32.3575715,72.468197 31.9743423,73.3934992 31.9748976,74.3581199 L31.9748976,74.9393367 C31.9748976,76.9473011 33.6044769,78.5750779 35.614665,78.5750779 L54.334665,78.5750779 C56.3460091,78.5750779 57.9765255,80.2037908 57.9765255,82.2129097 L57.9765255,82.8003986 C57.9765255,83.7652117 57.5928306,84.6905084 56.9098492,85.3727342 C56.2268679,86.05496 55.3005465,86.4382305 54.334665,86.4382305 L43.1935022,86.4382305 C41.0376883,86.4382305 39.1581534,88.0982526 39.0932697,90.2495911 C39.0604027,91.3137981 39.4609236,92.3458386 40.2032972,93.1098504 C40.945671,93.8738622 41.9664479,94.3045462 43.0323394,94.3034739 L79.6183859,94.3034739 C81.7927181,94.3034739 83.5553627,92.5427791 83.5553627,90.3708522 C83.5542073,88.1997419 81.791901,86.440321 79.6183859,86.4403212 L76.0016417,86.4403212 C73.9907768,86.4380139 72.361873,84.8090407 72.3618743,82.8003986 L72.3618743,82.2150004 C72.361319,81.2503798 72.7445482,80.3250776 73.4271972,79.6427915 C74.1098463,78.9605057 75.0359526,78.5771686 76.0016417,78.5771686 L107.078851,78.5771686 C109.089378,78.577169 110.719556,76.9497299 110.720712,74.9414274 L110.720712,74.3602106 C110.720712,72.3510917 109.090195,70.7223787 107.078851,70.7223787 L92.6369906,70.7223787 C90.6256467,70.7223787 88.9951301,69.093666 88.9951301,67.0845469 L88.9951301,66.4866044 C88.9951301,64.4774855 90.6256467,62.8487725 92.6369906,62.8487725 L121.730014,62.8487725 C123.883735,62.8487725 125.76327,61.1908411 125.828153,59.0395026 C125.861587,57.9758568 125.461828,56.9441253 124.720239,56.1801095 C123.97865,55.4160937 122.958618,54.9850957 121.89327,54.9856199 Z M80.9160603,67.0824562 C80.9160608,69.0907591 79.2868194,70.719134 77.2762929,70.720288 L64.4293162,70.720288 C62.4179723,70.720288 60.7874557,69.0915753 60.7874557,67.0824562 L60.7874557,66.4886951 C60.7874557,64.4795762 62.4179723,62.8508632 64.4293162,62.8508632 L77.2658278,62.8508632 C78.2331591,62.8486421 79.1616328,63.2309316 79.8464258,63.9133985 C80.5312191,64.5958651 80.9160629,65.5224316 80.9160603,66.4886951 L80.9160603,67.0824562 Z" id="Shape" fill="#4A536B"></path>
                        <path d="M112.399535,47.1705531 L90.3976744,47.1705531 C88.258131,47.1212791 86.5493981,45.3746306 86.5493981,43.2368861 C86.5493981,41.0991416 88.258131,39.352493 90.3976744,39.303219 L111.405349,39.303219 C106.708605,16.859469 86.7851163,2.84217094e-14 62.9246512,2.84217094e-14 C41.8855814,2.84217094e-14 23.9127907,13.1045575 16.7337209,31.5864159 L20.9197674,31.5864159 C23.0166513,31.5864159 24.7165116,33.2843959 24.7165116,35.3789602 C24.7165116,37.4735245 23.0166513,39.1715044 20.9197674,39.1715044 L14.4732558,39.1715044 C13.3715593,44.3848029 13.1122334,49.740629 13.7051162,55.0357965 L112.144186,55.0357965 C112.351114,53.1892502 112.454531,51.3325921 112.453953,49.4745133 C112.453953,48.6967699 112.435116,47.9336615 112.399535,47.1705531 Z M41.6553488,39.1924115 L33.3606977,39.1924115 C31.2522543,39.1924115 29.5430233,37.4850712 29.5430233,35.3789602 C29.5430233,33.2728491 31.2522543,31.5655088 33.3606977,31.5655088 L41.6637209,31.5655088 C43.0276446,31.5655088 44.2879621,32.2923485 44.9699241,33.4722345 C45.6518859,34.6521205 45.6518859,36.1057998 44.9699241,37.2856858 C44.2879621,38.4655719 43.0276446,39.1924115 41.6637209,39.1924115 L41.6553488,39.1924115 Z M62.9246512,18.477677 C62.9246512,16.30575 64.6872957,14.5450553 66.8616279,14.5450553 L91.705814,14.5450553 C93.8801461,14.5450553 95.6427907,16.30575 95.6427907,18.477677 C95.6427907,20.649604 93.8801461,22.4102987 91.705814,22.4102987 L66.8616279,22.4102987 C64.6872957,22.4102987 62.9246512,20.649604 62.9246512,18.477677 Z" id="Shape" fill="#F47C6F"></path>
                        <path d="M98.0246543,47.2520972 L90.4144217,47.2520972 C88.2748783,47.2028232 86.5661457,45.4561747 86.5661457,43.3184302 C86.5661457,41.1806854 88.2748783,39.4340369 90.4144217,39.3847631 L96.2204683,39.3847631 C93.8043515,32.5911424 89.3679488,26.6970714 83.505352,22.4918428 L66.8783752,22.4918428 C65.3177731,22.4936479 63.903748,21.5735399 63.2746857,20.1469169 C62.6456233,18.720294 62.9205526,17.0570965 63.975352,15.9082033 C63.6320962,15.9082033 63.2867473,15.8893869 62.9413985,15.8893869 C51.1129813,15.8822659 40.0689555,21.7997626 33.5323287,31.6470529 L41.6804683,31.6470529 C43.7889117,31.6470529 45.4981427,33.3543932 45.4981427,35.4605043 C45.4981427,37.5666153 43.7889117,39.2739556 41.6804683,39.2739556 L33.377445,39.2739556 C32.157454,39.27692 31.0097677,38.6963279 30.2902357,37.7121967 C28.023125,43.2162497 27.183703,49.2029207 27.8497706,55.1173406 L98.0246543,55.1173406 C98.3204939,52.5039198 98.3204939,49.8655177 98.0246543,47.2520972 Z" id="Path" fill="#FACA68"></path>
                        <path d="M84.1169269,55.0980755 C85.0233165,47.0195135 81.2187676,39.1359948 74.3271516,34.8123921 C67.4355355,30.4887896 58.6741322,30.4887896 51.7825162,34.8123921 C44.8909001,39.1359948 41.086351,47.0195135 41.9927408,55.0980755 L84.1169269,55.0980755 Z" id="Path" fill="#FEEF7B"></path>
                    </g>
                </g>
            </g>
        </g>
    </g>
</svg>