
<svg width="126px" height="111px" viewBox="0 0 126 111" version="1.1" xmlns="http://www.w3.org/2000/svg" xmlns:xlink="http://www.w3.org/1999/xlink">
    <g id="Page-1" stroke="none" stroke-width="1" fill="none" fill-rule="evenodd">
        <g id="Desktop-HD" transform="translate(-1121.000000, -812.000000)" fill-rule="nonzero">
            <g id="Chat-with-us" transform="translate(979.000000, 678.000000)">
                <g id="consult" transform="translate(142.000000, 134.000000)">
                    <path d="M117.310345,41.2758621 L47.7931034,41.2758621 C47.5321591,41.2758621 47.271215,41.297077 47.0113316,41.3193527 C46.0258959,41.4052733 45.0627356,41.6630354 44.1653421,42.0799099 C43.8821221,42.1944705 43.612692,42.3397933 43.3612946,42.5137561 C40.7168473,44.0624496 39.0949623,46.9010137 39.1034483,49.9655172 L39.1034483,89.0689655 C39.1034483,93.8677936 42.9942753,97.7586207 47.7931034,97.7586207 L86.8965517,97.7586207 L86.8965517,110.793103 L97.7586207,97.7586207 L117.310345,97.7586207 C122.109173,97.7586207 126,93.8677936 126,89.0689655 L126,49.9655172 C126,45.1666891 122.109173,41.2758621 117.310345,41.2758621 Z" id="Path" fill="#F7EB92"></path>
                    <path d="M91.2413793,8.68965517 L91.2413793,52.137931 C91.2413793,56.9367592 87.3505523,60.8275862 82.5517241,60.8275862 L30.4137931,60.8275862 L30.4137931,76.0344828 L19.5517241,60.8275862 L8.68965517,60.8275862 C3.89082705,60.8275862 0,56.9367592 0,52.137931 L0,8.68965517 C0,3.89082705 3.89082705,0 8.68965517,0 L82.5517241,0 C87.3505523,0 91.2413793,3.89082705 91.2413793,8.68965517 Z" id="Path" fill="#B5E2EB"></path>
                    <path d="M34.5634429,41.710769 C36.147141,43.4206965 36.0994073,46.0757509 34.4541857,47.7283978 C32.7601697,49.4224138 26.937719,52.5070717 25.243703,50.7907798 C23.5486261,49.0744881 26.612069,43.274313 28.3060849,41.5802971 C29.9587319,39.9350754 32.6137862,39.8873418 34.3237138,41.4710399 L34.5634429,41.710769 Z" id="Path" fill="#F47C6F"></path>
                    <g id="Group" transform="translate(23.625000, 19.280172)" fill="#009184">
                        <path d="M31.7280611,15.5654296 C33.0158101,16.8404499 33.3722218,18.7826812 32.6190902,20.4310849 L27.4914298,31.7503367 C27.1912377,32.3942114 26.595097,32.851394 25.8950027,32.9765625 C25.1959691,33.1027917 24.4789028,32.8800343 23.9729256,32.3793608 L18.4984005,26.9048357 L20.0407293,22.3001247 L21.5830584,23.8424535 L30.7935414,14.6309098 L31.7280611,15.5654296 Z" id="Path"></path>
                        <path d="M15.4349576,17.6943527 L18.4984005,20.7790106 L12.3502998,23.8424535 L10.9384429,22.4305966 C10.8737373,22.33619 10.7931204,22.2555731 10.6987138,22.1908675 L9.28685688,20.7790106 L12.3502998,14.6309098 L15.4349576,17.6943527 Z" id="Path"></path>
                        <path d="M18.4984005,2.33576899 L9.28685688,11.546252 L10.8291857,13.088581 L6.22447468,14.6309098 L0.749949556,9.1563847 C0.249276065,8.65040753 0.0265186552,7.93334126 0.152747845,7.23430765 C0.277916353,6.53421336 0.735098935,5.9380726 1.3789736,5.63788059 L12.6982254,0.510220164 C14.3466291,-0.242911435 16.2888605,0.113500203 17.5638808,1.40124926 L18.4984005,2.33576899 Z" id="Path"></path>
                    </g>
                    <path d="M65.9329707,17.1841325 C65.1257408,21.4228852 63.0498553,25.3168946 59.9800478,28.3495758 L54.4185414,33.9110822 L45.2080584,43.1226259 L43.6657293,41.5802971 L42.1234005,40.059183 L39.0599576,36.9745251 L35.9752998,33.9110822 L34.4541857,32.3687534 L32.9118569,30.8264244 L42.1234005,21.6159414 L47.6849069,16.054435 C50.7175882,12.9846275 54.6115975,10.9087419 58.8503502,10.1015121 C61.4141803,9.62417491 63.9345197,9.62417491 65.1724138,10.862069 C66.4103079,12.099963 66.4103079,14.6203025 65.9329707,17.1841325 Z" id="Path" fill="#67B6A2"></path>
                    <polygon id="Path" fill="#009184" points="37.5218716 35.4406823 48.2746836 24.6878703 51.3476732 27.7597992 40.5938004 38.5126112"></polygon>
                    <path d="M56.9675208,23.8382105 L55.7741783,20.2603044 L52.1962723,19.0669619 L53.5720636,14.9395878 L58.1788962,16.4755523 C58.8270136,16.691945 59.3361731,17.2000438 59.5525661,17.8481612 L61.0885306,22.4560546 L56.9675208,23.8382105 Z" id="Path" fill="#009184"></path>
                    <polygon id="Path" fill="#FAD078" points="52.137931 67.3448276 112.965517 67.3448276 112.965517 71.6896552 52.137931 71.6896552"></polygon>
                    <polygon id="Path" fill="#FAD078" points="52.137931 80.3793103 112.965517 80.3793103 112.965517 84.7241379 52.137931 84.7241379"></polygon>
                    <polygon id="Path" fill="#FAD078" points="99.9310345 54.3103448 112.965517 54.3103448 112.965517 58.6551724 99.9310345 58.6551724"></polygon>
                </g>
            </g>
        </g>
    </g>
</svg>
