
<svg width="126px" height="122px" viewBox="0 0 126 122" version="1.1" xmlns="http://www.w3.org/2000/svg" xmlns:xlink="http://www.w3.org/1999/xlink">
    <g id="Page-1" stroke="none" stroke-width="1" fill="none" fill-rule="evenodd">
        <g id="Desktop-HD" transform="translate(-655.000000, -389.000000)" fill-rule="nonzero">
            <g id="Get-a-Quote" transform="translate(513.000000, 259.000000)">
                <g id="project" transform="translate(142.000000, 130.000000)">
                    <path d="M23.1,0 L102.9,0 C105.219434,0 107.1,1.88056628 107.1,4.2 L107.1,117.6 C107.1,119.919434 105.219434,121.8 102.9,121.8 L23.1,121.8 C20.7805663,121.8 18.9,119.919434 18.9,117.6 L18.9,4.2 C18.9,1.88056627 20.7805663,0 23.1,0 Z" id="Path" fill="#F7EB92"></path>
                    <polygon id="Path" fill="#F47C6F" points="94.5 0 94.5 16.8 90.3 10.5 86.1 16.8 86.1 0"></polygon>
                    <path d="M82.9294922,70.664795 C83.1755859,71.307715 83.0894531,72.0306153 82.6987794,72.5966309 C82.3091309,73.1636719 81.66416,73.5010253 80.9761231,73.5 L73.5,73.5 L71.4,69.3 L73.5,69.3 L73.5,56.7 L74.7807128,56.7 C76.5361816,56.7030762 78.10708,57.788965 78.7294922,59.42959 L82.4455078,69.3625488 L82.9294922,70.664795 Z" id="Path" fill="#009184"></path>
                    <path d="M73.5,42.3783691 L73.500153,69.3 L52.499847,69.3 L52.5,42.3783691 C52.4897462,40.6987794 52.9952637,39.0561034 53.9488769,37.6738769 C56.0488769,34.607959 60.0386719,29.4 63,29.4 C65.9613281,29.4 69.9511231,34.607959 72.0511231,37.6738769 C73.0047363,39.0561034 73.5102538,40.6987794 73.5,42.3783691 L73.5,42.3783691 Z" id="Path" fill="#67B6A2"></path>
                    <polygon id="Path" fill="#009184" points="69.3 69.3 67.2 75.6 58.8 75.6 56.7 69.3"></polygon>
                    <path d="M63,75.6 C66.4791503,75.6 69.3,78.4208497 69.3,81.9 C69.3,85.3863281 66.4863281,92.4 63,92.4 C59.5136719,92.4 56.7,85.3863281 56.7,81.9 C56.7,78.4208497 59.5208497,75.6 63,75.6 Z" id="Path" fill="#F47C6F"></path>
                    <path d="M54.6,69.3 L52.5,73.5 L45.0238769,73.5 C44.33584,73.5010253 43.6908691,73.1636719 43.3012206,72.5966309 C42.9105469,72.0306153 42.8244141,71.307715 43.0705078,70.664795 L43.5544922,69.3625488 L47.2705078,59.42959 C47.89292,57.788965 49.4638184,56.7030762 51.2192872,56.7 L52.5,56.7 L52.5,69.3 L54.6,69.3 Z" id="Path" fill="#009184"></path>
                    <path d="M67.2,42 C67.2,44.3194337 65.3194337,46.2 63,46.2 C60.6805663,46.2 58.8,44.3194337 58.8,42 C58.8,39.6805663 60.6805663,37.8 63,37.8 C65.3194337,37.8 67.2,39.6805663 67.2,42 Z" id="Path" fill="#FAD078"></path>
                    <path d="M84,100.8 C83.2360841,100.803076 82.4885744,101.016357 81.8374512,101.415234 C81.8743653,101.212207 81.8948731,101.006103 81.9,100.8 C81.9,98.4805663 80.0194337,96.6 77.7,96.6 C75.3805663,96.6 73.5,98.4805663 73.5,100.8 C72.6612306,100.797949 71.8419434,101.04917 71.1477538,101.519824 C70.5663575,99.8351075 68.9821288,98.7041016 67.2,98.7 C67.0144044,98.7061525 66.829834,98.7246094 66.6473144,98.7563965 C65.9162109,97.4254394 64.5186034,96.5989747 63,96.5989747 C61.4813965,96.5989747 60.0837891,97.4254394 59.3526856,98.7563965 C59.1701659,98.7246094 58.9855956,98.7061525 58.8,98.7 C57.0178712,98.7041016 55.4336425,99.8351075 54.8522462,101.519824 C54.1580566,101.04917 53.3387694,100.797949 52.5,100.8 C52.5,98.4805663 50.6194337,96.6 48.3,96.6 C45.9805663,96.6 44.1,98.4805663 44.1,100.8 C44.1051269,101.006103 44.1256347,101.212207 44.1625488,101.415234 C42.2594238,100.254492 39.7810547,100.782568 38.5167481,102.618018 C37.2524413,104.454492 37.64209,106.958496 39.4057618,108.322266 C41.1684081,109.687061 43.6898437,109.43584 45.15,107.751123 C46.4542969,109.282031 48.6732422,109.648096 50.4,108.618603 C51.0357422,108.994922 51.7606934,109.195898 52.5,109.2 L73.5,109.2 C74.2393066,109.195898 74.9642578,108.994922 75.6,108.618603 C77.3267578,109.648096 79.5457031,109.282031 80.85,107.751123 C82.1214844,109.217432 84.2317381,109.622461 85.95542,108.729346 C87.6791016,107.836231 88.5660644,105.87876 88.1015625,103.994092 C87.6370606,102.109424 85.9410644,100.788721 84,100.8 Z" id="Path" fill="#B5E2EB"></path>
                    <polygon id="Path" fill="#009184" points="60.9 54.6 65.1 54.6 65.1 69.3 60.9 69.3"></polygon>
                    <polygon id="Path" fill="#FF998C" points="75.6 79.8 79.8 79.8 79.8 88.2 75.6 88.2"></polygon>
                    <polygon id="Path" fill="#FF998C" points="46.2 79.8 50.4 79.8 50.4 88.2 46.2 88.2"></polygon>
                    <path d="M42,111.3 C39.7051757,111.303076 37.589795,110.058252 36.4782716,108.049512 C35.3677734,106.040772 35.4364747,103.587012 36.6587403,101.644922 C37.8810059,99.7018066 40.0640625,98.5779784 42.354785,98.7102538 C43.3719725,95.8114747 46.33125,94.0683106 49.3592285,94.5851075 C52.3882325,95.1019044 54.6020507,97.7279297 54.6,100.8 L50.4,100.8 C50.4,99.6402831 49.4597169,98.7 48.3,98.7 C47.1402831,98.7 46.2,99.6402831 46.2,100.8 C46.2020507,100.91792 46.2112794,101.034814 46.2297363,101.150684 C46.3199706,101.945361 45.9518556,102.721582 45.2802247,103.154297 C44.6075684,103.587012 43.748291,103.601367 43.0623047,103.190186 C42.7413575,102.997412 42.3742675,102.897949 42,102.9 C40.8402831,102.9 39.9,103.840283 39.9,105 C39.9,106.159717 40.8402831,107.1 42,107.1 L42,111.3 Z" id="Path" fill="#85C6D2"></path>
                    <path d="M84,111.3 L84,107.1 C85.1597169,107.1 86.1,106.159717 86.1,105 C86.1,103.840283 85.1597169,102.9 84,102.9 C83.6257325,102.897949 83.2586425,102.998437 82.9376953,103.190186 C82.2537597,103.599316 81.3965331,103.587012 80.7259278,103.156348 C80.0542969,102.726709 79.6841309,101.953564 79.7702637,101.160937 C79.7876953,101.040967 79.7969238,100.920996 79.8,100.8 C79.8,99.6402831 78.8597169,98.7 77.7,98.7 C76.5402831,98.7 75.6,99.6402831 75.6,100.8 L71.4,100.8 C71.4010253,97.7299806 73.6138184,95.1070312 76.6397462,94.5912597 C79.6666993,94.0744628 82.6239256,95.8145506 83.6431641,98.7102538 C85.9338868,98.5779784 88.1159181,99.7018066 89.3381837,101.643897 C90.5604493,103.585986 90.6301756,106.039746 89.5196778,108.048486 C88.4091797,110.056201 86.2948243,111.302051 84,111.3 L84,111.3 Z" id="Path" fill="#85C6D2"></path>
                    <polygon id="Path" fill="#579FAD" points="29.4 107.1 96.6 107.1 96.6 111.3 29.4 111.3"></polygon>
                    <g id="Group" transform="translate(29.400000, 10.500000)" fill="#FAD078">
                        <polygon id="Path" points="0 0 8.4 0 8.4 4.2 0 4.2"></polygon>
                        <polygon id="Path" points="12.6 0 25.2 0 25.2 4.2 12.6 4.2"></polygon>
                        <polygon id="Path" points="0 8.4 25.2 8.4 25.2 12.6 0 12.6"></polygon>
                    </g>
                    <path d="M81.2847656,39.2847656 L78.3152344,36.3152344 L86.7152344,27.9152344 C87.1089844,27.5214844 87.6432128,27.3 88.2,27.3 L113.4,27.3 L113.4,31.5 L89.0695313,31.5 L81.2847656,39.2847656 Z" id="Path" fill="#FAD078"></path>
                    <polygon id="Path" fill="#8DCCBD" points="117.6 27.3 126 27.3 126 31.5 117.6 31.5"></polygon>
                    <polygon id="Path" fill="#8DCCBD" points="117.6 35.7 126 35.7 126 39.9 117.6 39.9"></polygon>
                    <polygon id="Path" fill="#FAD078" points="88.2 65.1 113.4 65.1 113.4 69.3 88.2 69.3"></polygon>
                    <polygon id="Path" fill="#FF998C" points="117.6 65.1 126 65.1 126 69.3 117.6 69.3"></polygon>
                    <polygon id="Path" fill="#FF998C" points="117.6 73.5 126 73.5 126 77.7 117.6 77.7"></polygon>
                    <path d="M44.7152344,39.2847656 L36.9304688,31.5 L12.6,31.5 L12.6,27.3 L37.8,27.3 C38.3567872,27.3 38.8910156,27.5214844 39.2847656,27.9152344 L47.6847656,36.3152344 L44.7152344,39.2847656 Z" id="Path" fill="#FAD078"></path>
                    <polygon id="Path" fill="#8DCCBD" points="0 27.3 8.4 27.3 8.4 31.5 0 31.5"></polygon>
                    <polygon id="Path" fill="#8DCCBD" points="0 35.7 8.4 35.7 8.4 39.9 0 39.9"></polygon>
                    <polygon id="Path" fill="#FAD078" points="12.6 65.1 37.8 65.1 37.8 69.3 12.6 69.3"></polygon>
                    <polygon id="Path" fill="#FF998C" points="0 65.1 8.4 65.1 8.4 69.3 0 69.3"></polygon>
                    <polygon id="Path" fill="#FF998C" points="0 73.5 8.4 73.5 8.4 77.7 0 77.7"></polygon>
                </g>
            </g>
        </g>
    </g>
</svg>