
<svg width="126px" height="113px" viewBox="0 0 126 113" version="1.1" xmlns="http://www.w3.org/2000/svg" xmlns:xlink="http://www.w3.org/1999/xlink">
    <g id="Page-1" stroke="none" stroke-width="1" fill="none" fill-rule="evenodd">
        <g id="Desktop-HD" transform="translate(-189.000000, -800.000000)" fill-rule="nonzero">
            <g id="Our-work" transform="translate(47.000000, 678.000000)">
                <g id="suitcase" transform="translate(142.000000, 122.000000)">
                    <path d="M121.655172,17.3793103 L4.34482759,17.3793103 C1.9485957,17.3867357 0.00742525603,19.327906 0,21.7241379 L0,47.7931034 L4.34482759,50.2699522 L15.2068966,56.4827586 L110.793103,56.4827586 L121.655172,50.2699522 L126,47.7931034 L126,21.7241379 C125.992575,19.327906 124.051404,17.3867357 121.655172,17.3793103 Z" id="Path" fill="#FAD078"></path>
                    <path d="M121.655172,50.2699522 L121.655172,108.62069 C121.647747,111.016922 119.706577,112.958092 117.310345,112.965517 L8.68965517,112.965517 C6.29342329,112.958092 4.3522529,111.016922 4.34482759,108.62069 L4.34482759,50.2699522 L15.2068966,56.4827586 L110.793103,56.4827586 L121.655172,50.2699522 Z" id="Path" fill="#F7EB92"></path>
                    <path d="M83.6167161,68.7566845 L79.2718885,57.1340586 C79.1870286,56.9091796 79.0851967,56.6917261 78.9674535,56.4827586 C78.1824993,55.1387897 76.7441237,54.3114055 75.1869443,54.3103448 L73.862069,54.3103448 L73.862069,67.3448276 L71.6896552,67.3448276 L73.862069,71.6896552 L81.5959894,71.6896552 C82.3077517,71.6907159 82.974963,71.3417295 83.3780476,70.7551354 C83.7821929,70.169602 83.8712958,69.4217741 83.6167161,68.7566845 L83.6167161,68.7566845 Z" id="Path" fill="#009184"></path>
                    <polygon id="Path" fill="#009184" points="69.5172414 67.3448276 67.3448276 73.862069 58.6551724 73.862069 56.4827586 67.3448276"></polygon>
                    <path d="M63,73.862069 C66.599121,73.862069 69.5172414,76.7801893 69.5172414,80.3793103 C69.5172414,83.9858567 66.6065463,91.2413793 63,91.2413793 C59.3934537,91.2413793 56.4827586,83.9858567 56.4827586,80.3793103 C56.4827586,76.7801893 59.400879,73.862069 63,73.862069 Z" id="Path" fill="#F47C6F"></path>
                    <path d="M73.862069,39.4948646 L73.8622272,67.3448276 L52.1377728,67.3448276 L52.137931,39.4948646 C52.1273237,37.757358 52.6502728,36.0580381 53.6367692,34.6281485 C55.809183,31.4565094 59.9365571,26.0689655 63,26.0689655 C66.0634429,26.0689655 70.190817,31.4565094 72.3632308,34.6281485 C73.3497272,36.0580381 73.8726763,37.757358 73.862069,39.4948646 L73.862069,39.4948646 Z" id="Path" fill="#67B6A2"></path>
                    <path d="M52.137931,67.3448276 L52.137931,54.3103448 L50.8130557,54.3103448 C49.2558763,54.3114055 47.8175007,55.1387897 47.0325465,56.4827586 C46.9148033,56.6917261 46.8129714,56.9091796 46.7281115,57.1340586 L42.3832839,68.7566845 C42.1287042,69.4217741 42.2178071,70.169602 42.6219524,70.7551354 C43.025037,71.3417295 43.6922482,71.6907159 44.4040106,71.6896552 L52.137931,71.6896552 L54.3103448,67.3448276 L52.137931,67.3448276 Z" id="Path" fill="#009184"></path>
                    <path d="M80.3793103,4.34482759 L80.3793103,6.51724138 C80.3793103,7.71694848 79.4066037,8.68965517 78.2068966,8.68965517 L47.7931034,8.68965517 C46.5933963,8.68965517 45.6206897,7.71694848 45.6206897,6.51724138 L45.6206897,2.17241379 C45.6206897,0.972706694 46.5933963,0 47.7931034,0 L78.2068966,0 C79.4066037,0 80.3793103,0.972706694 80.3793103,2.17241379 L80.3793103,4.34482759 Z" id="Path" fill="#FAD078"></path>
                    <path d="M67.3448276,39.1034483 C67.3448276,41.5028625 65.3994142,43.4482759 63,43.4482759 C60.6005858,43.4482759 58.6551724,41.5028625 58.6551724,39.1034483 C58.6551724,36.7040341 60.6005858,34.7586207 63,34.7586207 C65.3994142,34.7586207 67.3448276,36.7040341 67.3448276,39.1034483 Z" id="Path" fill="#FAD078"></path>
                    <path d="M84.7241379,95.5862069 C83.9338801,95.5893892 83.1605942,95.810025 82.4870185,96.2226562 C82.5252055,96.0126278 82.5464205,95.7994174 82.5517241,95.5862069 C82.5517241,93.1867927 80.6063107,91.2413793 78.2068966,91.2413793 C75.8074824,91.2413793 73.862069,93.1867927 73.862069,95.5862069 C72.9943765,95.5840855 72.146838,95.843969 71.4287108,96.3308528 C70.8272664,94.5880422 69.1884091,93.4180361 67.3448276,93.4137931 C67.1528321,93.4201577 66.9618973,93.4392511 66.7730838,93.4721344 C66.0167699,92.0952821 64.5709691,91.2403186 63,91.2403186 C61.4290309,91.2403186 59.9832301,92.0952821 59.2269162,93.4721344 C59.0381027,93.4392511 58.8471679,93.4201577 58.6551724,93.4137931 C56.8115909,93.4180361 55.1727336,94.5880422 54.5712892,96.3308528 C53.853162,95.843969 53.0056235,95.5840855 52.137931,95.5862069 C52.137931,93.1867927 50.1925176,91.2413793 47.7931034,91.2413793 C45.3936892,91.2413793 43.4482759,93.1867927 43.4482759,95.5862069 C43.4535795,95.7994174 43.4747945,96.0126278 43.5129815,96.2226562 C41.5442315,95.0218885 38.9804014,95.5681742 37.672498,97.4669147 C36.3645944,99.3667161 36.7676793,101.957065 38.5921674,103.367861 C40.4155946,104.779718 43.0239763,104.519834 44.5344828,102.777024 C45.8837554,104.360722 48.1792161,104.739409 49.9655172,103.674417 C50.6231816,104.063712 51.3731311,104.271619 52.137931,104.275862 L73.862069,104.275862 C74.6268689,104.271619 75.3768184,104.063712 76.0344828,103.674417 C77.8207839,104.739409 80.1162446,104.360722 81.4655172,102.777024 C82.7808459,104.293895 84.9638671,104.712891 86.7469862,103.788978 C88.5301051,102.865066 89.4476528,100.840096 88.9671336,98.8904399 C88.4866144,96.9407832 86.7321356,95.5745386 84.7241379,95.5862069 Z" id="Path" fill="#B5E2EB"></path>
                    <path d="M41.2758621,17.3793103 L36.9310345,17.3793103 L36.9310345,6.51724138 C36.9310345,4.11782718 38.8764479,2.17241379 41.2758621,2.17241379 L45.6206897,2.17241379 L45.6206897,6.51724138 L41.2758621,6.51724138 L41.2758621,17.3793103 Z" id="Path" fill="#D7AA4B"></path>
                    <path d="M10.862069,34.7586207 L6.51724138,34.7586207 L6.51724138,26.0689655 C6.51724138,24.8692584 7.48994807,23.8965517 8.68965517,23.8965517 L17.3793103,23.8965517 L17.3793103,28.2413793 L10.862069,28.2413793 L10.862069,34.7586207 Z" id="Path" fill="#D7AA4B"></path>
                    <path d="M119.482759,34.7586207 L115.137931,34.7586207 L115.137931,28.2413793 L108.62069,28.2413793 L108.62069,23.8965517 L117.310345,23.8965517 C118.510052,23.8965517 119.482759,24.8692584 119.482759,26.0689655 L119.482759,34.7586207 Z" id="Path" fill="#D7AA4B"></path>
                    <path d="M89.0689655,17.3793103 L84.7241379,17.3793103 L84.7241379,6.51724138 L80.3793103,6.51724138 L80.3793103,2.17241379 L84.7241379,2.17241379 C87.1235521,2.17241379 89.0689655,4.11782718 89.0689655,6.51724138 L89.0689655,17.3793103 Z" id="Path" fill="#D7AA4B"></path>
                    <polygon id="Path" fill="#009184" points="60.8275862 52.137931 65.1724138 52.137931 65.1724138 67.3448276 60.8275862 67.3448276"></polygon>
                    <g id="Group" transform="translate(34.487069, 89.068966)" fill="#85C6D2">
                        <path d="M6.7887931,17.3793103 C4.41483688,17.3814317 2.22757274,16.092622 1.07878159,14.0156754 C-0.0700092931,11.9376685 0.00212136207,9.39929613 1.26653408,7.39023781 C2.53094679,5.38117922 4.7882205,4.2185984 7.15793373,4.35543494 C8.21231829,1.35987998 11.2715179,-0.440210871 14.4028487,0.0944065862 C17.5331189,0.627963362 19.8222152,3.34135924 19.8232759,6.51724138 L15.4784483,6.51724138 C15.4784483,5.31753428 14.5057416,4.34482759 13.3060345,4.34482759 C12.1063274,4.34482759 11.1336207,5.31753428 11.1336207,6.51724138 C11.136803,6.64240989 11.1463497,6.76651744 11.1643823,6.890625 C11.2534853,7.71058385 10.870555,8.51038867 10.1757643,8.95484227 C9.48203469,9.40035709 8.59524859,9.4130858 7.88772899,8.98984719 C7.55571464,8.79148707 7.17596639,8.68753381 6.7887931,8.68965517 C5.589086,8.68965517 4.61637931,9.66236187 4.61637931,10.862069 C4.61637931,12.0617761 5.589086,13.0344828 6.7887931,13.0344828 L6.7887931,17.3793103 Z" id="Path"></path>
                        <path d="M50.237069,17.3793103 L50.237069,13.0344828 C51.4367761,13.0344828 52.4094828,12.0617761 52.4094828,10.862069 C52.4094828,9.66236187 51.4367761,8.68965517 50.237069,8.68965517 C49.8498957,8.68753381 49.4701474,8.79148707 49.1381331,8.98984719 C48.4306135,9.4130858 47.5438274,9.40035709 46.8500977,8.95484227 C46.1553071,8.51038867 45.7723768,7.71058385 45.8614797,6.890625 C45.8795124,6.76651744 45.8890591,6.64240989 45.8922414,6.51724138 C45.8922414,5.31753428 44.9195347,4.34482759 43.7198276,4.34482759 C42.5201205,4.34482759 41.5474138,5.31753428 41.5474138,6.51724138 L37.2025862,6.51724138 C37.2036469,3.34135924 39.4927432,0.627963362 42.6230133,0.0944065862 C45.7543442,-0.440210871 48.8135438,1.35987998 49.8679283,4.35543494 C52.2376416,4.2185984 54.4949153,5.38117922 55.759328,7.39023781 C57.0237407,9.39929613 57.0958714,11.9376685 55.9470805,14.0156754 C54.7982893,16.092622 52.6110252,17.3814317 50.237069,17.3793103 L50.237069,17.3793103 Z" id="Path"></path>
                    </g>
                </g>
            </g>
        </g>
    </g>
</svg>