
<svg width="126px" height="126px" viewBox="0 0 126 126" version="1.1" xmlns="http://www.w3.org/2000/svg" xmlns:xlink="http://www.w3.org/1999/xlink">
    <g id="Page-1" stroke="none" stroke-width="1" fill="none" fill-rule="evenodd">
        <g id="Desktop-HD" transform="translate(-1111.000000, -381.000000)" fill-rule="nonzero">
            <g id="Join-Kokkos" transform="translate(979.000000, 259.000000)">
                <g id="palm-tree-(1)" transform="translate(132.000000, 122.000000)">
                    <path d="M125.370614,123.932236 C124.706689,125.187698 123.454633,125.999039 122.054825,125.999039 L3.6995614,125.999039 C2.29975323,125.999039 1.04769737,125.187698 0.384731298,123.932236 C-0.205318105,122.677734 -0.0575657895,121.201172 0.753152351,120.094711 C13.7179275,102.822967 33.7057292,91.4315186 55.1422696,89.217636 L70.6121164,89.217636 C92.4909538,91.4315186 112.331003,103.192108 125.002193,120.094711 C125.811952,121.201172 125.959704,122.677734 125.370614,123.932236 Z" id="Path" fill="#F7EB92"></path>
                    <path d="M125.370614,123.932236 C124.706689,125.187698 123.454633,125.999039 122.054825,125.999039 L62.877193,125.999039 L62.877193,89.217636 L70.6121164,89.217636 C92.4909538,91.4324798 112.331003,103.192108 125.002193,120.094711 C125.811952,121.201172 125.959704,122.677734 125.370614,123.932236 Z" id="Path" fill="#FAD078"></path>
                    <polygon id="Path" fill="#B35F49" points="73.9269462 48.2536011 73.9269462 74.0867156 66.5604441 81.4676057 59.1939418 81.4676057 51.8274398 74.0867156 51.8274398 48.2536011"></polygon>
                    <polygon id="Path" fill="#8C4A37" points="62.877193 48.2536011 73.9269462 48.2536011 73.9269462 74.0867156 66.5604441 81.4676057 62.877193 81.4676057"></polygon>
                    <path d="M52.4424342,50.3002166 L44.5367325,42.1089478 C44.0618146,40.1305846 42.0796327,38.9116517 40.09841,39.3769225 C33.9292763,40.8544465 28.2964638,44.0152131 23.8111293,48.509308 C13.3399123,58.9971313 10.7542488,74.9586182 17.3800713,88.236145 C17.9979441,88.9744263 18.3932292,91.5882111 21.4691611,91.331543 C22.9553181,91.2267609 24.232319,90.2327728 24.6995614,88.8196564 C29.3288102,74.9086304 38.7494518,63.0336457 51.2268366,55.374939 C52.9605263,54.3117369 53.5074012,52.0382537 52.4424342,50.3002166 Z" id="Path" fill="#67B6A2"></path>
                    <path d="M101.944216,48.509308 C97.4579222,44.0152131 91.826069,40.8544465 85.6569354,39.3769225 C83.6891447,38.9116517 81.6964091,40.1305846 81.2186129,42.1089478 L73.3119518,50.3011781 C72.2479441,52.0382537 72.794819,54.3117369 74.5275494,55.374939 C87.0058936,63.0336457 96.4265351,74.9086304 101.055784,88.8206177 C101.555647,90.3317871 102.970806,91.3430786 104.548108,91.3430786 C107.453262,91.3430786 107.798657,88.9705811 108.379112,88.2322998 C115.000137,74.9586182 112.414474,58.9971313 101.944216,48.509308 L101.944216,48.509308 Z" id="Path" fill="#009184"></path>
                    <path d="M52.7916667,29.6716002 C47.0648301,25.7427521 40.3603345,23.6672974 33.4111842,23.6672974 C18.6023848,23.6672974 5.26439151,33.1246031 0.584292702,47.1980895 C0.508497684,47.9363707 -1.06208888,50.2463836 1.28563596,52.2901154 C2.38610204,53.2475739 3.98259326,53.4802093 5.34690235,52.801529 C18.5544134,46.1848755 33.9686129,44.4910582 48.3130482,48.0334626 C50.2875549,48.5564118 52.2870065,47.3163299 52.7695997,45.3341218 L53.7510965,34.8001556 C54.8995339,33.1207582 54.4716284,30.8213197 52.7916667,29.6716002 Z" id="Path" fill="#A5D5C9"></path>
                    <path d="M125.170093,47.1980895 C120.490954,33.1246031 107.152001,23.6672974 92.3432018,23.6672974 C85.3940515,23.6672974 78.6895559,25.7427521 72.9627193,29.6716002 C71.283717,30.8213197 70.854852,33.1207582 72.0023301,34.8001556 L72.9847862,45.3341218 C73.4702576,47.3124847 75.4850602,48.5487214 77.4413377,48.0334626 C91.7963269,44.4872133 107.202851,46.1848755 120.407484,52.801529 C121.771793,53.4802093 123.368284,53.2475739 124.46875,52.2901154 C126.816475,50.2463836 125.246848,47.9363707 125.170093,47.1980895 Z" id="Path" fill="#67B6A2"></path>
                    <path d="M112.011513,7.7817536 C111.86472,9.25735486 110.907209,10.5128174 109.507401,11.0290374 C93.9636787,16.1960449 80.8521108,27.8085937 73.4846491,42.4963532 L52.2697368,42.4963532 C44.9032345,27.8085937 31.7907073,16.1960449 16.2469848,11.0290374 C14.8471766,10.5128174 13.8896655,9.25735486 13.7428728,7.7817536 C13.6689968,6.3051911 14.4787555,4.90264893 15.8046874,4.238388 L16.8360746,3.64814764 C30.0963541,-2.99542236 46.0084977,-0.411437988 56.4682018,10.1436768 C59.1200658,12.8007202 61.2567161,16.072998 62.877193,19.3202819 C64.4976699,16.072998 66.6343202,12.8007202 69.2861842,10.1436768 C79.7468476,-0.411437988 95.6589912,-2.99542236 108.918311,3.64814764 L109.949699,4.238388 C111.27563,4.90264893 112.085389,6.3051911 112.011513,7.7817536 Z" id="Path" fill="#8DCCBD"></path>
                    <path d="M112.011513,7.7817536 C111.86472,9.25735486 110.907209,10.5128174 109.507401,11.0290374 C93.9636787,16.1960449 80.8521108,27.8085937 73.4846491,42.4963532 L62.877193,42.4963532 L62.877193,19.3202819 C64.4976699,16.072998 66.6343202,12.8007202 69.2861842,10.1436768 C79.7468476,-0.411437988 95.6589912,-2.99542236 108.918311,3.64814764 L109.949699,4.238388 C111.27563,4.90264893 112.085389,6.3051911 112.011513,7.7817536 Z" id="Path" fill="#A5D5C9"></path>
                    <path d="M92.3432018,110.991165 C86.2508222,110.991165 81.2934485,106.02507 81.2934485,99.9198304 C81.2934485,93.8155518 86.2508222,88.8484954 92.3432018,88.8484954 C98.4365406,88.8484954 103.392955,93.8155518 103.392955,99.9198304 C103.392955,106.02507 98.4365406,110.991165 92.3432018,110.991165 L92.3432018,110.991165 Z" id="Path" fill="#B35F49"></path>
                    <path d="M70.2436953,37.1822663 C67.3711623,37.1822663 64.8660909,38.2887269 62.877193,40.0604095 C60.888295,38.2887269 58.3832237,37.1822663 55.5106907,37.1822663 C49.3962445,37.1822663 44.4609374,42.1272126 44.4609374,48.2536011 C44.4609374,54.3799896 49.3962445,59.3249359 55.5106907,59.3249359 C58.3832237,59.3249359 60.888295,58.217514 62.877193,56.4467927 C64.8660909,58.217514 67.3711623,59.3249359 70.2436953,59.3249359 C76.3581415,59.3249359 81.2934485,54.3799896 81.2934485,48.2536011 C81.2934485,42.1272126 76.3581415,37.1822663 70.2436953,37.1822663 L70.2436953,37.1822663 Z" id="Path" fill="#CF8472"></path>
                    <path d="M81.2934485,48.2536011 C81.2934485,54.3799896 76.3581415,59.3249359 70.2436953,59.3249359 C67.3711623,59.3249359 64.8660909,58.217514 62.877193,56.4467927 L62.877193,40.0613707 C64.8660909,38.2887269 67.3711623,37.1822663 70.2436953,37.1822663 C76.3581415,37.1822663 81.2934485,42.1272126 81.2934485,48.2536011 L81.2934485,48.2536011 Z" id="Path" fill="#B35F49"></path>
                    <polygon id="Path" fill="#CF8472" points="73.9269462 74.0867156 73.9269462 88.8484954 66.5604441 96.2293854 59.1939418 96.2293854 51.8274398 88.8484954 51.8274398 74.0867156"></polygon>
                    <polygon id="Path" fill="#B35F49" points="62.877193 74.0867156 73.9269462 74.0867156 73.9269462 88.8484954 66.5604441 96.2293854 62.877193 96.2293854"></polygon>
                    <path d="M73.9269462,88.8484954 L73.9269462,99.9198304 C73.9269462,101.986633 72.3064693,103.610275 70.2436953,103.610275 L55.5106907,103.610275 C53.4479167,103.610275 51.8274398,101.986633 51.8274398,99.9198304 L51.8274398,88.8484954 L73.9269462,88.8484954 Z" id="Path" fill="#B35F49"></path>
                    <path d="M62.877193,88.8484954 L73.9269462,88.8484954 L73.9269462,99.9198304 C73.9269462,101.986633 72.3064693,103.610275 70.2436953,103.610275 L62.877193,103.610275 L62.877193,88.8484954 Z" id="Path" fill="#8C4A37"></path>
                </g>
            </g>
        </g>
    </g>
</svg>