
<svg width="126px" height="137px" viewBox="0 0 126 137" version="1.1" xmlns="http://www.w3.org/2000/svg" xmlns:xlink="http://www.w3.org/1999/xlink">
    <g id="Page-1" stroke="none" stroke-width="1" fill="none" fill-rule="evenodd">
        <g id="Desktop-HD" transform="translate(-655.000000, -800.000000)" fill-rule="nonzero">
            <g id="Ka´Ching" transform="translate(513.000000, 678.000000)">
                <g id="atm" transform="translate(142.000000, 122.000000)">
                    <polygon id="Path" fill="#C0DCEB" points="0.107787847 0 125.888316 0 125.888316 49.6031497 0.107787847 49.6031497"></polygon>
                    <g id="Group" transform="translate(12.633245, 0.000000)" fill="#ADC4D9">
                        <path d="M16.5850306,14.7734169 C16.5850306,17.7797865 14.1474688,20.2173483 11.1410992,20.2173483 C8.13472955,20.2173483 5.69716779,17.7797865 5.69716779,14.7734169 C5.69716779,11.7657487 8.13472955,9.32818692 11.1410992,9.32818692 C14.1474688,9.32818692 16.5850306,11.7657487 16.5850306,14.7734169 Z" id="Path"></path>
                        <path d="M35.1959517,14.7734169 C35.1959517,17.7797865 32.7583896,20.2173483 29.7520203,20.2173483 C26.7456506,20.2173483 24.3080889,17.7797865 24.3080889,14.7734169 C24.3080889,11.7657487 26.7456506,9.32818692 29.7520203,9.32818692 C32.7583896,9.32818692 35.1959517,11.7657487 35.1959517,14.7734169 Z" id="Path"></path>
                        <path d="M101.397118,17.0992951 L81.7615642,17.0992951 C80.4759028,17.0992951 79.4343875,16.0564809 79.4343875,14.7721183 C79.4343875,13.4864569 80.4759028,12.4449415 81.7615642,12.4449415 L101.397118,12.4449415 C102.682779,12.4449415 103.724295,13.4864569 103.724295,14.7721183 C103.724295,16.0564809 102.682779,17.0992951 101.397118,17.0992951 Z" id="Path"></path>
                        <path d="M98.2141326,36.1205889 L2.51418206,36.1205889 C1.22981951,36.1205889 0.187005277,35.0790732 0.187005277,33.7934121 C0.187005277,32.5077507 1.22981951,31.4662353 2.51418206,31.4662353 L98.2141326,31.4662353 C99.4984951,31.4662353 100.541309,32.5077507 100.541309,33.7934121 C100.541309,35.0790732 99.4984951,36.1205889 98.2141326,36.1205889 Z" id="Path"></path>
                        <polygon id="Path" points="103.724295 0 113.253772 0 113.253772 49.6031497 103.724295 49.6031497"></polygon>
                    </g>
                    <path d="M26.0352902,14.7734169 C26.0352902,17.7797865 23.5977285,20.2173483 20.5913588,20.2173483 C17.5836906,20.2173483 15.1461289,17.7797865 15.1461289,14.7734169 C15.1461289,11.7657487 17.5836906,9.32818692 20.5913588,9.32818692 C23.5977285,9.32818692 26.0352902,11.7657487 26.0352902,14.7734169 Z" id="Path" fill="#F47C6F"></path>
                    <path d="M44.6475099,14.7734169 C44.6475099,17.7797865 42.2099481,20.2173483 39.2035785,20.2173483 C36.1959103,20.2173483 33.7583485,17.7797865 33.7583485,14.7734169 C33.7583485,11.7657487 36.1959103,9.32818692 39.2035785,9.32818692 C42.2099481,9.32818692 44.6475099,11.7657487 44.6475099,14.7734169 Z" id="Path" fill="#F7EB92"></path>
                    <path d="M110.847378,17.0992951 L91.2118239,17.0992951 C89.9261628,17.0992951 88.8846471,16.0564809 88.8846471,14.7721183 C88.8846471,13.4864569 89.9261628,12.4449415 91.2118239,12.4449415 L110.847378,12.4449415 C112.131741,12.4449415 113.174555,13.4864569 113.174555,14.7721183 C113.174555,16.0564809 112.131741,17.0992951 110.847378,17.0992951 Z" id="Path" fill="#4E7693"></path>
                    <polygon id="Path" fill="#7DC55F" points="26.4885182 30.6571777 99.5049886 30.6571777 99.5049886 136.521644 26.4885182 136.521644"></polygon>
                    <polygon id="Path" fill="#58A438" points="26.4885182 30.6571777 99.5049886 30.6571777 99.5049886 39.6684942 26.4885182 39.6684942"></polygon>
                    <path d="M87.6561262,70.2152869 C87.6561262,83.8342061 76.6163217,94.8740106 62.9974029,94.8740106 C49.3784838,94.8740106 38.3386789,83.8342061 38.3386789,70.2152869 C38.3386789,56.5963678 49.3784838,45.5565633 62.9974029,45.5565633 C76.6163217,45.5565633 87.6561262,56.5963678 87.6561262,70.2152869 Z" id="Path" fill="#58A438"></path>
                    <path d="M57.1625782,80.4239569 C61.5507091,80.4239569 63.2908971,77.2994105 64.4765624,72.4879203 L70.4061882,72.4879203 C70.1139926,73.4255442 69.7166062,74.3281045 69.2205229,75.1761214 C68.6309367,76.1553016 68.8854716,77.4240807 69.8075114,78.1019747 L70.2425585,78.4175462 C70.7321486,78.779869 71.3490063,78.924019 71.9489818,78.8149322 C72.5476583,78.7071447 73.0749095,78.3552111 73.4060644,77.843544 C74.409919,76.2085464 75.0735281,74.3878421 75.354036,72.4892192 L78.4811798,72.4892192 C79.7045062,72.4892192 80.6953742,71.4983509 80.6953742,70.2750246 C80.6953742,69.0529971 79.7045062,68.0608302 78.4811798,68.0608302 L75.5046792,68.0608302 C74.9060026,63.3168701 71.8437911,60.1793371 67.5855253,60.1793371 C63.0636337,60.1793371 61.3844822,63.3921918 60.1884277,68.0608302 L53.9873846,68.0608302 C54.3406168,66.5388151 54.9756554,65.0947187 55.8587359,63.8064602 C56.4872814,62.8740313 56.3119639,61.6182388 55.4535578,60.8935932 L55.0353934,60.5429584 C54.5600881,60.1364818 53.9354387,59.9507751 53.3146852,60.0312911 C52.69523,60.1118074 52.1381102,60.4507544 51.7822805,60.9637203 C50.3732478,63.0948012 49.4784796,65.5232727 49.1668041,68.0582331 L47.5123267,68.0582331 C46.2902992,68.0582331 45.2994309,69.0504 45.2994309,70.2724274 C45.2994309,71.4957538 46.2902992,72.4866218 47.5123267,72.4866218 L49.1434283,72.4866218 C49.7888564,77.5188819 52.8315879,80.4239569 57.1625782,80.4239569 Z M68.1452422,65.7440426 C69.44389,65.8076763 70.5204692,66.7751691 70.7217594,68.0595317 L65.6427483,68.0595317 C66.2024652,66.4154438 66.9128256,65.7440426 68.1452422,65.7440426 Z M53.9250495,72.4879203 L59.0456177,72.4879203 C58.4729138,74.1748639 57.8028118,74.8579528 56.5652003,74.8579528 C55.2340864,74.7956177 54.1302357,73.8047493 53.9250495,72.4879203 Z" id="Shape" fill="#7DC55F"></path>
                    <path d="M82.5277662,136.521644 L99.5062872,136.521644 L99.5062872,119.543123 C90.1300504,119.543123 82.5277662,127.145407 82.5277662,136.521644 L82.5277662,136.521644 Z" id="Path" fill="#58A438"></path>
                    <path d="M43.4657406,136.521644 C43.4657406,127.145407 35.864755,119.543123 26.4885182,119.543123 L26.4885182,136.521644 L43.4657406,136.521644 Z" id="Path" fill="#58A438"></path>
                    <path d="M87.6561262,111.840843 C86.370465,111.840843 85.3289494,110.799328 85.3289494,109.513667 L85.3289494,30.6558791 C85.3289494,29.3715162 86.370465,28.3287023 87.6561262,28.3287023 C88.9417876,28.3287023 89.9833029,29.3715162 89.9833029,30.6558791 L89.9833029,109.513667 C89.9833029,110.799328 88.9417876,111.840843 87.6561262,111.840843 Z M38.3386789,111.840843 C37.0530178,111.840843 36.0115021,110.799328 36.0115021,109.513667 L36.0115021,30.6558791 C36.0115021,29.3715162 37.0530178,28.3287023 38.3386789,28.3287023 C39.6243404,28.3287023 40.6658557,29.3715162 40.6658557,30.6558791 L40.6658557,109.513667 C40.6658557,110.799328 39.6243404,111.840843 38.3386789,111.840843 Z" id="Shape" fill="#58A438"></path>
                    <path d="M110.847378,32.9843545 L15.1474274,32.9843545 C13.8630649,32.9843545 12.8202507,31.9428388 12.8202507,30.6571777 C12.8202507,29.3728148 13.8630649,28.3300009 15.1474274,28.3300009 L110.847378,28.3300009 C112.131741,28.3300009 113.174555,29.3728148 113.174555,30.6571777 C113.174555,31.9428388 112.131741,32.9843545 110.847378,32.9843545 Z" id="Path" fill="#4E7693"></path>
                </g>
            </g>
        </g>
    </g>
</svg>
