<?xml version="1.0" encoding="UTF-8"?>
<svg width="283px" height="196px" viewBox="0 0 283 196" version="1.1" xmlns="http://www.w3.org/2000/svg" xmlns:xlink="http://www.w3.org/1999/xlink">
    <!-- Generator: Sketch 52.5 (67469) - http://www.bohemiancoding.com/sketch -->
    <title>Untitled 2</title>
    <desc>Created with Sketch.</desc>
    <defs>
        <linearGradient x1="74.230431%" y1="75.1006102%" x2="12.9287599%" y2="39.1925224%" id="linearGradient-1">
            <stop stop-color="#6FA18C" offset="0%"></stop>
            <stop stop-color="#7FB8A0" offset="89%"></stop>
        </linearGradient>
        <linearGradient x1="27.0225287%" y1="97.9605528%" x2="58.5737637%" y2="46.3571716%" id="linearGradient-2">
            <stop stop-color="#91B8A7" offset="1%"></stop>
            <stop stop-color="#AEDCC8" offset="100%"></stop>
        </linearGradient>
        <linearGradient x1="-20.3351788%" y1="53.2153539%" x2="76.5823732%" y2="48.1555334%" id="linearGradient-3">
            <stop stop-color="#BD7268" offset="0%"></stop>
            <stop stop-color="#FF998C" offset="91%"></stop>
        </linearGradient>
        <linearGradient x1="-18.7346171%" y1="65.747614%" x2="75.0398147%" y2="44.2205726%" id="linearGradient-4">
            <stop stop-color="#BD7268" offset="0%"></stop>
            <stop stop-color="#FF998C" offset="91%"></stop>
        </linearGradient>
        <linearGradient x1="50.5679237%" y1="138.372985%" x2="49.9091322%" y2="34.7659248%" id="linearGradient-5">
            <stop stop-color="#BEC7D1" offset="0%"></stop>
            <stop stop-color="#969EA6" offset="88%"></stop>
        </linearGradient>
        <linearGradient x1="50%" y1="-32.3037323%" x2="50%" y2="83.3976834%" id="linearGradient-6">
            <stop stop-color="#BEC7D1" offset="0%"></stop>
            <stop stop-color="#969EA6" offset="88%"></stop>
        </linearGradient>
        <linearGradient x1="7.14570404%" y1="53.6595208%" x2="90.7077379%" y2="46.5172382%" id="linearGradient-7">
            <stop stop-color="#BEC7D1" offset="0%"></stop>
            <stop stop-color="#969EA6" offset="88%"></stop>
        </linearGradient>
        <linearGradient x1="51.0395434%" y1="184.378294%" x2="48.9604566%" y2="-178.224146%" id="linearGradient-8">
            <stop stop-color="#91B8A7" offset="1%"></stop>
            <stop stop-color="#AEDCC8" offset="100%"></stop>
        </linearGradient>
        <linearGradient x1="51.388381%" y1="284.938272%" x2="49.5131651%" y2="-78.7654321%" id="linearGradient-9">
            <stop stop-color="#91B8A7" offset="1%"></stop>
            <stop stop-color="#AEDCC8" offset="100%"></stop>
        </linearGradient>
        <linearGradient x1="26.8956311%" y1="146.334564%" x2="89.9975728%" y2="-26.6853767%" id="linearGradient-10">
            <stop stop-color="#91B8A7" offset="1%"></stop>
            <stop stop-color="#AEDCC8" offset="100%"></stop>
        </linearGradient>
        <linearGradient x1="-112.261683%" y1="89.7709004%" x2="332.438178%" y2="-18.9080515%" id="linearGradient-11">
            <stop stop-color="#91B8A7" offset="1%"></stop>
            <stop stop-color="#AEDCC8" offset="100%"></stop>
        </linearGradient>
        <linearGradient x1="49.0361119%" y1="-62.7477785%" x2="50.3393972%" y2="117.97676%" id="linearGradient-12">
            <stop stop-color="#BEC7D1" offset="0%"></stop>
            <stop stop-color="#969EA6" offset="88%"></stop>
        </linearGradient>
    </defs>
    <g id="Page-1" stroke="none" stroke-width="1" fill="none" fill-rule="evenodd">
        <g id="Asset-2">
            <path d="M245.66,107.94 L256.16,105.62 C253.093077,96.427491 248.517194,87.8096905 242.62,80.12 C242.62,80.12 225.57,100.83 225.57,126.37 C225.57,138.19 227.2,148.97 229.89,157.15 L255.35,157.15 C258.04,148.97 259.68,138.15 259.68,126.37 C259.649922,121.041664 258.957955,115.737707 257.62,110.58 L245.66,107.94 Z" id="Path" fill="url(#linearGradient-1)"></path>
            <path d="M269.66,115.91 L280.54,116.84 C282.623895,107.86051 283.003806,98.5696513 281.66,89.45 C281.66,89.45 255,103.51 241.39,127 C235.11,137.86 230.88,148.25 229.01,156.55 L252.41,163.98 C260.323544,155.892708 267.160034,146.817721 272.75,136.98 C275.495257,132.210181 277.673379,127.135728 279.24,121.86 L269.66,115.91 Z" id="Path" fill="url(#linearGradient-2)"></path>
            <g id="Group" opacity="0.1" transform="translate(229.000000, 89.000000)" fill="#000000">
                <path d="M39.91,44.42 C34.3283894,54.2605962 27.494793,63.3362037 19.58,71.42 L0.58,65.42 C0.39,66.14 0.19,66.87 0.04,67.56 L23.44,74.99 C31.3535444,66.9027078 38.1900342,57.8277214 43.78,47.99 C46.5252567,43.2201815 48.7033788,38.1457276 50.27,32.87 L46.13,30.32 C44.5857797,35.2360492 42.4996244,39.9651149 39.91,44.42 Z" id="Path"></path>
                <path d="M52.66,0.45 C52.66,0.45 51.45,1.09 49.43,2.31 C49.8968812,9.68775016 49.3178117,17.0944531 47.71,24.31 L42.83,27.09 L51.54,27.83 C53.6226364,18.8537286 54.0025425,9.56638099 52.66,0.45 Z" id="Path"></path>
            </g>
            <polygon id="Path" fill="url(#linearGradient-3)" points="273.14 154.85 206.31 154.85 218.09 194.97 261.36 194.97"></polygon>
            <polygon id="Path" fill="#000000" opacity="0.1" points="273.14 154.85 206.31 154.85 213.07 177.85 269.45 167.41"></polygon>
            <rect id="Rectangle" fill="url(#linearGradient-4)" x="205.19" y="154.89" width="69.07" height="9.43"></rect>
            <path d="M235,56.27 L235,172.27 C234.994486,174.591213 233.111219,176.470007 230.79,176.47 L63.56,176.47 C61.2387809,176.470007 59.3555136,174.591213 59.35,172.27 L59.35,56.27 C59.3473364,55.1526241 59.7900333,54.0802459 60.5801396,53.2901396 C61.3702459,52.5000333 62.4426241,52.0573364 63.56,52.06 L230.77,52.06 C231.890833,52.0519906 232.96837,52.4923263 233.762815,53.2830151 C234.55726,54.0737039 235.002697,55.1491412 235,56.27 Z" id="Path" fill="#FFFFFF"></path>
            <path d="M155.95,77.05 L212.88,77.05 L212.88,137.23 L155.95,137.23 L155.95,77.05 Z" id="Rectangle" stroke="#4A536B" stroke-width="1.93" stroke-linecap="round" stroke-linejoin="round" stroke-dasharray="5.16"></path>
            <path d="M83.15,107.48 L132.52,107.48" id="Path" stroke="#4A536B" stroke-width="1.93" stroke-linecap="round" stroke-linejoin="round"></path>
            <path d="M83.15,115.54 L132.52,115.54" id="Path" stroke="#4A536B" stroke-width="1.93" stroke-linecap="round" stroke-linejoin="round"></path>
            <path d="M83.15,123.61 L107.83,123.61" id="Path" stroke="#4A536B" stroke-width="1.93" stroke-linecap="round" stroke-linejoin="round"></path>
            <rect id="Rectangle" fill="#FF998C" x="80.6" y="82.12" width="55.86" height="14.21" rx="5.09"></rect>
            <path d="M81.2,138.1 C85.44,137.55 89.12,134.21 89.12,134.21 C90.73,135.61 90.12,137.93 92.12,138.09 C93.56,138.22 97.34,135.47 98.67,135.68 C100.28,135.94 98.87,138.53 105.36,138.08 C109.14,137.82 109.77,137.08 118.76,137.32" id="Path" stroke="#4A536B" stroke-width="1.93" stroke-linecap="round" stroke-linejoin="round"></path>
            <path d="M102.35,16.34 L114.73,3.96" id="Path" stroke="#4A536B" stroke-width="1.93" stroke-linecap="round" stroke-linejoin="round"></path>
            <path d="M105.53,23.97 L117.93,23.97" id="Path" stroke="#4A536B" stroke-width="1.93" stroke-linecap="round" stroke-linejoin="round"></path>
            <path d="M95.41,12.58 L95.41,2.96" id="Path" stroke="#4A536B" stroke-width="1.93" stroke-linecap="round" stroke-linejoin="round"></path>
            <rect id="Rectangle" fill="url(#linearGradient-5)" x="124.29" y="176.53" width="44.02" height="13.03"></rect>
            <path d="M113.38,186.67 L179.22,186.67 C181.583779,186.67 183.5,188.586221 183.5,190.95 L183.5,194.44 L109.1,194.44 L109.1,190.95 C109.1,188.586221 111.016221,186.67 113.38,186.67 Z" id="Path" fill="#BEC7D1"></path>
            <path d="M113.38,186.67 L179.22,186.67 C181.583779,186.67 183.5,188.586221 183.5,190.95 L183.5,194.44 L109.1,194.44 L109.1,190.95 C109.1,188.586221 111.016221,186.67 113.38,186.67 Z" id="Path" fill="url(#linearGradient-6)"></path>
            <path d="M63.56,52.06 C61.2387809,52.0599935 59.3555136,53.9387874 59.35,56.26 L59.35,172.32 C59.3554979,174.642838 61.2371623,176.524502 63.56,176.53 L230.77,176.53 C233.095119,176.53 234.98,174.645119 234.98,172.32 L234.98,56.26 C234.980003,55.144356 234.536132,54.0745513 233.746315,53.2866104 C232.956498,52.4986695 231.885641,52.0573437 230.77,52.06 L63.56,52.06 Z M68.13,153.44 L68.13,65.05 C68.13,62.7248812 70.0148812,60.84 72.34,60.84 L226.2,60.84 L226.2,153.44 L68.13,153.44 Z" id="Shape" fill="url(#linearGradient-7)" fill-rule="nonzero"></path>
            <circle id="Oval" fill="#FFFFFF" cx="147.17" cy="164.98" r="6.03"></circle>
            <rect id="Rectangle" fill="#000000" opacity="0.1" x="124.29" y="176.53" width="44.02" height="4.11"></rect>
            <rect id="Rectangle" fill="#FFFFFF" x="21.38" y="20.94" width="76.05" height="76.37" rx="2"></rect>
            <path d="M23.38,20.94 L95.43,20.94 C96.5345695,20.94 97.43,21.8354305 97.43,22.94 L97.43,95.31 C97.43,96.4145695 96.5345695,97.31 95.43,97.31 L23.38,97.31 C22.2754305,97.31 21.38,96.4145695 21.38,95.31 L21.38,22.94 C21.38,21.8354305 22.2754305,20.94 23.38,20.94 Z" id="Rectangle" stroke="#4A536B" stroke-width="1.93" stroke-linecap="round" stroke-linejoin="round" stroke-dasharray="5.2"></path>
            <path d="M191.14,118.11 L187.449998,118.11 L187.45,98.22 C187.44921,97.6426034 187.7195,97.0983206 188.18,96.75 L198.61,88.75 L200.85,91.68 L191.14,99.1 L191.14,118.11 Z" id="Path" fill="#FF998C"></path>
            <polygon id="Path" fill="#000000" opacity="0.1" points="189.74 98.45 189.74 117.44 187.45 117.44 187.45 118.11 191.14 118.11 191.14 99.13 200.85 91.71 200.01 90.61"></polygon>
            <path d="M197.2,120.18 L172.67,120.18 C174.756258,125.105118 179.586238,128.304601 184.935,128.304601 C190.283762,128.304601 195.113742,125.105118 197.2,120.18 Z" id="Path" fill="url(#linearGradient-8)"></path>
            <path d="M171.07,113.08 C171.062776,115.536857 171.609674,117.963717 172.67,120.18 L197.2,120.18 C198.260326,117.963717 198.807224,115.536857 198.8,113.08 C198.8,112.74 198.8,112.39 198.800071,112.08 L171.1,112.08 C171.08,112.39 171.07,112.74 171.07,113.08 Z" id="Path" fill="url(#linearGradient-9)"></path>
            <path d="M196,103.92 L173.86,103.92 C172.844748,105.404491 172.090566,107.051516 171.63,108.79 L198.24,108.79 C197.772513,107.05225 197.01522,105.405815 196,103.92 Z" id="Path" fill="#E6DDC6"></path>
            <path d="M171.63,108.79 C171.345918,109.856457 171.168381,110.948475 171.1,112.05 L198.76,112.05 C198.690016,110.949349 198.515904,109.857805 198.24,108.79 L171.63,108.79 Z" id="Path" fill="#E2EDB2"></path>
            <path d="M189,125.31 C183.682477,125.199125 178.905019,122.033621 176.73,117.18 C175.670652,114.963378 175.123805,112.536744 175.13,110.08 C175.13,109.73 175.13,109.39 175.13,109.08 C175.190466,107.978311 175.364727,106.885831 175.65,105.82 C175.827229,105.184888 176.040916,104.56052 176.29,103.95 L173.84,103.95 C172.824748,105.434491 172.070566,107.081516 171.61,108.82 C171.325918,109.886457 171.148381,110.978475 171.08,112.08 C171.08,112.42 171.08,112.77 171.08,113.08 C171.072776,115.536857 171.619674,117.963717 172.68,120.18 C174.853478,125.030406 179.626123,128.1953 184.94,128.31 C188.61231,128.283396 192.106729,126.724683 194.58,124.01 C192.844265,124.865403 190.935068,125.310198 189,125.31 Z" id="Path" fill="#000000" opacity="0.1"></path>
            <ellipse id="Oval" fill="url(#linearGradient-10)" transform="translate(181.175548, 92.593037) rotate(-11.640000) translate(-181.175548, -92.593037) " cx="181.175548" cy="92.593037" rx="2.06" ry="6.77"></ellipse>
            <ellipse id="Oval" fill="url(#linearGradient-11)" transform="translate(175.982311, 98.894488) rotate(-69.660000) translate(-175.982311, -98.894488) " cx="175.982311" cy="98.8944877" rx="1.79" ry="5.88"></ellipse>
            <polyline id="Path" fill="#FFFFFF" points="174.25 100.82 175.51 99.24 175.97 101.22"></polyline>
            <rect id="Rectangle" fill="#4A536B" x="152.52" y="133.8" width="6.85" height="6.85"></rect>
            <rect id="Rectangle" fill="#4A536B" x="152.52" y="73.62" width="6.85" height="6.85"></rect>
            <rect id="Rectangle" fill="#4A536B" x="209.58" y="133.8" width="6.85" height="6.85"></rect>
            <rect id="Rectangle" fill="#4A536B" x="209.58" y="73.62" width="6.85" height="6.85"></rect>
            <path d="M50.43,57 L51.43,57 C52.1871901,57.0124638 52.940063,56.8835936 53.65,56.62 C54.4766713,56.2718997 55.2376595,55.7848672 55.9,55.18 C57.2442917,53.9508852 58.5132603,52.6418439 59.7,51.26 C61.7,48.98 63.14,47.33 63.88,46.31 C64.6484869,45.3805733 65.2814412,44.3469723 65.76,43.24 C66.0087009,42.6755171 66.1413308,42.0667803 66.15,41.45 C66.2079731,40.7454449 65.9343928,40.0541002 65.41,39.58 C64.8261469,39.1546658 64.131352,38.9080136 63.41,38.87 L63.41,37.33 L77.29,37.33 L77.29,38.9 C76.587194,39.0556207 75.9125964,39.3187138 75.29,39.68 C74.5640442,40.107438 73.8924939,40.6211739 73.29,41.21 C72.59,41.86 71.58,42.93 70.29,44.42 L59.47,56.49 L71.09,73.39 C71.9641203,74.7115415 72.9368919,75.9651131 74,77.14 C74.5816106,77.760705 75.2563675,78.2870154 76,78.7 C76.6269737,79.0257957 77.3022622,79.2486409 78,79.36 L78,80.92 L64,80.92 L64,79.36 C64.5998314,79.3409282 65.1876837,79.1871296 65.72,78.91 C66.0659704,78.6961418 66.2746605,78.3167052 66.27,77.91 C66.2425304,77.4263175 66.1166275,76.9533311 65.9,76.52 C65.5720561,75.8189178 65.180411,75.149439 64.73,74.52 L57.26,63.42 C56.6857594,62.5028229 56.0475073,61.6273148 55.35,60.8 C54.9683068,60.3984701 54.5090184,60.0786693 54,59.86 C53.3957735,59.6370091 52.7535785,59.5350733 52.11,59.56 L50.46,59.56 L50.46,72.94 C50.4426672,73.9852139 50.4894216,75.0305074 50.6,76.07 C50.663349,76.6149583 50.8260364,77.1436924 51.08,77.63 C51.3181773,78.0465571 51.6634429,78.3918227 52.08,78.63 C52.7551223,78.9744623 53.4706754,79.2331364 54.21,79.4 L54.21,80.96 L40.75,80.96 L40.75,79.36 C41.7085808,79.186628 42.6149367,78.7967239 43.4,78.22 C43.8848662,77.7463547 44.1950455,77.1224714 44.28,76.45 C44.4462118,75.2877462 44.5164491,74.1137805 44.49,72.94 L44.49,45.31 C44.5134938,44.2375506 44.4600233,43.1647974 44.33,42.1 C44.2635,41.5488558 44.0830052,41.0175879 43.8,40.54 C43.5473209,40.1635174 43.2032537,39.8572976 42.8,39.65 C42.1361092,39.3248549 41.4386221,39.0733572 40.72,38.9 L40.72,37.33 L54.2,37.33 L54.2,38.9 C53.5059249,39.0460692 52.8336742,39.2813569 52.2,39.6 C51.7993533,39.8066078 51.45587,40.1088731 51.2,40.48 C50.9026007,40.9589439 50.7179497,41.4992189 50.66,42.06 C50.5168,43.1371196 50.4566227,44.2236546 50.48,45.31 L50.43,57 Z" id="Path" fill="#FF998C"></path>
            <path d="M57.4,193.94 C58.4938756,192.746023 59.1220748,191.198595 59.17,189.58 C59.17,183.9 50.92,179.31 40.75,179.31 C30.58,179.31 22.34,183.9 22.34,189.58 C22.3842898,191.197481 23.0089953,192.745047 24.1,193.94 L57.4,193.94 Z" id="Path" fill="url(#linearGradient-12)"></path>
            <path d="M0.97,194.43 L280.49,194.43" id="Path" stroke="#4A536B" stroke-width="1.93" stroke-linecap="round" stroke-linejoin="round"></path>
        </g>
    </g>
</svg>