
<svg width="93px" height="150px" viewBox="0 0 93 150" version="1.1" xmlns="http://www.w3.org/2000/svg" xmlns:xlink="http://www.w3.org/1999/xlink">
    <g id="Page-1" stroke="none" stroke-width="1" fill="none" fill-rule="evenodd">
        <g id="Desktop-HD-Copy-2" transform="translate(-1138.000000, -788.000000)" fill-rule="nonzero">
            <g id="I´m-not-sure" transform="translate(979.000000, 678.000000)">
                <g id="smartphone" transform="translate(159.000000, 110.000000)">
                    <path d="M78.4940425,0 L13.8950039,0 C6.23340079,0 2.84217094e-14,6.23340079 2.84217094e-14,13.8938621 L2.84217094e-14,135.74429 C2.84217094e-14,143.405893 6.23340079,149.638152 13.8950039,149.638152 L78.4940425,149.638152 C86.1545037,149.638152 92.3879045,143.405893 92.3879045,135.74429 L92.3879045,13.8938621 C92.3879045,6.23340079 86.1545037,0 78.4940425,0 Z" id="Path" fill="#E4F2F5"></path>
                    <g id="Group" transform="translate(2.338096, 0.000000)" fill="#B5E2EB">
                        <path d="M76.1559464,0 L75.7803438,0 C77.4014849,2.27302223 78.3593278,5.05065295 78.3593278,8.04862176 L78.3593278,118.942649 C78.3593278,132.667547 67.2339633,143.792911 53.5090652,143.792911 L0.242029481,143.792911 C2.76393094,147.327455 6.89327377,149.638152 11.5569078,149.638152 L76.1559464,149.638152 C83.8289658,149.638152 90.0498084,143.417309 90.0498084,135.74429 L90.0498084,13.8938621 C90.0498084,6.22084259 83.8289658,0 76.1559464,0 Z" id="Path"></path>
                        <path d="M57.2068645,14.0457015 L30.5059894,14.0457015 C29.295842,14.0457015 28.3140243,13.0650254 28.3140243,11.8537364 C28.3140243,10.643589 29.295842,9.6617713 30.5059894,9.6617713 L57.2068645,9.6617713 C58.4170119,9.6617713 59.3988296,10.643589 59.3988296,11.8537364 C59.3988296,13.0650254 58.4170119,14.0457015 57.2068645,14.0457015 Z" id="Path"></path>
                        <path d="M57.2068645,139.97638 L30.5059894,139.97638 C29.295842,139.97638 28.3140243,138.994563 28.3140243,137.784415 C28.3140243,136.573126 29.295842,135.59245 30.5059894,135.59245 L57.2068645,135.59245 C58.4170119,135.59245 59.3988296,136.573126 59.3988296,137.784415 C59.3988296,138.994563 58.4170119,139.97638 57.2068645,139.97638 Z" id="Path"></path>
                    </g>
                    <path d="M73.4787804,128.121502 L18.9091241,128.121502 C16.0424447,128.121502 13.7180483,125.797106 13.7180483,122.930427 L13.7180483,26.7077248 C13.7180483,23.8410456 16.0424447,21.5166493 18.9091241,21.5166493 L73.4787804,21.5166493 C76.3466014,21.5166493 78.6698562,23.8410456 78.6698562,26.7077248 L78.6698562,122.930427 C78.6709981,125.797106 76.3466014,128.121502 73.4787804,128.121502 Z" id="Path" fill="#F7EB92"></path>
                    <path d="M73.4787804,21.5166493 L66.9793756,21.5166493 L66.9793756,109.406459 C66.9793756,116.514362 61.2174758,122.276262 54.1095722,122.276262 L13.7180483,122.276262 L13.7180483,122.930427 C13.7180483,125.798248 16.0424447,128.121502 18.9091241,128.121502 L73.4787804,128.121502 C76.3454599,128.121502 78.6698562,125.797106 78.6698562,122.930427 L78.6698562,26.7077248 C78.6709981,23.8410456 76.3466014,21.5166493 73.4787804,21.5166493 Z" id="Path" fill="#FAD078"></path>
                    <path d="M46.1945232,98.6989374 C41.5788383,98.6989374 32.1385469,93.3925552 31.5745724,85.7343771 L30.5048478,71.2091835 C29.8335585,62.0908369 37.0510605,54.3219189 46.1945232,54.3219189 C55.3379859,54.3219189 62.5554876,62.0908369 61.8841986,71.2091835 L60.8144737,85.7343771 C60.2504995,93.3925552 50.8090663,98.6989374 46.1945232,98.6989374 Z" id="Path" fill="#FFCCBC"></path>
                    <path d="M50.0304622,54.7968447 C52.2155772,57.7194649 53.4063167,61.4138391 53.1163381,65.3639432 L52.0466133,79.8891368 C51.482639,87.5473149 42.0412058,92.8536971 37.4266627,92.8536971 C36.5704262,92.8536971 35.5463676,92.6698918 34.4458184,92.3239722 C37.7428993,96.2672263 43.0709729,98.6989374 46.1945232,98.6989374 C50.8090663,98.6989374 60.2504995,93.3925552 60.8144737,85.7343771 L61.8841986,71.2091835 C62.4584475,63.4128657 57.2628055,56.6086406 50.0304622,54.7968447 Z" id="Path" fill="#FF8A65"></path>
                    <path d="M61.4309639,83.9682471 L60.9446218,83.9682471 L61.6798434,73.9753976 L64.3239013,73.9753976 C66.1825051,73.9753976 67.6894811,75.4823736 67.6894811,77.3409774 L67.6894811,77.7097299 C67.6906227,81.1666415 64.8878755,83.9682471 61.4309639,83.9682471 L61.4309639,83.9682471 Z" id="Path" fill="#FF8A65"></path>
                    <path d="M30.9569406,83.9682471 L31.4444246,83.9682471 L30.7080611,73.9753976 L28.0651451,73.9753976 C26.2053995,73.9753976 24.6984234,75.4823736 24.6984234,77.3409774 L24.6984234,77.7097299 C24.6984234,81.1666415 27.500029,83.9682471 30.9569406,83.9682471 L30.9569406,83.9682471 Z" id="Path" fill="#FF8A65"></path>
                    <path d="M69.2307064,102.469802 L55.5571825,102.469802 C54.8105442,102.469802 54.2054706,101.864729 54.2054706,101.119232 L54.2054706,95.6781357 C51.3970153,97.5995299 48.2951564,98.6989374 46.1945232,98.6989374 C44.0927484,98.6989374 40.9908892,97.5995299 38.1824339,95.6781357 L38.1824339,101.119232 C38.1824339,101.864729 37.5773603,102.469802 36.831864,102.469802 L23.1583397,102.469802 C17.9444312,102.469802 13.7180483,106.696185 13.7180483,111.910094 L13.7180483,122.930427 C13.7180483,125.798248 16.0424447,128.121502 18.9091241,128.121502 L73.4787804,128.121502 C76.3454599,128.121502 78.6698562,125.798248 78.6698562,122.930427 L78.6698562,111.910094 C78.6709981,106.696185 74.4446152,102.469802 69.2307064,102.469802 Z" id="Path" fill="#A5D5C9"></path>
                    <path d="M69.2307064,102.469802 L66.9805175,102.469802 L66.9805175,109.406459 C66.9805175,116.514362 61.2174758,122.276262 54.1095722,122.276262 L13.7180483,122.276262 C13.7180483,123.05715 13.6860822,123.623407 13.9509446,124.473936 C14.6085342,126.587127 16.5790193,128.121502 18.9091241,128.121502 L73.4787804,128.121502 C76.3340435,128.121502 78.6698562,125.810806 78.6698562,122.930427 L78.6698562,111.910094 C78.6709981,106.696185 74.4446152,102.469802 69.2307064,102.469802 Z" id="Path" fill="#8DCCBD"></path>
                    <path d="M46.1945232,113.194449 C52.112829,113.194449 56.9100359,108.391533 56.8997611,102.469802 L55.5571825,102.469802 C54.8105442,102.469802 54.2066122,101.864729 54.2066122,101.119232 L54.2066122,95.6781357 C51.3981569,97.5995299 48.296298,98.6989374 46.1945232,98.6989374 C44.0927484,98.6989374 40.9908892,97.5995299 38.1824339,95.6781357 L38.1824339,101.119232 C38.1824339,101.864729 37.5785019,102.469802 36.831864,102.469802 L35.4892853,102.469802 C35.4778687,108.391533 40.2750758,113.194449 46.1945232,113.194449 Z" id="Path" fill="#FFCCBC"></path>
                    <path d="M55.5571825,102.469802 C54.8105442,102.469802 54.2054706,101.864729 54.2054706,101.119232 L54.2054706,95.6781357 C52.2612432,97.0081561 50.1765932,97.9431663 48.3807799,98.3941172 C48.4766786,99.0459986 49.0338031,99.5471823 49.7119422,99.5471823 C50.4779884,99.5471823 51.0625124,100.225322 50.9620473,100.984518 C50.1868679,106.833183 44.7366379,111.068699 38.717867,110.14853 C40.6472531,112.03225 43.284461,113.194449 46.1945232,113.194449 C52.112829,113.194449 56.9100359,108.391533 56.8997611,102.469802 L55.5571825,102.469802 Z" id="Path" fill="#FF8A65"></path>
                    <path d="M69.5081271,118.608146 L69.5081271,128.121502 L65.1241969,128.121502 L65.1241969,118.608146 C65.1241969,117.396857 66.104873,116.416181 67.316162,116.416181 C68.5263094,116.416181 69.5081271,117.396857 69.5081271,118.608146 Z M22.880919,128.121502 L27.2648493,128.121502 L27.2648493,118.608146 C27.2648493,117.396857 26.2830318,116.416181 25.0728841,116.416181 C23.8615952,116.416181 22.880919,117.396857 22.880919,118.608146 L22.880919,128.121502 Z" id="Shape" fill="#67B6A2"></path>
                    <path d="M48.3864883,47.4880109 C48.3864883,48.6992999 47.4046706,49.679976 46.1945232,49.679976 C44.9832339,49.679976 44.0025581,48.6992999 44.0025581,47.4880109 C44.0025581,46.2778635 44.9832339,45.2960458 46.1945232,45.2960458 C47.4046706,45.2960458 48.3864883,46.2778635 48.3864883,47.4880109 Z" id="Path" fill="#F47C6F"></path>
                    <path d="M46.1945232,43.8256025 C44.9832339,43.8256025 44.0025581,42.8449264 44.0025581,41.6336374 L44.0025581,39.5718203 C44.0025581,37.5864935 45.2127055,35.7929637 47.0861506,35.0040845 C47.9869112,34.6250572 48.5508857,33.7117384 48.4892365,32.7322041 C48.4195961,31.5996888 47.4777361,30.6578289 46.3452208,30.5881881 C44.9992172,30.507131 43.8941014,31.5631561 43.8941014,32.8829017 C43.8941014,34.0941907 42.9134253,35.0748668 41.7021363,35.0748668 C40.4919889,35.0748668 39.5101712,34.0941907 39.5101712,32.8829017 C39.5101712,29.1051869 42.6885206,25.9633703 46.616933,26.2122495 C49.9710964,26.4200297 52.6573953,29.1063285 52.8651752,32.4604916 C53.0409892,35.2963465 51.4027235,37.9426879 48.7883486,39.0443786 C48.5942682,39.1265773 48.3864883,39.3080995 48.3864883,39.5729619 L48.3864883,41.634779 C48.3864883,42.8449264 47.4046706,43.8256025 46.1945232,43.8256025 Z" id="Path" fill="#F47C6F"></path>
                    <polygon id="Path" fill="#009184" points="22.880919 122.276262 27.2648493 122.276262 27.2648493 128.121502 22.880919 128.121502"></polygon>
                    <path d="M67.316162,116.416181 C66.104873,116.416181 65.1241969,117.396857 65.1241969,118.608146 L65.1241969,128.121502 L69.5081271,128.121502 L69.5081271,118.608146 C69.5081271,117.396857 68.5263094,116.416181 67.316162,116.416181 Z" id="Path" fill="#009184"></path>
                </g>
            </g>
        </g>
    </g>
</svg>