<svg xmlns="http://www.w3.org/2000/svg" xmlns:xlink="http://www.w3.org/1999/xlink" viewBox="0 0 300.97 196.88"><defs><style>.cls-1{fill:#e4f2f5;}.cls-2{fill:url(#linear-gradient);}.cls-3{fill:url(#linear-gradient-2);}.cls-15,.cls-19,.cls-4{fill:none;stroke-linecap:round;stroke-linejoin:round;}.cls-4{stroke:#4a536b;}.cls-19,.cls-4{stroke-width:1.93px;}.cls-5{fill:url(#linear-gradient-3);}.cls-6{opacity:0.1;}.cls-7{fill:url(#linear-gradient-4);}.cls-8{fill:#697494;}.cls-13,.cls-9{fill:#fff;}.cls-9{opacity:0.8;}.cls-10{fill:url(#linear-gradient-5);}.cls-11{fill:url(#linear-gradient-6);}.cls-12{fill:url(#linear-gradient-7);}.cls-14{fill:#ff998c;}.cls-15,.cls-19{stroke:#fff;}.cls-15{stroke-width:5.16px;}.cls-16,.cls-18{fill:#4a536c;}.cls-17{fill:url(#linear-gradient-8);}.cls-18{opacity:0.2;}</style><linearGradient id="linear-gradient" x1="-701.88" y1="103.94" x2="-727.52" y2="75.6" gradientTransform="matrix(-1, 0, 0, 1, -643.05, 0)" gradientUnits="userSpaceOnUse"><stop offset="0" stop-color="#6fa18c"/><stop offset="0.89" stop-color="#7fb8a0"/></linearGradient><linearGradient id="linear-gradient-2" x1="-704.41" y1="159.48" x2="-675.8" y2="84.95" gradientTransform="matrix(-1, 0, 0, 1, -643.05, 0)" gradientUnits="userSpaceOnUse"><stop offset="0.01" stop-color="#91b8a7"/><stop offset="1" stop-color="#aedcc8"/></linearGradient><linearGradient id="linear-gradient-3" x1="-753.76" y1="182.8" x2="-689.62" y2="164.26" gradientTransform="matrix(-1, 0, 0, 1, -643.05, 0)" gradientUnits="userSpaceOnUse"><stop offset="0" stop-color="#bd7268"/><stop offset="0.91" stop-color="#ff998c"/></linearGradient><linearGradient id="linear-gradient-4" x1="-758.42" y1="166.65" x2="-694.29" y2="148.11" xlink:href="#linear-gradient-3"/><linearGradient id="linear-gradient-5" x1="149.5" y1="190.78" x2="149.62" y2="183.84" gradientUnits="userSpaceOnUse"><stop offset="0" stop-color="#bec7d1"/><stop offset="0.88" stop-color="#969ea6"/></linearGradient><linearGradient id="linear-gradient-6" x1="149.21" y1="184.16" x2="149.81" y2="199.51" xlink:href="#linear-gradient-5"/><linearGradient id="linear-gradient-7" x1="289.62" y1="92.72" x2="54.22" y2="136.67" xlink:href="#linear-gradient-5"/><linearGradient id="linear-gradient-8" x1="196.14" y1="162.36" x2="248.43" y2="162.36" gradientUnits="userSpaceOnUse"><stop offset="0" stop-color="#c7a76f"/><stop offset="0.97" stop-color="#f7d18a"/></linearGradient></defs><title>Asset 5</title><g id="Layer_2" data-name="Layer 2"><g id="Layer_1-2" data-name="Layer 1"><path class="cls-1" d="M57.57,195.92C.3,146.39,7.28,41.71,72.34,13.22c102.77-45,40.29,41.94,121.55,9.66C254.74-1.29,296.58,36.37,297.12,72.67c.67,45.24,8.38,82.91-32.19,123.25"/><path class="cls-2" d="M51.08,101.17c-1.52-9.3-6-15.21-13.94-28.5S47.33,35.11,58.35,34.58s27,8.13,23.58,30.27c-1.94,12.73-10.46,7-9.08,22.75.76,8.67,8.22,21.88,12.6,32.49S80.1,140.61,79,154.7s-20.42,5.46-20.42,5.46S41.36,138.4,39.74,127,52.54,110.06,51.08,101.17Z"/><path class="cls-3" d="M66.81,146c-4.49-8.95,8.84-26.5,0-43.76S49.54,84,46.32,78.91,44.93,58.33,40,52.17c-6.46-8-21.72-11.71-31.26-3.58s-13.14,27.6-.85,32.94c31.73,13.8,13,30.19,18.33,41.86,6.13,13.36,18.17,14.94,19.29,23"/><path class="cls-4" d="M57,146.39c-.2-12.3-10.49-47.72-29.15-73.28"/><polygon class="cls-5" points="33.35 145.93 95.03 145.93 84.15 195.92 44.22 195.92 33.35 145.93"/><polygon class="cls-6" points="33.35 145.93 95.03 145.93 88.79 174.59 36.75 161.58 33.35 145.93"/><rect class="cls-7" x="32.31" y="145.98" width="63.75" height="11.74"/><path class="cls-8" d="M231.35,58.82H69.54a4.08,4.08,0,0,0-4.08,4.07V174.52a4.08,4.08,0,0,0,4.08,4.07H231.35a4.07,4.07,0,0,0,4.07-4.07V62.89A4.07,4.07,0,0,0,231.35,58.82Z"/><path class="cls-9" d="M231.35,58.82H69.54a4.08,4.08,0,0,0-4.08,4.07V82.57a4.08,4.08,0,0,1,4.08-4.07H231.35a4.08,4.08,0,0,1,4.07,4.07V62.89A4.07,4.07,0,0,0,231.35,58.82Z"/><rect class="cls-10" x="128.3" y="178.59" width="42.6" height="12.61"/><path class="cls-11" d="M117.89,188.4h63.43a4.28,4.28,0,0,1,4.28,4.28v3.23a0,0,0,0,1,0,0h-72a0,0,0,0,1,0,0v-3.23A4.28,4.28,0,0,1,117.89,188.4Z"/><path class="cls-12" d="M69.54,58.82a4.08,4.08,0,0,0-4.08,4.07V174.51a4.08,4.08,0,0,0,4.08,4.08H231.35a4.08,4.08,0,0,0,4.07-4.08V62.89a4.07,4.07,0,0,0-4.07-4.07ZM74,156.25V67.32h153v88.93Z"/><circle class="cls-13" cx="150.44" cy="167.42" r="5.83"/><rect class="cls-6" x="128.3" y="178.59" width="42.6" height="3.98"/><circle class="cls-14" cx="219.29" cy="59.04" r="35.12"/><circle class="cls-4" cx="217.06" cy="55.7" r="35.12"/><polyline class="cls-15" points="204.56 65.47 198.05 58.97 204.54 52.47"/><polyline class="cls-15" points="231.05 52.44 237.56 58.93 231.06 65.44"/><line class="cls-15" x1="214.82" y1="74.41" x2="223.75" y2="43.68"/><circle class="cls-16" cx="89.2" cy="72.82" r="1.69"/><circle class="cls-16" cx="96.46" cy="72.82" r="1.69"/><circle class="cls-16" cx="103.71" cy="72.82" r="1.69"/><path class="cls-17" d="M244.65,128.81H199.91a3.77,3.77,0,0,0-3.75,4.19l6.69,59.56a3.78,3.78,0,0,0,3.75,3.36H238a3.78,3.78,0,0,0,3.75-3.36L248.4,133A3.77,3.77,0,0,0,244.65,128.81Z"/><polygon class="cls-13" points="243.61 174.61 200.84 174.61 198.09 150.12 246.54 150.12 243.61 174.61"/><path class="cls-16" d="M249,131.64h-53.3a2.22,2.22,0,0,1-1.88-3.41l4.36-6.95a3.52,3.52,0,0,1,3-1.65H243.5a3.52,3.52,0,0,1,3,1.65l4.36,6.95A2.22,2.22,0,0,1,249,131.64Z"/><path class="cls-18" d="M244.65,128.81H199.91a3.77,3.77,0,0,0-3.75,4.19l6.69,59.56a3.78,3.78,0,0,0,3.75,3.36H215a3.77,3.77,0,0,1-3.74-3.36l-5.39-47.94a6.79,6.79,0,0,1,6-7.52L248.4,133A3.77,3.77,0,0,0,244.65,128.81Z"/><path class="cls-4" d="M206.11,165.36a95.43,95.43,0,0,1,5.37-10.21c1.44,3.14.87,9.08,4.31,9.42,1.88.18,3-4.52,4.93-4.58,2.33-.08.91,7.74,4.22,6.85,2.63-.72,3.11-3.44,4.44-4.48,2-1.55,7.24.28,9.69.75"/><line class="cls-19" x1="87.51" y1="93.71" x2="113.6" y2="93.71"/><line class="cls-19" x1="137.71" y1="105.13" x2="169.09" y2="105.13"/><line class="cls-19" x1="98.87" y1="105.13" x2="128.3" y2="105.13"/><line class="cls-19" x1="87.51" y1="105.13" x2="92.71" y2="105.13"/><line class="cls-19" x1="114.89" y1="116.54" x2="137.71" y2="116.54"/><line class="cls-19" x1="87.51" y1="116.54" x2="109.12" y2="116.54"/><line class="cls-19" x1="104.45" y1="127.96" x2="153.4" y2="127.96"/><line class="cls-19" x1="87.51" y1="127.96" x2="98.88" y2="127.96"/><line class="cls-19" x1="161.56" y1="127.96" x2="172.94" y2="127.96"/><line class="cls-19" x1="122.03" y1="139.37" x2="131.44" y2="139.37"/><line class="cls-19" x1="87.51" y1="139.37" x2="114.89" y2="139.37"/><line class="cls-4" x1="286.23" y1="195.92" x2="300" y2="195.92"/><line class="cls-4" x1="15.18" y1="195.92" x2="281.49" y2="195.92"/></g></g></svg>