<?xml version="1.0" encoding="UTF-8"?>
<svg width="301px" height="198px" viewBox="0 0 301 198" version="1.1" xmlns="http://www.w3.org/2000/svg" xmlns:xlink="http://www.w3.org/1999/xlink">
    <!-- Generator: Sketch 52.5 (67469) - http://www.bohemiancoding.com/sketch -->
    <title>Untitled 2</title>
    <desc>Created with Sketch.</desc>
    <defs>
        <linearGradient x1="46.0066629%" y1="54.1128735%" x2="95.9009772%" y2="32.0100132%" id="linearGradient-1">
            <stop stop-color="#6FA18C" offset="0%"></stop>
            <stop stop-color="#7FB8A0" offset="89%"></stop>
        </linearGradient>
        <linearGradient x1="87.7596008%" y1="112.788508%" x2="46.8103817%" y2="39.9751011%" id="linearGradient-2">
            <stop stop-color="#91B8A7" offset="1%"></stop>
            <stop stop-color="#AEDCC8" offset="100%"></stop>
        </linearGradient>
        <linearGradient x1="125.42153%" y1="73.754751%" x2="21.4332036%" y2="36.6673335%" id="linearGradient-3">
            <stop stop-color="#BD7268" offset="0%"></stop>
            <stop stop-color="#FF998C" offset="91%"></stop>
        </linearGradient>
        <linearGradient x1="-1240.36078%" y1="176.064736%" x2="-1139.76471%" y2="18.1431005%" id="linearGradient-4">
            <stop stop-color="#BD7268" offset="0%"></stop>
            <stop stop-color="#FF998C" offset="91%"></stop>
        </linearGradient>
        <linearGradient x1="49.7652582%" y1="96.6693101%" x2="50.0469484%" y2="41.6336241%" id="linearGradient-5">
            <stop stop-color="#BEC7D1" offset="0%"></stop>
            <stop stop-color="#969EA6" offset="88%"></stop>
        </linearGradient>
        <linearGradient x1="49.4583333%" y1="-56.4578122%" x2="50.2916667%" y2="147.936011%" id="linearGradient-6">
            <stop stop-color="#BEC7D1" offset="0%"></stop>
            <stop stop-color="#969EA6" offset="88%"></stop>
        </linearGradient>
        <linearGradient x1="131.889856%" y1="28.3042498%" x2="-6.61332078%" y2="64.9995825%" id="linearGradient-7">
            <stop stop-color="#BEC7D1" offset="0%"></stop>
            <stop stop-color="#969EA6" offset="88%"></stop>
        </linearGradient>
        <linearGradient x1="0.00666894834%" y1="49.9925507%" x2="100.012456%" y2="49.9925507%" id="linearGradient-8">
            <stop stop-color="#C7A76F" offset="0%"></stop>
            <stop stop-color="#F7D18A" offset="97%"></stop>
        </linearGradient>
    </defs>
    <g id="Page-1" stroke="none" stroke-width="1" fill="none" fill-rule="evenodd">
        <g id="Asset-5">
            <path d="M51.08,102.17 C49.56,92.87 45.08,86.96 37.14,73.67 C29.2,60.38 47.33,36.11 58.35,35.58 C69.37,35.05 85.35,43.71 81.93,65.85 C79.99,78.58 71.47,72.85 72.85,88.6 C73.61,97.27 81.07,110.48 85.45,121.09 C89.83,131.7 80.1,141.61 79,155.7 C77.9,169.79 58.58,161.16 58.58,161.16 C58.58,161.16 41.36,139.4 39.74,128 C38.12,116.6 52.54,111.06 51.08,102.17 Z" id="Path" fill="url(#linearGradient-1)"></path>
            <path d="M66.81,147 C62.32,138.05 75.65,120.5 66.81,103.24 C57.97,85.98 49.54,85 46.32,79.91 C43.1,74.82 44.93,59.33 40,53.17 C33.54,45.17 18.28,41.46 8.74,49.59 C-0.8,57.72 -4.4,77.19 7.89,82.53 C39.62,96.33 20.89,112.72 26.22,124.39 C32.35,137.75 44.39,139.33 45.51,147.39" id="Path" fill="url(#linearGradient-2)"></path>
            <path d="M57,147.39 C56.8,135.09 46.51,99.67 27.85,74.11" id="Path" stroke="#4A536B" stroke-width="1.93" stroke-linecap="round" stroke-linejoin="round"></path>
            <polygon id="Path" fill="url(#linearGradient-3)" points="33.35 146.93 95.03 146.93 84.15 196.92 44.22 196.92"></polygon>
            <polygon id="Path" fill="#000000" opacity="0.1" points="33.35 146.93 95.03 146.93 88.79 175.59 36.75 162.58"></polygon>
            <rect id="Rectangle" fill="url(#linearGradient-4)" x="32.31" y="146.98" width="63.75" height="11.74"></rect>
            <path d="M231.35,59.82 L69.54,59.82 C67.2905777,59.8199932 65.4655133,61.6405845 65.46,63.89 L65.46,175.52 C65.4655133,177.769416 67.2905777,179.590007 69.54,179.59 L231.35,179.59 C233.597799,179.59 235.42,177.767799 235.42,175.52 L235.42,63.89 C235.42,61.6422011 233.597799,59.82 231.35,59.82 Z" id="Path" fill="#697494"></path>
            <path d="M231.35,59.82 L69.54,59.82 C67.2905777,59.8199932 65.4655133,61.6405845 65.46,63.89 L65.46,83.57 C65.4655133,81.3205845 67.2905777,79.4999932 69.54,79.5 L231.35,79.5 C233.595518,79.505497 235.414503,81.3244819 235.42,83.57 L235.42,63.89 C235.42,61.6422011 233.597799,59.82 231.35,59.82 Z" id="Path" fill="#FFFFFF" opacity="0.8"></path>
            <rect id="Rectangle" fill="url(#linearGradient-5)" x="128.3" y="179.59" width="42.6" height="12.61"></rect>
            <path d="M117.89,189.4 L181.32,189.4 C183.683779,189.4 185.6,191.316221 185.6,193.68 L185.6,196.91 L113.6,196.91 L113.6,193.68 C113.599997,192.543139 114.052297,191.452986 114.857116,190.650042 C115.661936,189.847098 116.753142,189.397344 117.89,189.4 Z" id="Path" fill="url(#linearGradient-6)"></path>
            <path d="M69.54,59.82 C67.2905777,59.8199932 65.4655133,61.6405845 65.46,63.89 L65.46,175.51 C65.46,177.763322 67.2866782,179.59 69.54,179.59 L231.35,179.59 C233.599416,179.584487 235.420007,177.759422 235.42,175.51 L235.42,63.89 C235.42,61.6422011 233.597799,59.82 231.35,59.82 L69.54,59.82 Z M74,157.25 L74,68.32 L227,68.32 L227,157.25 L74,157.25 Z" id="Shape" fill="url(#linearGradient-7)" fill-rule="nonzero"></path>
            <circle id="Oval" fill="#FFFFFF" cx="150.44" cy="168.42" r="5.83"></circle>
            <rect id="Rectangle" fill="#000000" opacity="0.1" x="128.3" y="179.59" width="42.6" height="3.98"></rect>
            <circle id="Oval" fill="#FF998C" cx="219.29" cy="60.04" r="35.12"></circle>
            <circle id="Oval" stroke="#4A536B" stroke-width="1.93" stroke-linecap="round" stroke-linejoin="round" cx="217.06" cy="56.7" r="35.12"></circle>
            <polyline id="Path" stroke="#FFFFFF" stroke-width="5.16" stroke-linecap="round" stroke-linejoin="round" points="204.56 66.47 198.05 59.97 204.54 53.47"></polyline>
            <polyline id="Path" stroke="#FFFFFF" stroke-width="5.16" stroke-linecap="round" stroke-linejoin="round" points="231.05 53.44 237.56 59.93 231.06 66.44"></polyline>
            <path d="M214.82,75.41 L223.75,44.68" id="Path" stroke="#FFFFFF" stroke-width="5.16" stroke-linecap="round" stroke-linejoin="round"></path>
            <circle id="Oval" fill="#4A536C" cx="89.2" cy="73.82" r="1.69"></circle>
            <circle id="Oval" fill="#4A536C" cx="96.46" cy="73.82" r="1.69"></circle>
            <circle id="Oval" fill="#4A536C" cx="103.71" cy="73.82" r="1.69"></circle>
            <path d="M244.65,129.81 L199.91,129.81 C198.836401,129.809012 197.813305,130.265799 197.097323,131.06579 C196.38134,131.865781 196.040394,132.933084 196.16,134 L202.85,193.56 C203.063618,195.470688 204.677411,196.916646 206.6,196.92 L238,196.92 C239.922589,196.916646 241.536382,195.470688 241.75,193.56 L248.4,134 C248.519606,132.933084 248.17866,131.865781 247.462677,131.06579 C246.746695,130.265799 245.723599,129.809012 244.65,129.81 Z" id="Path" fill="url(#linearGradient-8)"></path>
            <polygon id="Path" fill="#FFFFFF" points="243.61 175.61 200.84 175.61 198.09 151.12 246.54 151.12"></polygon>
            <path d="M249,132.64 L195.7,132.64 C194.889083,132.642152 194.14151,132.201982 193.749993,131.491837 C193.358476,130.781692 193.385315,129.914573 193.82,129.23 L198.18,122.28 C198.827129,121.247952 199.961861,120.623849 201.18,120.63 L243.5,120.63 C244.718139,120.623849 245.852871,121.247952 246.5,122.28 L250.86,129.23 C251.292785,129.91155 251.321445,130.774328 250.934843,131.483096 C250.548242,132.191865 249.807334,132.634878 249,132.64 Z" id="Path" fill="#4A536C"></path>
            <path d="M244.65,129.81 L199.91,129.81 C198.836401,129.809012 197.813305,130.265799 197.097323,131.06579 C196.38134,131.865781 196.040394,132.933084 196.16,134 L202.85,193.56 C203.063618,195.470688 204.677411,196.916646 206.6,196.92 L215,196.92 C213.079487,196.916108 211.468859,195.469126 211.26,193.56 L205.87,145.62 C205.664992,143.826492 206.182609,142.025174 207.308468,140.614097 C208.434328,139.20302 210.075744,138.29835 211.87,138.1 L248.4,134 C248.519606,132.933084 248.17866,131.865781 247.462677,131.06579 C246.746695,130.265799 245.723599,129.809012 244.65,129.81 Z" id="Path" fill="#4A536C" opacity="0.2"></path>
            <path d="M206.11,166.36 C207.692468,162.851489 209.485743,159.441928 211.48,156.15 C212.92,159.29 212.35,165.23 215.79,165.57 C217.67,165.75 218.79,161.05 220.72,160.99 C223.05,160.91 221.63,168.73 224.94,167.84 C227.57,167.12 228.05,164.4 229.38,163.36 C231.38,161.81 236.62,163.64 239.07,164.11" id="Path" stroke="#4A536B" stroke-width="1.93" stroke-linecap="round" stroke-linejoin="round"></path>
            <path d="M87.51,94.71 L113.6,94.71" id="Path" stroke="#FFFFFF" stroke-width="1.93" stroke-linecap="round" stroke-linejoin="round"></path>
            <path d="M137.71,106.13 L169.09,106.13" id="Path" stroke="#FFFFFF" stroke-width="1.93" stroke-linecap="round" stroke-linejoin="round"></path>
            <path d="M98.87,106.13 L128.3,106.13" id="Path" stroke="#FFFFFF" stroke-width="1.93" stroke-linecap="round" stroke-linejoin="round"></path>
            <path d="M87.51,106.13 L92.71,106.13" id="Path" stroke="#FFFFFF" stroke-width="1.93" stroke-linecap="round" stroke-linejoin="round"></path>
            <path d="M114.89,117.54 L137.71,117.54" id="Path" stroke="#FFFFFF" stroke-width="1.93" stroke-linecap="round" stroke-linejoin="round"></path>
            <path d="M87.51,117.54 L109.12,117.54" id="Path" stroke="#FFFFFF" stroke-width="1.93" stroke-linecap="round" stroke-linejoin="round"></path>
            <path d="M104.45,128.96 L153.4,128.96" id="Path" stroke="#FFFFFF" stroke-width="1.93" stroke-linecap="round" stroke-linejoin="round"></path>
            <path d="M87.51,128.96 L98.88,128.96" id="Path" stroke="#FFFFFF" stroke-width="1.93" stroke-linecap="round" stroke-linejoin="round"></path>
            <path d="M161.56,128.96 L172.94,128.96" id="Path" stroke="#FFFFFF" stroke-width="1.93" stroke-linecap="round" stroke-linejoin="round"></path>
            <path d="M122.03,140.37 L131.44,140.37" id="Path" stroke="#FFFFFF" stroke-width="1.93" stroke-linecap="round" stroke-linejoin="round"></path>
            <path d="M87.51,140.37 L114.89,140.37" id="Path" stroke="#FFFFFF" stroke-width="1.93" stroke-linecap="round" stroke-linejoin="round"></path>
            <path d="M286.23,196.92 L300,196.92" id="Path" stroke="#4A536B" stroke-width="1.93" stroke-linecap="round" stroke-linejoin="round"></path>
            <path d="M15.18,196.92 L281.49,196.92" id="Path" stroke="#4A536B" stroke-width="1.93" stroke-linecap="round" stroke-linejoin="round"></path>
        </g>
    </g>
</svg>