<?xml version="1.0" encoding="UTF-8"?>
<svg width="291px" height="212px" viewBox="0 0 291 212" version="1.1" xmlns="http://www.w3.org/2000/svg" xmlns:xlink="http://www.w3.org/1999/xlink">
    <!-- Generator: Sketch 52.5 (67469) - http://www.bohemiancoding.com/sketch -->
    <title>Untitled 2</title>
    <desc>Created with Sketch.</desc>
    <defs>
        <linearGradient x1="116.638388%" y1="51.1187608%" x2="-3.80699894%" y2="49.0748709%" id="linearGradient-1">
            <stop stop-color="#4A536C" offset="0%"></stop>
            <stop stop-color="#697494" offset="100%"></stop>
        </linearGradient>
        <linearGradient x1="385.766871%" y1="52.8478731%" x2="-78.2413088%" y2="49.4232156%" id="linearGradient-2">
            <stop stop-color="#4A536C" offset="0%"></stop>
            <stop stop-color="#697494" offset="100%"></stop>
        </linearGradient>
        <linearGradient x1="51.0694919%" y1="109.59814%" x2="49.671817%" y2="5.76220525%" id="linearGradient-3">
            <stop stop-color="#4A536C" offset="0%"></stop>
            <stop stop-color="#697494" offset="100%"></stop>
        </linearGradient>
        <linearGradient x1="53.4246575%" y1="202.264151%" x2="46.8688845%" y2="-134.824798%" id="linearGradient-4">
            <stop stop-color="#4A536C" offset="0%"></stop>
            <stop stop-color="#697494" offset="100%"></stop>
        </linearGradient>
        <linearGradient x1="60.5290076%" y1="175.578168%" x2="42.0356055%" y2="-113.644773%" id="linearGradient-5">
            <stop stop-color="#4A536C" offset="0%"></stop>
            <stop stop-color="#697494" offset="100%"></stop>
        </linearGradient>
        <linearGradient x1="0%" y1="50.0459137%" x2="100.006423%" y2="50.0459137%" id="linearGradient-6">
            <stop stop-color="#BEC7D1" offset="0%"></stop>
            <stop stop-color="#969EA6" offset="88%"></stop>
        </linearGradient>
        <linearGradient x1="49.4188046%" y1="-6.57321239%" x2="50.4711466%" y2="96.3364354%" id="linearGradient-7">
            <stop stop-color="#BEC7D1" offset="0%"></stop>
            <stop stop-color="#969EA6" offset="88%"></stop>
        </linearGradient>
        <linearGradient x1="51.4305333%" y1="133.84734%" x2="49.1187915%" y2="-2.39013107%" id="linearGradient-8">
            <stop stop-color="#C8CEDE" offset="0%"></stop>
            <stop stop-color="#FFFFFF" offset="100%"></stop>
        </linearGradient>
        <linearGradient x1="50.5834747%" y1="136.835362%" x2="49.4269842%" y2="-10.6982703%" id="linearGradient-9">
            <stop stop-color="#BD7268" offset="0%"></stop>
            <stop stop-color="#FF998C" offset="91%"></stop>
        </linearGradient>
        <linearGradient x1="50%" y1="105.705474%" x2="50%" y2="22.6676947%" id="linearGradient-10">
            <stop stop-color="#DEDEDE" offset="0%"></stop>
            <stop stop-color="#FFFFFF" offset="100%"></stop>
        </linearGradient>
        <linearGradient x1="50.6851722%" y1="108.642766%" x2="48.7174982%" y2="-24.5838668%" id="linearGradient-11">
            <stop stop-color="#91B8A7" offset="1%"></stop>
            <stop stop-color="#AEDCC8" offset="100%"></stop>
        </linearGradient>
        <linearGradient x1="57.056963%" y1="181.27156%" x2="47.8354701%" y2="-43.001475%" id="linearGradient-12">
            <stop stop-color="#4A536C" offset="0%"></stop>
            <stop stop-color="#697494" offset="100%"></stop>
        </linearGradient>
        <linearGradient x1="57.098526%" y1="258.417378%" x2="45.0737005%" y2="-94.6082234%" id="linearGradient-13">
            <stop stop-color="#4A536C" offset="0%"></stop>
            <stop stop-color="#697494" offset="100%"></stop>
        </linearGradient>
    </defs>
    <g id="Page-1" stroke="none" stroke-width="1" fill="none" fill-rule="evenodd">
        <g id="Asset-6" transform="translate(0.000000, 1.000000)">
            <path d="M33.12,8.32667268e-15 L73.12,8.32667268e-15 C80.5222442,-0.0110584042 86.5334484,5.97776603 86.55,13.38 L86.55,74.65 L69.29,62.26 L33.12,62.26 C25.7138615,62.26 19.71,56.2561385 19.71,48.85 L19.71,13.38 C19.7265424,5.98557994 25.7255614,-1.85037906e-05 33.12,8.32667268e-15 Z" id="Path" stroke="#4A536B" stroke-width="1.93" stroke-linecap="round" stroke-linejoin="round"></path>
            <path d="M48.14,37 C47.93,32.41 49.96,30.49 53.35,29.23 L55.07,28.56 C57.3729539,27.9394697 58.9978327,25.883998 59.07,23.5 C59.07,20.01 56.83,18.08 53.81,18.08 C52.2116507,18.095761 50.6856601,18.7486403 49.57052,19.8938178 C48.4553799,21.0389953 47.8432818,22.5817963 47.87,24.18 L42.97,24.18 C42.8927797,21.2766245 44.0080284,18.4683052 46.0560751,16.4089224 C48.1041218,14.3495397 50.9062424,13.2188068 53.81,13.28 C59.54,13.28 64.13,17.19 64.13,23.45 C64.122101,28.0276549 61.0826327,32.0462808 56.68,33.3 C54.5,34 53,34.58 53,37 L52.95,38.83 L48.19,38.83 L48.14,37 Z M46.94,46.65 C46.8746533,45.1811358 47.7091255,43.8201498 49.0478581,43.21218 C50.3865907,42.6042101 51.9605052,42.8714553 53.0235307,43.8872353 C54.0865563,44.9030152 54.4250302,46.4631634 53.8785081,47.8281344 C53.3319861,49.1931054 52.0103163,50.0885471 50.54,50.09 C49.5998964,50.1224492 48.6866988,49.7729373 48.0084927,49.1211059 C47.3302866,48.4692745 46.9448463,47.570651 46.94,46.63 L46.94,46.65 Z" id="Shape" fill="#4A536B" fill-rule="nonzero"></path>
            <rect id="Rectangle" fill="url(#linearGradient-1)" x="184.11" y="19.09" width="94.3" height="46.48" rx="16.67"></rect>
            <circle id="Oval" fill="#FFFFFF" cx="209.74" cy="42.33" r="4.91"></circle>
            <circle id="Oval" fill="#FFFFFF" cx="229.64" cy="42.33" r="4.91"></circle>
            <circle id="Oval" fill="#FFFFFF" cx="250.58" cy="42.33" r="4.91"></circle>
            <polygon id="Path" fill="url(#linearGradient-2)" points="199.49 82.14 199.49 54.4 223.94 57.13"></polygon>
            <path d="M148.38,166.36 C131.478469,166.354478 117.779999,152.651532 117.78,135.75 L117.78,110.22 C117.78,93.32 178.99,105.9 178.99,122.8 L178.99,135.8 C178.962418,152.685907 165.265929,166.360023 148.38,166.36 Z" id="Path" fill="#FFFFFF"></path>
            <path d="M174.08,87.32 C171.991022,87.0937887 169.878772,87.3999617 167.94,88.21 C165.053139,83.4128631 159.868777,80.4736676 154.27,80.46 L105.94,80.46 C97.14,80.46 89.6,87.34 89.44,96.13 C89.3703054,100.418332 91.025197,104.555109 94.0333662,107.612161 C97.0415354,110.669213 101.151102,112.390566 105.44,112.39 L145.6,112.39 L166.31,112.49 C173.324959,112.512042 179.000035,118.205007 179,125.22 L179,135.75 C178.988959,137.402199 178.845163,139.050838 178.57,140.68 C182.81,134.03 185.31,135.54 185.31,126.77 L185.31,100.3 C185.405666,93.7494527 180.576208,88.1674085 174.08,87.32 Z" id="Path" fill="url(#linearGradient-3)"></path>
            <path d="M160.44,108.23 L180.84,108.23 L180.84,126.78 L167,126.78 C163.354921,126.78 160.4,123.825079 160.4,120.18 L160.4,108.23 L160.44,108.23 Z" id="Path" fill="url(#linearGradient-4)"></path>
            <path d="M117.78,112.39 L117.78,130.62 C117.78,130.62 109.67,117.08 110.61,109" id="Path" fill="url(#linearGradient-5)"></path>
            <path d="M65.16,198.68 L220.86,198.68 L220.86,203.1 C220.86,206.673282 217.963282,209.57 214.39,209.57 L71.64,209.57 C68.0667177,209.57 65.17,206.673282 65.17,203.1 L65.17,198.68 L65.16,198.68 Z" id="Path" fill="url(#linearGradient-6)"></path>
            <rect id="Rectangle" fill="url(#linearGradient-7)" x="69.8" y="124.68" width="145.39" height="84.89" rx="6.12"></rect>
            <ellipse id="Oval" fill="#FFFFFF" cx="143.02" cy="164.87" rx="9.05" ry="10.69"></ellipse>
            <rect id="Rectangle" fill="url(#linearGradient-8)" x="14.34" y="195.59" width="43.69" height="12.97"></rect>
            <path d="M101.74,194 L12.31,194 C11.9634789,193.99999 11.6312943,194.138326 11.3872075,194.38429 C11.1431207,194.630254 11.0073345,194.963489 11.01,195.31 C11.01,196.02797 11.5920298,196.61 12.31,196.61 L46.4,196.61 C48.7156963,196.609993 50.5944864,198.48431 50.6,200.8 L50.6,202.8 C50.6,205.119596 48.7195959,207 46.4,207 L12.31,207 C11.5920298,207 11.01,207.58203 11.01,208.3 C11.009979,209.019606 11.5904153,209.604507 12.31,209.61 L101.74,209.61 C104.639495,209.61 106.99,207.259495 106.99,204.36 L106.99,199.24 C106.984485,196.344411 104.635594,193.999995 101.74,194 Z" id="Path" fill="url(#linearGradient-9)"></path>
            <path d="M19.71,203.45 L41.95,203.45" id="Path" stroke="#4A536B" stroke-width="1.93" stroke-linecap="round" stroke-linejoin="round"></path>
            <rect id="Rectangle" fill="url(#linearGradient-10)" x="32.55" y="180.18" width="25.88" height="12.97"></rect>
            <path d="M84.32,178.55 L31.32,178.55 C30.89,178.55 30.54,179.14 30.54,179.86 C30.54,180.58 30.89,181.16 31.32,181.16 L51.54,181.16 C52.91,181.16 54.02,183.04 54.02,185.36 L54.02,187.36 C54.02,189.68 52.91,191.56 51.54,191.56 L31.35,191.56 C30.92,191.56 30.57,192.14 30.57,192.86 C30.57,193.58 30.92,194.17 31.35,194.17 L84.35,194.17 C86.07,194.17 87.46,191.82 87.46,188.92 L87.46,183.8 C87.43,180.9 86,178.55 84.32,178.55 Z" id="Path" fill="url(#linearGradient-11)"></path>
            <path d="M39.2,186.67 L46.77,186.67" id="Path" stroke="#4A536B" stroke-width="1.93" stroke-linecap="round" stroke-linejoin="round"></path>
            <path d="M253.36,209.69 L225.66,209.69 L222.66,173.19 C222.573454,172.141072 222.929326,171.103719 223.641553,170.328817 C224.353779,169.553914 225.357509,169.112019 226.41,169.11 L252.6,169.11 C253.654231,169.109226 254.660626,169.549906 255.375059,170.325142 C256.089492,171.100377 256.446688,172.139339 256.36,173.19 L253.36,209.69 Z" id="Path" fill="url(#linearGradient-12)"></path>
            <path d="M254.65,201.33 C247.53105,201.33 241.76,195.55895 241.76,188.44 C241.76,181.32105 247.53105,175.55 254.65,175.55 C261.76895,175.55 267.54,181.32105 267.54,188.44 C267.534485,195.556665 261.766665,201.324485 254.65,201.33 Z M254.65,180.55 C251.458793,180.55 248.581813,182.472337 247.36059,185.420628 C246.139368,188.368919 246.814403,191.762548 249.070927,194.019073 C251.327452,196.275597 254.721081,196.950632 257.669372,195.72941 C260.617663,194.508187 262.54,191.631207 262.54,188.44 C262.534491,184.084757 259.005243,180.555509 254.65,180.55 Z" id="Shape" fill="url(#linearGradient-13)" fill-rule="nonzero"></path>
            <path d="M278.41,209.58 L289.88,209.58" id="Path" stroke="#4A536B" stroke-width="1.93" stroke-linecap="round" stroke-linejoin="round"></path>
            <path d="M0.97,209.58 L269.56,209.58" id="Path" stroke="#4A536B" stroke-width="1.93" stroke-linecap="round" stroke-linejoin="round"></path>
        </g>
    </g>
</svg>