
<svg width="126px" height="126px" viewBox="0 0 126 126" version="1.1" xmlns="http://www.w3.org/2000/svg" xmlns:xlink="http://www.w3.org/1999/xlink">
    <g id="Page-1" stroke="none" stroke-width="1" fill="none" fill-rule="evenodd">
        <g id="Desktop-HD-Copy-2" transform="translate(-189.000000, -800.000000)" fill-rule="nonzero">
            <g id="web" transform="translate(189.000000, 800.000000)">
                <polygon id="Path" fill="#B5E2EB" points="45.2985533 102.753754 80.4841919 102.753754 80.4841919 118.682556 45.2985533 118.682556"></polygon>
                <path d="M119.325668,104.891693 L6.45707696,104.891693 C2.89064032,104.891693 -2.84217094e-14,102.001053 -2.84217094e-14,98.434616 L-2.84217094e-14,6.57243341 C-2.84217094e-14,3.00599677 2.89064032,0.115356445 6.45707696,0.115356445 L119.325668,0.115356445 C122.892105,0.115356445 125.782745,3.00599677 125.782745,6.57243341 L125.782745,98.434616 C125.782745,102.001053 122.892105,104.891693 119.325668,104.891693 L119.325668,104.891693 Z" id="Path" fill="#F7EB92"></path>
                <path d="M125.783707,6.5733949 L125.783707,98.434616 C125.783707,102.001053 122.893066,104.892654 119.32663,104.892654 L111.438171,104.892654 C115.004608,104.892654 117.89621,102.001053 117.89621,98.434616 L117.89621,6.5733949 C117.89621,3.00695801 115.004608,0.115356445 111.438171,0.115356445 L119.32663,0.115356445 C122.893066,0.115356445 125.783707,3.00599677 125.783707,6.5733949 Z" id="Path" fill="#FAD078"></path>
                <path d="M125.782745,89.3349152 L0,89.3349152 L0,98.434616 C0,102.001053 2.89064032,104.892654 6.45707696,104.892654 L119.325668,104.892654 C122.892105,104.892654 125.782745,102.001053 125.782745,98.434616 L125.782745,89.3349152 Z" id="Path" fill="#E4F2F5"></path>
                <path d="M125.783707,89.3339537 L125.783707,98.434616 C125.783707,102.001053 122.893066,104.891693 119.32663,104.891693 L111.438171,104.891693 C115.004608,104.891693 117.89621,102.001053 117.89621,98.434616 L117.89621,89.3339537 L125.783707,89.3339537 Z" id="Path" fill="#B5E2EB"></path>
                <path d="M125.926941,22.1426696 L0.140350219,22.1426696 L0.140350219,6.57147217 C0.140350219,3.00599677 3.03099054,0.115356445 6.59646619,0.115356445 L119.469864,0.115356445 C123.036301,0.115356445 125.926941,3.00599677 125.926941,6.57147217 L125.926941,22.1426696 Z" id="Path" fill="#E4F2F5"></path>
                <path d="M126,6.45515448 L126,22.0282746 L117.968307,22.0282746 L117.968307,6.45515448 C117.968307,2.89064032 115.076706,0 111.510269,0 L119.542923,0 C123.10936,0 126,2.89064032 126,6.45515448 Z" id="Path" fill="#B5E2EB"></path>
                <path d="M15.7759553,11.07518 C15.7759553,13.1035309 14.1311646,14.7483217 12.1028138,14.7483217 C10.0744629,14.7483217 8.42967218,13.1035309 8.42967218,11.07518 C8.42967218,9.04682929 10.0744629,7.40203857 12.1028138,7.40203857 C14.1311646,7.40203857 15.7759553,9.04682929 15.7759553,11.07518 Z" id="Path" fill="#FF998C"></path>
                <path d="M29.9609528,11.07518 C29.9609528,13.1035309 28.3171234,14.7483217 26.2878112,14.7483217 C24.2594604,14.7483217 22.6156312,13.1035309 22.6156312,11.07518 C22.6156312,9.04682929 24.2594604,7.40203857 26.2878112,7.40203857 C28.3171234,7.40203857 29.9609528,9.04682929 29.9609528,11.07518 Z" id="Path" fill="#F7EB92"></path>
                <path d="M44.1459504,11.07518 C44.1459504,13.1035309 42.5021209,14.7483217 40.4737702,14.7483217 C38.444458,14.7483217 36.8006285,13.1035309 36.8006285,11.07518 C36.8006285,9.04682929 38.444458,7.40203857 40.4737702,7.40203857 C42.5021209,7.40203857 44.1459504,9.04682929 44.1459504,11.07518 Z" id="Path" fill="#67B6A2"></path>
                <path d="M15.7749938,11.0761412 C15.7749938,13.1044922 14.1321258,14.7473602 12.1047363,14.7473602 C11.1222838,14.7473602 10.2282715,14.3618774 9.57073975,13.7322234 C11.5577546,13.6889648 13.157364,12.0634002 13.157364,10.0638885 C13.157364,9.01606757 12.7190095,8.07398993 12.0182191,7.40588379 C12.0460969,7.40299982 12.0768586,7.40299982 12.1047363,7.40299982 C14.1321258,7.40299982 15.7749938,9.0458678 15.7749938,11.0761412 Z" id="Path" fill="#F47C6F"></path>
                <path d="M29.9609528,11.0761412 C29.9609528,13.1044922 28.3180846,14.7473602 26.2878112,14.7473602 C25.3053589,14.7473602 24.4142303,14.3618774 23.7538148,13.7322234 C25.7437134,13.6889648 27.3433228,12.0634002 27.3433228,10.0638885 C27.3433228,9.01606757 26.9049683,8.07398993 26.2041779,7.40588379 C26.2320557,7.40299982 26.2599334,7.40299982 26.2878112,7.40299982 C28.3180846,7.40299982 29.9609528,9.0458678 29.9609528,11.0761412 Z" id="Path" fill="#FAD078"></path>
                <path d="M44.1469116,11.0761412 C44.1469116,13.1044922 42.5011597,14.7473602 40.4737702,14.7473602 C39.4913177,14.7473602 38.6001891,14.3618774 37.9397736,13.7322234 C39.9296722,13.6889648 41.5263978,12.0634002 41.5263978,10.0638885 C41.5263978,9.01606757 41.0890046,8.07398993 40.3872527,7.40588379 C40.4151305,7.40299982 40.4458922,7.40299982 40.4737702,7.40299982 C42.5011597,7.40299982 44.1469116,9.0458678 44.1469116,11.0761412 Z" id="Path" fill="#009184"></path>
                <path d="M91.8862151,125.901947 L33.8965301,125.901947 C33.1976625,125.901947 32.6304932,125.334778 32.6304932,124.63591 L32.6304932,120.534027 C32.6304932,117.752975 34.8857115,115.498718 37.6667634,115.498718 L88.1159821,115.498718 C90.8970337,115.498718 93.1512908,117.752975 93.1512908,120.534027 L93.1512908,124.63591 C93.1522523,125.334778 92.585083,125.901947 91.8862151,125.901947 Z" id="Path" fill="#E4F2F5"></path>
                <g id="Group" transform="translate(6.398438, 29.039062)">
                    <path d="M86.7528533,91.4940032 L86.7528533,95.597809 C86.7528533,96.2966766 86.1866455,96.8638459 85.4877776,96.8638459 L81.019638,96.8638459 L81.019638,91.4940032 C81.019638,88.7148744 78.7644196,86.4596558 75.9843293,86.4596558 L81.7185059,86.4596558 C84.4985962,86.4596558 86.7528533,88.7139129 86.7528533,91.4940032 L86.7528533,91.4940032 Z" id="Path" fill="#B5E2EB"></path>
                    <path d="M7.11845392,3.83464044 L2.06776434,3.83464044 C1.01994318,3.83464044 0.169189453,2.98484796 0.169189453,1.9360658 C0.169189453,0.887283387 1.01994318,0.0374909062 2.06776434,0.0374909062 L7.11845392,0.0374909062 C8.16723633,0.0374909062 9.01702881,0.887283387 9.01702881,1.9360658 C9.01702881,2.98484796 8.16627509,3.83464044 7.11845392,3.83464044 Z" id="Path" fill="#323A4F"></path>
                    <path d="M19.2818297,3.83464044 L13.5322723,3.83464044 C12.4834899,3.83464044 11.6336976,2.98484796 11.6336976,1.9360658 C11.6336976,0.887283387 12.4834899,0.0374909062 13.5322723,0.0374909062 L19.2818297,0.0374909062 C20.3296509,0.0374909062 21.1804046,0.887283387 21.1804046,1.9360658 C21.1804046,2.98484796 20.3296509,3.83464044 19.2818297,3.83464044 Z" id="Path" fill="#323A4F"></path>
                    <path d="M30.402191,12.1883698 L15.4846802,12.1883698 C14.4358978,12.1883698 13.5861053,11.3385773 13.5861053,10.2897949 C13.5861053,9.24101251 14.4358978,8.39122003 15.4846802,8.39122003 L30.402191,8.39122003 C31.4509734,8.39122003 32.3007659,9.24101251 32.3007659,10.2897949 C32.3007659,11.3385773 31.4509734,12.1883698 30.402191,12.1883698 Z" id="Path" fill="#323A4F"></path>
                    <path d="M9.37751776,12.1883698 L2.06776434,12.1883698 C1.01994318,12.1883698 0.169189453,11.3385773 0.169189453,10.2897949 C0.169189453,9.24101251 1.01994318,8.39122003 2.06776434,8.39122003 L9.37751776,8.39122003 C10.4263002,8.39122003 11.2760924,9.24101251 11.2760924,10.2897949 C11.2760924,11.3385773 10.4263002,12.1883698 9.37751776,12.1883698 Z" id="Path" fill="#323A4F"></path>
                </g>
                <path d="M85.700226,92.1053924 L62.0646516,92.1053924 L62.0646516,97.0426483 C62.0646516,99.089264 63.7238616,100.748474 65.7695159,100.748474 L65.8569946,100.748474 C67.9026489,100.748474 69.561859,102.406723 69.561859,104.453339 L69.561859,119.292984 C69.561859,121.679901 71.4960023,123.615006 73.8829193,123.615006 C76.2698364,123.615006 78.2039795,121.679901 78.2039795,119.292984 L78.2039795,104.453338 C78.2039795,102.406723 79.8631898,100.748474 81.9088441,100.748474 L81.9963226,100.748474 C84.0419769,100.748474 85.7011872,99.089264 85.7011872,97.0426483 L85.7011872,92.1053924 L85.700226,92.1053924 Z" id="Path" fill="#4A536B"></path>
                <path d="M47.9065705,80.6658782 L47.7575684,80.6658782 C45.8061217,80.6658782 44.2238159,79.0835724 44.2238159,77.1321258 L44.2238159,66.1924896 C44.2238159,64.2410432 45.8061217,62.6596986 47.7575684,62.6596986 L47.9065705,62.6596986 C49.8580169,62.6596986 51.4403229,64.2410432 51.4403229,66.1924896 L51.4403229,77.1321258 C51.4403229,79.0835724 49.8580169,80.6658782 47.9065705,80.6658782 Z" id="Path" fill="#FF998C"></path>
                <path d="M115.156494,67.3921966 L115.007492,67.3921966 C113.056046,67.3921966 111.47374,65.8108521 111.47374,63.8594056 L111.47374,52.9197692 C111.47374,50.9683228 113.056046,49.386017 115.007492,49.386017 L115.156494,49.386017 C117.107941,49.386017 118.690247,50.9683228 118.690247,52.9197692 L118.690247,63.8594056 C118.690247,65.8108521 117.107941,67.3921966 115.156494,67.3921966 Z" id="Path" fill="#FF998C"></path>
                <path d="M51.4412842,66.1924896 L51.4412842,77.1330873 C51.4412842,79.0845337 49.8589781,80.6668395 47.9075317,80.6668395 L47.7585296,80.6668395 C47.1557924,80.6668395 46.588623,80.5168763 46.0925903,80.2515563 C47.2038574,79.6545867 47.9604035,78.4817962 47.9604035,77.1330873 L47.9604035,66.1924896 C47.9604035,64.8428192 47.2038574,63.6709899 46.0925903,63.0759431 C46.588623,62.8077393 47.1557924,62.6587371 47.7585296,62.6587371 L47.9075317,62.6587371 C49.8589781,62.6587371 51.4412842,64.2400817 51.4412842,66.1924896 L51.4412842,66.1924896 Z" id="Path" fill="#F47C6F"></path>
                <path d="M118.690247,52.9197692 L118.690247,63.8584442 C118.690247,65.8098908 117.107941,67.3921966 115.156494,67.3921966 L115.006531,67.3921966 C114.406677,67.3921966 113.840469,67.2431947 113.343475,66.9769134 C114.455704,66.3799438 115.209366,65.2071533 115.209366,63.8584442 L115.209366,52.9197692 C115.209366,51.5710602 114.455704,50.399231 113.343475,49.8013002 C113.840469,49.5359801 114.406677,49.386017 115.006531,49.386017 L115.156494,49.386017 C117.107941,49.386017 118.690247,50.9683228 118.690247,52.9197692 L118.690247,52.9197692 Z" id="Path" fill="#F47C6F"></path>
                <path d="M43.0385285,22.1426696 L43.0385285,48.6861879 C43.0385285,51.573944 45.3793031,53.9147186 48.266098,53.9147186 C51.1538543,53.9147186 53.4946289,51.573944 53.4946289,48.6861879 L53.4946289,41.9810944 C53.4946289,39.6153258 55.4133911,37.6965638 57.7801207,37.6965638 C60.1458893,37.6965638 62.0646516,39.6153258 62.0646516,41.9810944 L62.0646516,76.3275146 L85.700226,76.3275146 L85.700226,51.3989868 C85.700226,49.1399232 87.5315095,47.3086395 89.7905731,47.3086395 C92.0496369,47.3086395 93.8809204,49.1399232 93.8809204,51.3989868 L93.8809204,54.9759979 C93.8809204,57.6926423 96.0832673,59.8949889 98.7999114,59.8949889 C101.516556,59.8949889 103.717941,57.6926423 103.717941,54.9759979 L103.717941,22.1426696 L43.0385285,22.1426696 Z" id="Path" fill="#FF998C"></path>
                <path d="M103.719864,22.143631 L103.719864,54.9759979 C103.719864,56.3352814 103.168076,57.5628662 102.279831,58.4539948 C101.388703,59.3422394 100.158234,59.8940276 98.7989502,59.8940276 C98.054901,59.8940276 97.345459,59.7267609 96.7129213,59.4287567 C97.232025,59.1855469 97.703064,58.8538972 98.1029663,58.4539948 C98.9912109,57.5628662 99.5429994,56.3352814 99.5429994,54.9759979 L99.5429994,22.143631 L103.719864,22.143631 Z" id="Path" fill="#F47C6F"></path>
                <polygon id="Path" fill="#67B6A2" points="62.0646516 76.2679137 85.700226 76.2679137 85.700226 92.1649933 62.0646516 92.1649933"></polygon>
            </g>
        </g>
    </g>
</svg>