
<svg width="126px" height="126px" viewBox="0 0 126 126" version="1.1" xmlns="http://www.w3.org/2000/svg" xmlns:xlink="http://www.w3.org/1999/xlink">
    <g id="Page-1" stroke="none" stroke-width="1" fill="none" fill-rule="evenodd">
        <g id="Desktop-HD-Copy-2" transform="translate(-189.000000, -381.000000)" fill-rule="nonzero">
            <g id="Web-development" transform="translate(47.000000, 259.000000)">
                <g id="data" transform="translate(142.000000, 122.000000)">
                    <polygon id="Path" fill="#B5E2EB" points="45.3245086 102.796051 80.5303345 102.796051 80.5303345 117.367493 45.3245086 117.367493"></polygon>
                    <path d="M119.393921,104.836899 L6.46092218,104.836899 C2.8925628,104.836899 -2.84217094e-14,101.944336 -2.84217094e-14,98.3759766 L-2.84217094e-14,6.46092218 C-2.84217094e-14,2.8925628 2.8925628,-2.84217094e-14 6.46092218,-2.84217094e-14 L119.393921,-2.84217094e-14 C122.96228,-2.84217094e-14 125.854843,2.8925628 125.854843,6.46092218 L125.854843,98.3759766 C125.854843,101.944336 122.96228,104.836899 119.393921,104.836899 Z" id="Path" fill="#F7EB92"></path>
                    <path d="M125.855804,6.46188342 L125.855804,98.3759766 C125.855804,101.944336 122.963242,104.836899 119.394882,104.836899 L111.502579,104.836899 C115.070938,104.836899 117.963501,101.944336 117.963501,98.3759766 L117.963501,6.46188342 C117.963501,2.89352405 115.070938,0.000961303711 111.502579,0.000961303711 L119.394882,0.000961303711 C122.963242,0.000961303711 125.855804,2.89352405 125.855804,6.46188342 L125.855804,6.46188342 Z" id="Path" fill="#FAD078"></path>
                    <path d="M125.854843,89.2714691 L0,89.2714691 L0,98.3759766 C0,101.944336 2.8925628,104.836899 6.46092218,104.836899 L119.393921,104.836899 C122.96228,104.836899 125.854843,101.944336 125.854843,98.3759766 L125.854843,89.2714691 Z" id="Path" fill="#E4F2F5"></path>
                    <path d="M125.855804,89.2705078 L125.855804,98.3759766 C125.855804,101.944336 122.963242,104.836899 119.394882,104.836899 L111.502579,104.836899 C115.070938,104.836899 117.963501,101.944336 117.963501,98.3759766 L117.963501,89.2705078 L125.855804,89.2705078 Z" id="Path" fill="#B5E2EB"></path>
                    <path d="M125.999039,22.0407715 L0.140350219,22.0407715 L0.140350219,6.46092218 C0.140350219,2.8925628 3.03291327,0 6.60031116,0 L119.538117,0 C123.106476,0 125.999039,2.8925628 125.999039,6.46092218 L125.999039,22.0407715 Z" id="Path" fill="#E4F2F5"></path>
                    <path d="M126,6.45996094 L126,22.0417327 L117.963501,22.0417327 L117.963501,6.45996094 C117.963501,2.89352405 115.070938,0.000961303711 111.501618,0.000961303711 L119.539078,0.000961303711 C123.107437,0.000961303711 126,2.89352405 126,6.45996094 Z" id="Path" fill="#B5E2EB"></path>
                    <path d="M91.9390869,125.858688 L33.9157562,125.858688 C33.2168883,125.858688 32.6497192,125.291519 32.6497192,124.592651 L32.6497192,120.488846 C32.6497192,117.705872 34.9058991,115.449692 37.6888734,115.449692 L88.1659699,115.449692 C90.948944,115.449692 93.2051238,117.705872 93.2051238,120.488846 L93.2051238,124.592651 C93.2051238,125.291519 92.6379548,125.858688 91.9390869,125.858688 Z" id="Path" fill="#E4F2F5"></path>
                    <path d="M93.2051238,120.487884 L93.2051238,124.593613 C93.2051238,125.29248 92.6379548,125.85965 91.9381257,125.85965 L87.4680633,125.85965 L87.4680633,120.487884 C87.4680633,117.706833 85.2118834,115.449692 82.4308318,115.449692 L88.1678924,115.449692 C90.9499055,115.449692 93.2051238,117.705872 93.2051238,120.487884 L93.2051238,120.487884 Z" id="Path" fill="#B5E2EB"></path>
                    <g id="Group" transform="translate(6.398438, 30.269531)" fill="#323A4F">
                        <path d="M7.99227893,15.6250306 C7.52027899,15.6250306 7.04731757,15.4452668 6.68682861,15.0847778 L0.731552063,9.12854004 C0.0105744023,8.40852362 0.0105744023,7.23957831 0.731552063,6.5186004 L6.68682861,0.563323852 C7.40780627,-0.157653809 8.57675159,-0.157653809 9.29772949,0.563323852 C10.0187074,1.28430176 10.0187074,2.45228583 9.29772949,3.17326349 L4.64694202,7.82405096 L9.29772949,12.4748382 C10.0187074,13.1958161 10.0187074,14.3638002 9.29772949,15.0847778 C8.93724054,15.4452668 8.46427911,15.6250306 7.99227893,15.6250306 Z" id="Path"></path>
                        <path d="M22.2311097,15.6250306 C21.7591096,15.6250306 21.2861481,15.4452668 20.9256592,15.0847778 C20.2046813,14.3638002 20.2046813,13.1948549 20.9256592,12.4748382 L25.5764467,7.82405096 L20.9256592,3.17326349 C20.2046813,2.45228583 20.2046813,1.28334052 20.9256592,0.563323852 C21.6466371,-0.157653809 22.8155824,-0.157653809 23.5365601,0.563323852 L29.4918366,6.5186004 C30.2128143,7.23957831 30.2128143,8.40852362 29.4918366,9.12854004 L23.5365601,15.0847778 C23.1760711,15.4452668 22.7031097,15.6250306 22.2311097,15.6250306 Z" id="Path"></path>
                        <path d="M12.9747161,15.6259919 C12.7497712,15.6259919 12.521942,15.5846558 12.299881,15.4971771 C11.3510742,15.1251527 10.8838805,14.053299 11.2568666,13.1044922 L15.9364928,1.19297784 C16.3094789,0.245132508 17.3813323,-0.223022461 18.3291779,0.149963379 C19.2779847,0.522949219 19.7451782,1.59480292 19.3721924,2.54360974 L14.6925659,14.4541626 C14.4070588,15.1818694 13.7110749,15.6259919 12.9747161,15.6259919 Z" id="Path"></path>
                        <path d="M15.9086151,26.7703857 L3.11174005,26.7703857 C2.09275812,26.7703857 1.26603693,25.9436646 1.26603693,24.9246826 C1.26603693,23.9047394 2.09275812,23.0789795 3.11174005,23.0789795 L15.9086151,23.0789795 C16.9285582,23.0789795 17.7543182,23.9047394 17.7543182,24.9246826 C17.7543182,25.9436646 16.9285582,26.7703857 15.9086151,26.7703857 Z" id="Path"></path>
                        <path d="M45.3841096,26.7703857 L22.8847963,26.7703857 C21.8658141,26.7703857 21.0390931,25.9436646 21.0390931,24.9246826 C21.0390931,23.9047394 21.8658141,23.0789795 22.8847963,23.0789795 L45.3841096,23.0789795 C46.4040527,23.0789795 47.2298127,23.9047394 47.2298127,24.9246826 C47.2298127,25.9436646 46.4040527,26.7703857 45.3841096,26.7703857 Z" id="Path"></path>
                        <path d="M8.56329346,34.781891 L3.11174005,34.781891 C2.09275812,34.781891 1.26603693,33.956131 1.26603693,32.9361879 C1.26603693,31.9172057 2.09275812,31.0904847 3.11174005,31.0904847 L8.56329346,31.0904847 C9.58323663,31.0904847 10.4089966,31.9172057 10.4089966,32.9361879 C10.4089966,33.956131 9.58227539,34.781891 8.56329346,34.781891 Z" id="Path"></path>
                        <path d="M41.7542267,34.781891 L38.4338836,34.781891 C37.4149017,34.781891 36.5881805,33.956131 36.5881805,32.9361879 C36.5881805,31.9172057 37.4149017,31.0904847 38.4338836,31.0904847 L41.7542267,31.0904847 C42.7732087,31.0904847 43.5999299,31.9172057 43.5999299,32.9361879 C43.5999299,33.956131 42.7732087,34.781891 41.7542267,34.781891 Z" id="Path"></path>
                        <path d="M31.5346069,34.781891 L15.2289733,34.781891 C14.2090301,34.781891 13.3832701,33.956131 13.3832701,32.9361879 C13.3832701,31.9172057 14.2090301,31.0904847 15.2289733,31.0904847 L31.5346069,31.0904847 C32.5545501,31.0904847 33.3803101,31.9172057 33.3803101,32.9361879 C33.3803101,33.956131 32.5535889,34.781891 31.5346069,34.781891 Z" id="Path"></path>
                        <path d="M53.9964293,34.781891 L47.7777557,34.781891 C46.7587737,34.781891 45.9320526,33.956131 45.9320526,32.9361879 C45.9320526,31.9172057 46.7587737,31.0904847 47.7777557,31.0904847 L53.9964293,31.0904847 C55.0154115,31.0904847 55.8421324,31.9172057 55.8421324,32.9361879 C55.8421324,33.956131 55.0154115,34.781891 53.9964293,34.781891 Z" id="Path"></path>
                        <path d="M42.0916442,9.29292304 L35.5326691,9.29292304 C34.512726,9.29292304 33.686966,8.46716309 33.686966,7.44721991 C33.686966,6.42823798 34.512726,5.60151679 35.5326691,5.60151679 L42.0916442,5.60151679 C43.1115876,5.60151679 43.9373473,6.42823798 43.9373473,7.44721991 C43.9373473,8.46716309 43.1115876,9.29292304 42.0916442,9.29292304 Z" id="Path"></path>
                        <path d="M89.4560394,9.29292304 L49.436966,9.29292304 C48.4179841,9.29292304 47.5912629,8.46716309 47.5912629,7.44721991 C47.5912629,6.42823798 48.4179841,5.60151679 49.436966,5.60151679 L89.4560394,5.60151679 C90.4750213,5.60151679 91.3017425,6.42823798 91.3017425,7.44721991 C91.3017425,8.46716309 90.4750213,9.29292304 89.4560394,9.29292304 Z" id="Path"></path>
                        <path d="M83.3767547,17.6514586 L67.1672516,17.6514586 C66.1473082,17.6514586 65.3215485,16.8256989 65.3215485,15.8057555 C65.3215485,14.7867738 66.1473082,13.9600524 67.1672516,13.9600524 L83.3767547,13.9600524 C84.3966979,13.9600524 85.2224578,14.7867738 85.2224578,15.8057555 C85.2224578,16.8256989 84.3966979,17.6514586 83.3767547,17.6514586 Z" id="Path"></path>
                        <path d="M61.087967,17.6514586 L55.5152894,17.6514586 C54.4963073,17.6514586 53.6695863,16.8256989 53.6695863,15.8057555 C53.6695863,14.7867738 54.4963073,13.9600524 55.5152894,13.9600524 L61.087967,13.9600524 C62.1079102,13.9600524 62.9336701,14.7867738 62.9336701,15.8057555 C62.9336701,16.8256989 62.1079102,17.6514586 61.087967,17.6514586 Z" id="Path"></path>
                        <path d="M49.1841431,17.6514586 L35.5317076,17.6514586 C34.512726,17.6514586 33.6860045,16.8256989 33.6860045,15.8057555 C33.6860045,14.7867738 34.512726,13.9600524 35.5317076,13.9600524 L49.1841431,13.9600524 C50.203125,13.9600524 51.0298462,14.7867738 51.0298462,15.8057555 C51.0298462,16.8256989 50.203125,17.6514586 49.1841431,17.6514586 Z" id="Path"></path>
                        <path d="M31.5586395,42.7270661 L18.7617645,42.7270661 C17.7418213,42.7270661 16.9160613,41.9003449 16.9160613,40.881363 C16.9160613,39.8614196 17.7418213,39.0356599 18.7617645,39.0356599 L31.5586395,39.0356599 C32.5785826,39.0356599 33.4043426,39.8614196 33.4043426,40.881363 C33.4043426,41.9003449 32.5785826,42.7270661 31.5586395,42.7270661 Z" id="Path"></path>
                        <path d="M12.9439544,42.7270661 L3.11174005,42.7270661 C2.09275812,42.7270661 1.26603693,41.9003449 1.26603693,40.881363 C1.26603693,39.8614196 2.09275812,39.0356599 3.11174005,39.0356599 L12.9439544,39.0356599 C13.9629363,39.0356599 14.7896575,39.8614196 14.7896575,40.881363 C14.7896575,41.9003449 13.9629363,42.7270661 12.9439544,42.7270661 Z" id="Path"></path>
                        <path d="M54.7558594,42.7270661 L38.0397492,42.7270661 C37.019806,42.7270661 36.1940461,41.9003449 36.1940461,40.881363 C36.1940461,39.8614196 37.019806,39.0356599 38.0397492,39.0356599 L54.7558594,39.0356599 C55.7758026,39.0356599 56.6015625,39.8614196 56.6015625,40.881363 C56.6015625,41.9003449 55.7758026,42.7270661 54.7558594,42.7270661 Z" id="Path"></path>
                    </g>
                    <polygon id="Path" fill="#B5E2EB" points="73.0071715 64.8187866 114.142319 64.8187866 114.142319 78.7490388 73.0071715 78.7490388"></polygon>
                    <polygon id="Path" fill="#B5E2EB" points="73.0071715 86.3471833 114.142319 86.3471833 114.142319 99.2651824 73.0071715 99.2651824"></polygon>
                    <polygon id="Path" fill="#BCD9E0" points="109.278122 64.8187866 114.142319 64.8187866 114.142319 78.7490388 109.278122 78.7490388"></polygon>
                    <polygon id="Path" fill="#BCD9E0" points="109.278122 86.3471833 114.142319 86.3471833 114.142319 99.2651824 109.278122 99.2651824"></polygon>
                    <path d="M117.548218,67.8449707 L69.6012726,67.8449707 C68.5870972,67.8449707 67.7651824,67.023056 67.7651824,66.0088805 L67.7651824,56.7765199 C67.7651824,55.7623444 68.5870972,54.9404297 69.6012726,54.9404297 L117.548218,54.9404297 C118.562393,54.9404297 119.384308,55.7623444 119.384308,56.7765199 L119.384308,66.0088805 C119.384308,67.023056 118.562393,67.8449707 117.548218,67.8449707 Z" id="Path" fill="#85C6D2"></path>
                    <path d="M117.548218,88.5466462 L69.6012726,88.5466462 C68.5870972,88.5466462 67.7651824,87.7247314 67.7651824,86.710556 L67.7651824,77.4781951 C67.7651824,76.4640199 68.5870972,75.6421052 69.6012726,75.6421052 L117.548218,75.6421052 C118.562393,75.6421052 119.384308,76.4640199 119.384308,77.4781951 L119.384308,86.710556 C119.384308,87.7247314 118.562393,88.5466462 117.548218,88.5466462 Z" id="Path" fill="#85C6D2"></path>
                    <path d="M117.548218,109.248322 L69.6012726,109.248322 C68.5870972,109.248322 67.7651824,108.426407 67.7651824,107.412231 L67.7651824,98.1798706 C67.7651824,97.1656951 68.5870972,96.3437806 69.6012726,96.3437806 L117.548218,96.3437806 C118.562393,96.3437806 119.384308,97.1656951 119.384308,98.1798706 L119.384308,107.412231 C119.384308,108.426407 118.562393,109.248322 117.548218,109.248322 Z" id="Path" fill="#85C6D2"></path>
                    <path d="M119.384308,56.7765199 L119.384308,66.0088805 C119.384308,67.0220947 118.563354,67.8449707 117.548218,67.8449707 L113.28772,67.8449707 C114.303818,67.8449707 115.12381,67.0220947 115.12381,66.0088805 L115.12381,56.7765199 C115.12381,55.7633057 114.303818,54.9404297 113.28772,54.9404297 L117.548218,54.9404297 C118.563354,54.9404297 119.384308,55.7633057 119.384308,56.7765199 Z" id="Path" fill="#579FAD"></path>
                    <path d="M119.384308,77.4772339 L119.384308,86.7095947 C119.384308,87.7256927 118.563354,88.5466462 117.548218,88.5466462 L113.28772,88.5466462 C114.303818,88.5466462 115.12381,87.7256927 115.12381,86.7095947 L115.12381,77.4772339 C115.12381,76.4640199 114.303818,75.6411439 113.28772,75.6411439 L117.548218,75.6411439 C118.563354,75.6411439 119.384308,76.4640199 119.384308,77.4772339 Z" id="Path" fill="#579FAD"></path>
                    <path d="M119.384308,98.1808318 L119.384308,107.413193 C119.384308,108.426407 118.563354,109.249283 117.548218,109.249283 L113.28772,109.249283 C114.303818,109.249283 115.12381,108.426407 115.12381,107.413193 L115.12381,98.1808318 C115.12381,97.1656951 114.303818,96.3447419 113.28772,96.3447419 L117.548218,96.3447419 C118.563354,96.3447419 119.384308,97.1656951 119.384308,98.1808318 Z" id="Path" fill="#579FAD"></path>
                    <path d="M83.7612762,63.2384033 L74.6202393,63.2384033 C73.6012573,63.2384033 72.7745361,62.4126434 72.7745361,61.3927002 C72.7745361,60.3737183 73.6012573,59.5469971 74.6202393,59.5469971 L83.7622377,59.5469971 C84.7812194,59.5469971 85.6079408,60.3737183 85.6079408,61.3927002 C85.6079408,62.4126434 84.7812194,63.2384033 83.7612762,63.2384033 Z" id="Path" fill="#E4F2F5"></path>
                    <path d="M112.529251,63.2384033 L99.6237487,63.2384033 C98.604767,63.2384033 97.7780455,62.4126434 97.7780455,61.3927002 C97.7780455,60.3737183 98.604767,59.5469971 99.6237487,59.5469971 L112.52829,59.5469971 C113.548233,59.5469971 114.373993,60.3737183 114.373993,61.3927002 C114.373993,62.4126434 113.548233,63.2384033 112.529251,63.2384033 L112.529251,63.2384033 Z" id="Path" fill="#E4F2F5"></path>
                    <path d="M93.1714781,63.2384033 L90.2135467,63.2384033 C89.1945648,63.2384033 88.3678436,62.4126434 88.3678436,61.3927002 C88.3678436,60.3737183 89.1945648,59.5469971 90.2135467,59.5469971 L93.1714781,59.5469971 C94.1914216,59.5469971 95.0171813,60.3737183 95.0171813,61.3927002 C95.0171813,62.4126434 94.1904603,63.2384033 93.1714781,63.2384033 L93.1714781,63.2384033 Z" id="Path" fill="#E4F2F5"></path>
                    <path d="M83.7612762,83.9400788 L74.6202393,83.9400788 C73.6012573,83.9400788 72.7745361,83.1143188 72.7745361,82.0943757 C72.7745361,81.0753937 73.6012573,80.2486725 74.6202393,80.2486725 L83.7622377,80.2486725 C84.7812194,80.2486725 85.6079408,81.0753937 85.6079408,82.0943757 C85.6079408,83.1143188 84.7812194,83.9400788 83.7612762,83.9400788 Z" id="Path" fill="#E4F2F5"></path>
                    <path d="M112.529251,83.9400788 L99.6237487,83.9400788 C98.604767,83.9400788 97.7780455,83.1143188 97.7780455,82.0943757 C97.7780455,81.0753937 98.604767,80.2486725 99.6237487,80.2486725 L112.52829,80.2486725 C113.548233,80.2486725 114.373993,81.0753937 114.373993,82.0943757 C114.373993,83.1143188 113.548233,83.9400788 112.529251,83.9400788 L112.529251,83.9400788 Z" id="Path" fill="#E4F2F5"></path>
                    <path d="M93.1714781,83.9400788 L90.2135467,83.9400788 C89.1945648,83.9400788 88.3678436,83.1143188 88.3678436,82.0943757 C88.3678436,81.0753937 89.1945648,80.2486725 90.2135467,80.2486725 L93.1714781,80.2486725 C94.1914216,80.2486725 95.0171813,81.0753937 95.0171813,82.0943757 C95.0171813,83.1143188 94.1904603,83.9400788 93.1714781,83.9400788 L93.1714781,83.9400788 Z" id="Path" fill="#E4F2F5"></path>
                    <path d="M83.7612762,104.641754 L74.6202393,104.641754 C73.6012573,104.641754 72.7745361,103.815033 72.7745361,102.796051 C72.7745361,101.777069 73.6012573,100.950348 74.6202393,100.950348 L83.7622377,100.950348 C84.7812194,100.950348 85.6079408,101.777069 85.6079408,102.796051 C85.6079408,103.815033 84.7812194,104.641754 83.7612762,104.641754 Z" id="Path" fill="#E4F2F5"></path>
                    <path d="M112.529251,104.641754 L99.6237487,104.641754 C98.604767,104.641754 97.7780455,103.815033 97.7780455,102.796051 C97.7780455,101.777069 98.604767,100.950348 99.6237487,100.950348 L112.52829,100.950348 C113.548233,100.950348 114.373993,101.777069 114.373993,102.796051 C114.373993,103.815033 113.548233,104.641754 112.529251,104.641754 L112.529251,104.641754 Z" id="Path" fill="#E4F2F5"></path>
                    <path d="M93.1714781,104.641754 L90.2135467,104.641754 C89.1945648,104.641754 88.3678436,103.815033 88.3678436,102.796051 C88.3678436,101.777069 89.1945648,100.950348 90.2135467,100.950348 L93.1714781,100.950348 C94.1914216,100.950348 95.0171813,101.777069 95.0171813,102.796051 C95.0171813,103.815033 94.1904603,104.641754 93.1714781,104.641754 L93.1714781,104.641754 Z" id="Path" fill="#E4F2F5"></path>
                    <path d="M15.7855682,10.9665527 C15.7855682,12.9968262 14.1398162,14.6416169 12.1105043,14.6416169 C10.0802308,14.6416169 8.43447888,12.9968262 8.43447888,10.9665527 C8.43447888,8.93724054 10.0802308,7.29148859 12.1105043,7.29148859 C14.1398162,7.29148859 15.7855682,8.93724054 15.7855682,10.9665527 Z" id="Path" fill="#FF998C"></path>
                    <path d="M29.9782562,10.9665527 C29.9782562,12.9968262 28.3334655,14.6416169 26.303192,14.6416169 C24.2738801,14.6416169 22.6281281,12.9968262 22.6281281,10.9665527 C22.6281281,8.93724054 24.2738801,7.29148859 26.303192,7.29148859 C28.3334655,7.29148859 29.9782562,8.93724054 29.9782562,10.9665527 Z" id="Path" fill="#F7EB92"></path>
                    <path d="M44.1719056,10.9665527 C44.1719056,12.9968262 42.5261537,14.6416169 40.4968415,14.6416169 C38.4665681,14.6416169 36.8217773,12.9968262 36.8217773,10.9665527 C36.8217773,8.93724054 38.4665681,7.29148859 40.4968415,7.29148859 C42.5261537,7.29148859 44.1719056,8.93724054 44.1719056,10.9665527 Z" id="Path" fill="#67B6A2"></path>
                    <path d="M15.7836457,10.967514 C15.7836457,12.9968262 14.1398162,14.6406556 12.1114655,14.6406556 C11.1280518,14.6406556 10.2340394,14.2551727 9.5755462,13.6245574 C11.5635223,13.5812988 13.1650544,11.9557342 13.1650544,9.95429999 C13.1650544,8.90647882 12.7266999,7.96343994 12.0249481,7.2953338 C12.0528258,7.29244983 12.0835875,7.29244983 12.1114655,7.29244983 C14.1398162,7.29244983 15.7836457,8.9362793 15.7836457,10.967514 Z" id="Path" fill="#F47C6F"></path>
                    <path d="M29.9772949,10.967514 C29.9772949,12.9968262 28.3334655,14.6406556 26.3022308,14.6406556 C25.3197785,14.6406556 24.4286499,14.2551727 23.7672729,13.6245574 C25.758133,13.5812988 27.3587036,11.9557342 27.3587036,9.95429999 C27.3587036,8.90647882 26.9203491,7.96343994 26.2195588,7.2953338 C26.2464753,7.29244983 26.274353,7.29244983 26.303192,7.29244983 C28.3344269,7.29244983 29.9772949,8.9362793 29.9772949,10.967514 Z" id="Path" fill="#FAD078"></path>
                    <path d="M44.1719056,10.967514 C44.1719056,12.9968262 42.5251922,14.6406556 40.4968415,14.6406556 C39.5134277,14.6406556 38.6222991,14.2551727 37.9609222,13.6245574 C39.9517822,13.5812988 41.5504304,11.9557342 41.5504304,9.95429999 C41.5504304,8.90647882 41.1120759,7.96343994 40.410324,7.2953338 C40.4382018,7.29244983 40.4689635,7.29244983 40.4968415,7.29244983 C42.5251922,7.29244983 44.1719056,8.9362793 44.1719056,10.967514 Z" id="Path" fill="#009184"></path>
                </g>
            </g>
        </g>
    </g>
</svg>