<?xml version="1.0" encoding="UTF-8"?>
<svg width="274px" height="201px" viewBox="0 0 274 201" version="1.1" xmlns="http://www.w3.org/2000/svg" xmlns:xlink="http://www.w3.org/1999/xlink">
    <!-- Generator: Sketch 52.5 (67469) - http://www.bohemiancoding.com/sketch -->
    <title>Untitled 2</title>
    <desc>Created with Sketch.</desc>
    <defs>
        <linearGradient x1="51.1342926%" y1="126.882605%" x2="49.6235012%" y2="3.2168359%" id="linearGradient-1">
            <stop stop-color="#4A536C" offset="0%"></stop>
            <stop stop-color="#697494" offset="100%"></stop>
        </linearGradient>
    </defs>
    <g id="Page-1" stroke="none" stroke-width="1" fill="none" fill-rule="evenodd">
        <g id="Asset-4">
            <polygon id="Path" fill="#697494" points="195.82 123.98 129.99 123.98 129.99 75.2 144.01 75.2 195.82 75.2"></polygon>
            <path d="M138.78,113.99 L187.04,113.99" id="Path" stroke="#FFFFFF" stroke-width="1.93" stroke-linecap="round" stroke-linejoin="round"></path>
            <path d="M142.35,81.68 L142.35,117.5" id="Path" stroke="#FFFFFF" stroke-width="1.93" stroke-linecap="round" stroke-linejoin="round"></path>
            <path d="M149.31,106.48 C152.08,100.06 155.87,96.21 159.94,96.21 C164.74,96.21 165.42,102.11 172.4,102.11 C179.88,102.11 183.48,87.5 183.48,87.5" id="Path" stroke="#FFFFFF" stroke-width="1.93" stroke-linecap="round" stroke-linejoin="round"></path>
            <path d="M105.28,0 L72.43,14.45 C72.43,14.45 72.43,63.95 105.32,79.91 C138.17,63.91 138.15,14.42 138.15,14.42 L105.28,0 Z" id="Path" fill="#B5E2EB"></path>
            <path d="M113.54,29.37 C113.645049,26.3522507 112.095034,23.5176718 109.49769,21.9776544 C106.900347,20.437637 103.669653,20.437637 101.07231,21.9776544 C98.4749663,23.5176718 96.9249514,26.3522507 97.03,29.37 L94.86,29.37 L94.86,50.54 L115.71,50.54 L115.71,29.37 L113.54,29.37 Z M100.42,29.37 C100.42,26.6803733 102.600373,24.5 105.29,24.5 C107.979627,24.5 110.16,26.6803733 110.16,29.37 L100.42,29.37 Z" id="Shape" fill="url(#linearGradient-1)" fill-rule="nonzero"></path>
            <path d="M116.17,8.1 L106.56,3.88 L73.71,18.33 C73.71,18.33 73.71,67.83 106.59,83.78 C139.45,67.78 139.42,18.3 139.42,18.3 L130.62,14.44" id="Path" stroke="#4A536B" stroke-width="1.93" stroke-linecap="round" stroke-linejoin="round"></path>
            <rect id="Rectangle" fill="#AEDCC8" x="115.54" y="147.65" width="70.12" height="48.32" rx="5.57"></rect>
            <path d="M151.45,151.3 L182.54,151.3 C186.269543,151.299996 189.294483,154.320461 189.3,158.05 L189.3,192.86 C189.294483,196.589539 186.269543,199.610004 182.54,199.61 L125.94,199.61 C122.210457,199.610004 119.185517,196.589539 119.18,192.86 L119.18,158.05 C119.185517,154.320461 122.210457,151.299996 125.94,151.3 L138.45,151.3" id="Path" stroke="#4A536B" stroke-width="1.93" stroke-linecap="round" stroke-linejoin="round"></path>
            <polygon id="Path" stroke="#FFFFFF" stroke-width="1.93" stroke-linecap="round" stroke-linejoin="round" points="141.99 183.38 141.99 160.25 163.54 171.81"></polygon>
            <path d="M37.76,43.71 C37.7640452,49.8263775 34.0827413,55.3427465 28.433106,57.6861864 C22.7834706,60.0296262 16.2784495,58.7384927 11.9520861,54.4149906 C7.62572265,50.0914886 6.33028573,43.5873231 8.66998731,37.9361386 C11.0096889,32.284954 16.5236211,28.6000013 22.64,28.6 C30.9866417,28.5999982 37.7544797,35.3633601 37.76,43.71" id="Path" stroke="#4A536B" stroke-width="1.93" stroke-linecap="round" stroke-linejoin="round"></path>
            <path d="M18,32.29 C22.4735531,28.4283265 28.7869409,27.5269545 34.1624086,29.9824681 C39.5378762,32.4379817 42.9900314,37.8002538 43,43.71" id="Path" stroke="#4A536B" stroke-width="1.93" stroke-linecap="round" stroke-linejoin="round"></path>
            <path d="M43,43.71 C43.0117809,50.6941401 38.2384794,56.7775559 31.4520235,58.4275161 C24.6655676,60.0774763 17.6320978,56.8645872 14.4360558,50.654622 C11.2400138,44.4446568 12.7131533,36.853727 18,32.29" id="Path" stroke="#4A536B" stroke-width="1.93" stroke-linecap="round" stroke-linejoin="round"></path>
            <rect id="Rectangle" fill="#FACA67" x="0" y="43.71" width="53.08" height="50.48"></rect>
            <path d="M10.06,65.12 L43.02,65.12" id="Path" stroke="#FFFFFF" stroke-width="1.93" stroke-linecap="round" stroke-linejoin="round"></path>
            <path d="M18.58,71.41 L34.5,71.41" id="Path" stroke="#FFFFFF" stroke-width="1.93" stroke-linecap="round" stroke-linejoin="round"></path>
            <path d="M93.63,161.34 L43.63,161.34 C41.7301405,161.34 40.19,159.79986 40.19,157.9 L40.19,112 C40.19,110.10014 41.7301405,108.56 43.63,108.56 L93.63,108.56 C95.5298595,108.56 97.07,110.10014 97.07,112 L97.07,157.9 C97.07,159.79986 95.5298595,161.34 93.63,161.34 Z" id="Path" fill="#FF998C"></path>
            <rect id="Rectangle" fill="#FF998C" x="47.64" y="105.08" width="6.51" height="6.51" rx="0.9"></rect>
            <rect id="Rectangle" fill="#FF998C" x="83.86" y="105.08" width="6.51" height="6.51" rx="0.9"></rect>
            <rect id="Rectangle" fill="#FFFFFF" x="43.37" y="121.54" width="50.57" height="36.49"></rect>
            <rect id="Rectangle" fill="#4A536B" x="59.3" y="128.07" width="6.27" height="6.27" rx="1"></rect>
            <rect id="Rectangle" fill="#4A536B" x="70.07" y="128.07" width="6.27" height="6.27" rx="1"></rect>
            <rect id="Rectangle" fill="#4A536B" x="80.85" y="128.07" width="6.27" height="6.27" rx="1"></rect>
            <rect id="Rectangle" fill="#4A536B" x="48.53" y="137.96" width="6.27" height="6.27" rx="1"></rect>
            <rect id="Rectangle" fill="#4A536B" x="59.3" y="137.96" width="6.27" height="6.27" rx="1"></rect>
            <rect id="Rectangle" fill="#4A536B" x="70.07" y="137.96" width="6.27" height="6.27" rx="1"></rect>
            <rect id="Rectangle" fill="#4A536B" x="80.85" y="137.96" width="6.27" height="6.27" rx="1"></rect>
            <rect id="Rectangle" fill="#4A536B" x="48.53" y="147.84" width="6.27" height="6.27" rx="1"></rect>
            <rect id="Rectangle" fill="#4A536B" x="59.3" y="147.84" width="6.27" height="6.27" rx="1"></rect>
            <rect id="Rectangle" fill="#4A536B" x="70.07" y="147.84" width="6.27" height="6.27" rx="1"></rect>
            <polygon id="Path" fill="#B6D1F0" points="273.49 160 211.57 160 211.57 102.45 224.75 102.45 273.49 102.45"></polygon>
            <polygon id="Path" fill="#FFFFFF" points="265.75 152.8 219.31 152.8 219.31 109.64 229.2 109.64 265.75 109.64"></polygon>
            <path d="M245.71,144.5 L259.55,144.5 L249.03,127.5 C248.771697,127.079441 248.313549,126.823169 247.82,126.823169 C247.326451,126.823169 246.868303,127.079441 246.61,127.5 L239.56,138.89 L236.12,133.33 C235.858175,132.914297 235.401285,132.662102 234.91,132.662102 C234.418715,132.662102 233.961825,132.914297 233.7,133.33 L226.79,144.49 L245.71,144.49" id="Path" stroke="#4A536B" stroke-width="1.93" stroke-linecap="round" stroke-linejoin="round"></path>
            <path d="M234.63,128 C236.965664,128.401403 239.292437,127.244541 240.382176,125.140041 C241.471915,123.035541 241.073838,120.467714 239.398062,118.791938 C237.722286,117.116162 235.154459,116.718085 233.049959,117.807824 C230.945459,118.897563 229.788597,121.224336 230.19,123.56 C230.580287,125.83098 232.35902,127.609713 234.63,128 Z" id="Path" stroke="#4A536B" stroke-width="1.93" stroke-linecap="round" stroke-linejoin="round"></path>
            <path d="M240.39,6.42 L185.39,6.42 C176.912429,6.42 170.04,13.2924291 170.04,21.77 L170.04,33.3 C170.04,41.7775709 176.912429,48.65 185.39,48.65 L189.39,48.65 L189.39,63.71 L206.17,48.65 L240.34,48.65 C244.419729,48.6632891 248.336919,47.0519301 251.226426,44.1718051 C254.115932,41.2916801 255.740022,37.379751 255.74,33.3 L255.74,21.77 C255.74,17.6989269 254.122773,13.7945943 251.244089,10.9159109 C248.365406,8.0372275 244.461073,6.42 240.39,6.42 Z" id="Path" fill="#A3A6FA"></path>
            <path d="M243.65,8.6 L188.65,8.6 C184.57545,8.60794166 180.671235,10.2355438 177.7976,13.1241843 C174.923966,16.0128248 173.31672,19.925464 173.33,24 L173.33,35.48 C173.33,43.9575709 180.202429,50.83 188.68,50.83 L192.68,50.83 L192.68,65.89 L209.45,50.83 L243.62,50.83 C247.696269,50.8379667 251.608313,49.2242568 254.493488,46.3447095 C257.378663,43.4651621 259.000008,39.5562763 259,35.48 L259,24 C259.013289,19.9202706 257.40193,16.0030807 254.521805,13.1135742 C251.64168,10.2240676 247.729751,8.59997836 243.65,8.6 Z" id="Path" stroke="#4A536B" stroke-width="1.93" stroke-linecap="round" stroke-linejoin="round"></path>
            <circle id="Oval" fill="#FFFFFF" cx="193.34" cy="27.54" r="4.46"></circle>
            <circle id="Oval" fill="#FFFFFF" cx="211.43" cy="27.54" r="4.46"></circle>
            <circle id="Oval" fill="#FFFFFF" cx="230.46" cy="27.54" r="4.46"></circle>
        </g>
    </g>
</svg>