<?xml version="1.0" encoding="UTF-8"?>
<svg width="267px" height="209px" viewBox="0 0 267 209" version="1.1" xmlns="http://www.w3.org/2000/svg" xmlns:xlink="http://www.w3.org/1999/xlink">
    <!-- Generator: Sketch 52.5 (67469) - http://www.bohemiancoding.com/sketch -->
    <title>Untitled 2</title>
    <desc>Created with Sketch.</desc>
    <defs>
        <linearGradient x1="23.9539591%" y1="-10.7915308%" x2="68.549618%" y2="89.785309%" id="linearGradient-1">
            <stop stop-color="#BEC7D1" offset="0%"></stop>
            <stop stop-color="#969EA6" offset="88%"></stop>
        </linearGradient>
    </defs>
    <g id="Page-1" stroke="none" stroke-width="1" fill="none" fill-rule="evenodd">
        <g id="Asset-1">
            <path d="M52.51,38.51 C40.7463348,38.51 31.21,48.0463348 31.21,59.81 L31.21,137.34 C31.215521,149.09976 40.750239,158.630001 52.51,158.63 L97.08,158.63 L143.08,38.51 L52.51,38.51 Z" id="Path" fill="#DEE7ED"></path>
            <path d="M197,38.51 L152.37,38.51 L106.37,158.63 L197,158.63 C208.758142,158.63 218.29,149.098142 218.29,137.34 L218.29,59.81 C218.290001,48.050239 208.75976,38.515521 197,38.51 Z" id="Path" fill="#DEE7ED"></path>
            <path d="M52.51,38.51 C40.7463348,38.51 31.21,48.0463348 31.21,59.81 L31.21,137.34 C31.215521,149.09976 40.750239,158.630001 52.51,158.63 L97.08,158.63 L143.08,38.51 L52.51,38.51 Z" id="Path" fill="#697494"></path>
            <path d="M197,38.51 L152.37,38.51 L106.37,158.63 L197,158.63 C208.758142,158.63 218.29,149.098142 218.29,137.34 L218.29,59.81 C218.290001,48.050239 208.75976,38.515521 197,38.51 Z" id="Path" fill="#FFFFFF"></path>
            <path d="M136.53,55.63 L143.08,38.51 L52.51,38.51 C42.3599286,38.5127749 33.6218916,45.6772956 31.63,55.63 L136.53,55.63 Z" id="Path" fill="#FFFFFF" opacity="0.8"></path>
            <path d="M217.83,55.63 C215.838288,45.6978151 207.129871,38.5404409 197,38.51 L152.37,38.51 L145.82,55.63 L217.83,55.63 Z" id="Path" fill="#697494"></path>
            <circle id="Oval" fill="#697494" cx="55.81" cy="47.07" r="3.19"></circle>
            <circle id="Oval" fill="#697494" cx="68.11" cy="47.07" r="3.19"></circle>
            <circle id="Oval" fill="#697494" cx="80.41" cy="47.07" r="3.19"></circle>
            <path d="M55.81,88.72 L83.56,88.72" id="Path" stroke="#FFFFFF" stroke-width="1.93" stroke-linecap="round" stroke-linejoin="round"></path>
            <path d="M90.88,88.72 L113.3,88.72" id="Path" stroke="#FFFFFF" stroke-width="1.93" stroke-linecap="round" stroke-linejoin="round"></path>
            <path d="M55.81,102.81 L95.11,102.81" id="Path" stroke="#FFFFFF" stroke-width="1.93" stroke-linecap="round" stroke-linejoin="round"></path>
            <path d="M55.81,74.62 L97.6,74.62" id="Path" stroke="#FFFFFF" stroke-width="1.93" stroke-linecap="round" stroke-linejoin="round"></path>
            <path d="M55.81,116.9 L63.56,116.9" id="Path" stroke="#FFFFFF" stroke-width="1.93" stroke-linecap="round" stroke-linejoin="round"></path>
            <path d="M55.81,130.99 L71.3,130.99" id="Path" stroke="#FFFFFF" stroke-width="1.93" stroke-linecap="round" stroke-linejoin="round"></path>
            <circle id="Oval" fill="#AEDCC8" cx="35.18" cy="163" r="35.18"></circle>
            <circle id="Oval" stroke="#4A536B" stroke-width="1.93" stroke-linecap="round" stroke-linejoin="round" cx="37.83" cy="167" r="35.18"></circle>
            <path d="M55.4,163.18 L54.57,163.18 C54.6098819,162.891714 54.629929,162.601031 54.63,162.31 C54.63,158.405347 51.4646532,155.24 47.56,155.24 C46.9694204,155.2443 46.3816345,155.321552 45.81,155.47 C44.9394561,149.724815 39.8231571,145.597232 34.0238188,145.96148 C28.2244805,146.325727 23.6648461,151.06104 23.52,156.87 C23.0219856,156.777409 22.5165483,156.730547 22.01,156.73 C17.3990003,156.88767 13.742532,160.671305 13.742532,165.285 C13.742532,169.898695 17.3990003,173.68233 22.01,173.84 L55.4,173.84 C57.3042257,173.84 59.0638028,172.824108 60.0159157,171.175 C60.9680285,169.525892 60.9680285,167.494108 60.0159157,165.845 C59.0638028,164.195892 57.3042257,163.18 55.4,163.18 Z" id="Path" fill="#FFFFFF"></path>
            <path d="M71.3,116.9 L87.35,116.9" id="Path" stroke="#FFFFFF" stroke-width="1.93" stroke-linecap="round" stroke-linejoin="round"></path>
            <path d="M219.55,197.2 L197.69,194.4 C197.69,194.4 194.05,162.4 190.47,146.49 C190.23129,145.43062 190.624363,144.32852 191.479592,143.659303 C192.334821,142.990087 193.499103,142.873556 194.47,143.36 C209.05,150.66 239.24,161.88 239.24,161.88 L236.71,183.78" id="Path" fill="url(#linearGradient-1)"></path>
            <path d="M203.56,190.65 C203.56,190.65 190,144.17 190.47,146.49 C194.05,162.39 197.69,194.4 197.69,194.4 L219.55,197.2 L224.49,193.34 L203.56,190.65 Z" id="Path" fill="#000000" opacity="0.1"></path>
            <rect id="Rectangle" fill="#89C3E8" transform="translate(229.334374, 192.032757) rotate(141.950000) translate(-229.334374, -192.032757) " x="212.524374" y="188.727757" width="33.62" height="6.61" rx="1.9"></rect>
            <rect id="Rectangle" fill="#89C3E8" transform="translate(233.964795, 197.964712) rotate(141.950000) translate(-233.964795, -197.964712) " x="222.924795" y="193.754712" width="22.08" height="8.42"></rect>
            <polygon id="Path" fill="#000000" opacity="0.1" points="222.68 201.43 240.06 187.82 240.63 188.54 225.62 205.19"></polygon>
            <circle id="Oval" fill="#FFFFFF" cx="211.99" cy="169.86" r="4.59"></circle>
            <rect id="Rectangle" fill="#FFFFFF" transform="translate(219.417475, 179.366817) rotate(141.950000) translate(-219.417475, -179.366817) " x="217.942475" y="166.581817" width="2.95" height="25.57"></rect>
            <rect id="Rectangle" fill="#FF998C" x="149.25" y="67.27" width="53.61" height="50.48"></rect>
            <path d="M149.25,127.44 L202.86,127.44" id="Path" stroke="#4A536B" stroke-width="1.93" stroke-linecap="round" stroke-linejoin="round"></path>
            <path d="M149.25,135.85 L202.86,135.85" id="Path" stroke="#4A536B" stroke-width="1.93" stroke-linecap="round" stroke-linejoin="round"></path>
            <path d="M149.25,144.27 L180.75,144.27" id="Path" stroke="#4A536B" stroke-width="1.93" stroke-linecap="round" stroke-linejoin="round"></path>
            <rect id="Rectangle" fill="#B5E2EB" x="188.99" y="3.82" width="72.72" height="72.72"></rect>
            <rect id="Rectangle" stroke="#4A536B" stroke-width="1.93" stroke-linecap="round" stroke-linejoin="round" x="192.39" y="0.97" width="72.72" height="72.72"></rect>
            <rect id="Rectangle" fill="#4A536C" x="210.22" y="21.92" width="30.26" height="8.65" rx="3"></rect>
            <circle id="Oval" fill="#FFFFFF" cx="234.66" cy="26.24" r="1.43"></circle>
            <rect id="Rectangle" fill="#4A536C" x="210.22" y="32.63" width="30.26" height="8.65" rx="3"></rect>
            <circle id="Oval" fill="#FFFFFF" cx="234.66" cy="36.95" r="1.43"></circle>
            <rect id="Rectangle" fill="#4A536C" x="210.22" y="43.34" width="30.26" height="8.65" rx="3"></rect>
            <circle id="Oval" fill="#FFFFFF" cx="234.66" cy="47.66" r="1.43"></circle>
            <path d="M202.23,58.44 L248.47,58.44" id="Path" stroke="#4A536B" stroke-width="1.93" stroke-linecap="round" stroke-linejoin="round"></path>
            <path d="M225.35,58.44 L225.35,47.66" id="Path" stroke="#4A536B" stroke-width="1.93" stroke-linecap="round" stroke-linejoin="round"></path>
            <path d="M191.72,105.37 L160.39,105.37 C159.941684,105.36527 159.532084,105.115024 159.323271,104.718279 C159.114458,104.321533 159.14008,103.842223 159.39,103.47 L175.05,80.2 C175.275359,79.8691973 175.649729,79.6712489 176.05,79.6712489 C176.450271,79.6712489 176.824641,79.8691973 177.05,80.2 L192.72,103.47 C192.96992,103.842223 192.995542,104.321533 192.786729,104.718279 C192.577916,105.115024 192.168316,105.36527 191.72,105.37 Z" id="Path" stroke="#4A536B" stroke-width="1.93" stroke-linecap="round" stroke-linejoin="round"></path>
        </g>
    </g>
</svg>