<svg xmlns="http://www.w3.org/2000/svg" xmlns:xlink="http://www.w3.org/1999/xlink" viewBox="0 0 273.49 200.58"><defs><style>.cls-1{fill:#e4f2f5;}.cls-2{fill:#697494;}.cls-3,.cls-6{fill:none;stroke-linecap:round;stroke-linejoin:round;stroke-width:1.93px;}.cls-3{stroke:#fff;}.cls-4{fill:#b5e2eb;}.cls-5{fill:url(#linear-gradient);}.cls-6{stroke:#4a536b;}.cls-7{fill:#aedcc8;}.cls-8{fill:#faca67;}.cls-9{fill:#ff998c;}.cls-10{fill:#fff;}.cls-11{fill:#4a536b;}.cls-12{fill:#b6d1f0;}.cls-13{fill:#a3a6fa;}</style><linearGradient id="linear-gradient" x1="65.83" y1="89.98" x2="65.53" y2="55.31" gradientTransform="matrix(1.05, 0, 0, 1.06, 36.4, -36.85)" gradientUnits="userSpaceOnUse"><stop offset="0" stop-color="#4a536c"/><stop offset="1" stop-color="#697494"/></linearGradient></defs><title>Asset 4</title><g id="Layer_2" data-name="Layer 2"><g id="Layer_1-2" data-name="Layer 1"><path class="cls-1" d="M177.21,14.61c71.17,3.36,82,74.34,66,111.6C206.12,212.22,15.28,183.24,29,97,37.91,41.25,122,12,177.21,14.61Z"/><polygon class="cls-2" points="195.82 123.98 129.99 123.98 129.99 75.2 144.01 75.2 195.82 75.2 195.82 123.98"/><line class="cls-3" x1="138.78" y1="113.99" x2="187.04" y2="113.99"/><line class="cls-3" x1="142.35" y1="81.68" x2="142.35" y2="117.5"/><path class="cls-3" d="M149.31,106.48c2.77-6.42,6.56-10.27,10.63-10.27,4.8,0,5.48,5.9,12.46,5.9,7.48,0,11.08-14.61,11.08-14.61"/><path class="cls-4" d="M105.28,0,72.43,14.45s0,49.5,32.89,65.46c32.85-16,32.83-65.49,32.83-65.49Z"/><path class="cls-5" d="M113.54,29.37h0a8.26,8.26,0,1,0-16.51,0H94.86V50.54h20.85V29.37Zm-13.12,0a4.87,4.87,0,1,1,9.74,0h-9.74Z"/><path class="cls-6" d="M116.17,8.1l-9.61-4.22L73.71,18.33s0,49.5,32.88,65.45c32.86-16,32.83-65.48,32.83-65.48l-8.8-3.86"/><rect class="cls-7" x="115.54" y="147.65" width="70.12" height="48.32" rx="5.57"/><path class="cls-6" d="M151.45,151.3h31.09a6.76,6.76,0,0,1,6.76,6.75v34.81a6.76,6.76,0,0,1-6.76,6.75h-56.6a6.76,6.76,0,0,1-6.76-6.75V158.05a6.76,6.76,0,0,1,6.76-6.75h12.51"/><polygon class="cls-3" points="141.99 183.38 141.99 160.25 163.54 171.81 141.99 183.38"/><path class="cls-6" d="M37.76,43.71A15.12,15.12,0,1,1,22.64,28.6,15.12,15.12,0,0,1,37.76,43.71"/><path class="cls-6" d="M18,32.29A15.12,15.12,0,0,1,43,43.71"/><path class="cls-6" d="M43,43.71A15.12,15.12,0,1,1,18,32.29"/><rect class="cls-8" y="43.71" width="53.08" height="50.48"/><line class="cls-3" x1="10.06" y1="65.12" x2="43.02" y2="65.12"/><line class="cls-3" x1="18.58" y1="71.41" x2="34.5" y2="71.41"/><path class="cls-9" d="M93.63,161.34h-50a3.44,3.44,0,0,1-3.44-3.44V112a3.44,3.44,0,0,1,3.44-3.44h50A3.44,3.44,0,0,1,97.07,112V157.9A3.44,3.44,0,0,1,93.63,161.34Z"/><rect class="cls-9" x="47.64" y="105.08" width="6.51" height="6.51" rx="0.9"/><rect class="cls-9" x="83.86" y="105.08" width="6.51" height="6.51" rx="0.9"/><rect class="cls-10" x="43.37" y="121.54" width="50.57" height="36.49"/><rect class="cls-11" x="59.3" y="128.07" width="6.27" height="6.27" rx="1"/><rect class="cls-11" x="70.07" y="128.07" width="6.27" height="6.27" rx="1"/><rect class="cls-11" x="80.85" y="128.07" width="6.27" height="6.27" rx="1"/><rect class="cls-11" x="48.53" y="137.96" width="6.27" height="6.27" rx="1"/><rect class="cls-11" x="59.3" y="137.96" width="6.27" height="6.27" rx="1"/><rect class="cls-11" x="70.07" y="137.96" width="6.27" height="6.27" rx="1"/><rect class="cls-11" x="80.85" y="137.96" width="6.27" height="6.27" rx="1"/><rect class="cls-11" x="48.53" y="147.84" width="6.27" height="6.27" rx="1"/><rect class="cls-11" x="59.3" y="147.84" width="6.27" height="6.27" rx="1"/><rect class="cls-11" x="70.07" y="147.84" width="6.27" height="6.27" rx="1"/><polygon class="cls-12" points="273.49 160 211.57 160 211.57 102.45 224.75 102.45 273.49 102.45 273.49 160"/><polygon class="cls-10" points="265.75 152.8 219.31 152.8 219.31 109.64 229.2 109.64 265.75 109.64 265.75 152.8"/><path class="cls-6" d="M245.71,144.5h13.84l-10.52-17a1.42,1.42,0,0,0-2.42,0l-7.05,11.39-3.44-5.56a1.43,1.43,0,0,0-2.42,0l-6.91,11.16h18.92"/><path class="cls-6" d="M234.63,128a5.44,5.44,0,1,0-4.44-4.44A5.44,5.44,0,0,0,234.63,128Z"/><path class="cls-13" d="M240.39,6.42h-55a15.35,15.35,0,0,0-15.35,15.35V33.3a15.35,15.35,0,0,0,15.35,15.35h4V63.71l16.78-15.06h34.17A15.35,15.35,0,0,0,255.74,33.3V21.77A15.35,15.35,0,0,0,240.39,6.42Z"/><path class="cls-6" d="M243.65,8.6h-55A15.35,15.35,0,0,0,173.33,24V35.48a15.35,15.35,0,0,0,15.35,15.35h4V65.89l16.77-15.06h34.17A15.35,15.35,0,0,0,259,35.48V24A15.35,15.35,0,0,0,243.65,8.6Z"/><circle class="cls-10" cx="193.34" cy="27.54" r="4.46"/><circle class="cls-10" cx="211.43" cy="27.54" r="4.46"/><circle class="cls-10" cx="230.46" cy="27.54" r="4.46"/></g></g></svg>