<svg xmlns="http://www.w3.org/2000/svg" xmlns:xlink="http://www.w3.org/1999/xlink" viewBox="0 0 282.43 194.4"><defs><style>.cls-1{fill:#e4f2f5;}.cls-2{fill:url(#linear-gradient);}.cls-3{fill:url(#linear-gradient-2);}.cls-4,.cls-6{opacity:0.1;}.cls-5{fill:url(#linear-gradient-3);}.cls-7{fill:url(#linear-gradient-4);}.cls-8{fill:#fff;}.cls-10,.cls-16,.cls-9{fill:none;stroke:#4a536b;stroke-linecap:round;stroke-linejoin:round;stroke-width:1.93px;}.cls-9{stroke-dasharray:5.16;}.cls-11{fill:#ff998c;}.cls-12{fill:url(#linear-gradient-5);}.cls-13{fill:#bec7d1;}.cls-14{fill:url(#linear-gradient-6);}.cls-15{fill:url(#linear-gradient-7);}.cls-16{stroke-dasharray:5.2 5.2;}.cls-17{fill:url(#linear-gradient-8);}.cls-18{fill:url(#linear-gradient-9);}.cls-19{fill:#e6ddc6;}.cls-20{fill:#e2edb2;}.cls-21{fill:url(#linear-gradient-10);}.cls-22{fill:url(#linear-gradient-11);}.cls-23{fill:#4a536b;}.cls-24{fill:url(#linear-gradient-12);}</style><linearGradient id="linear-gradient" x1="250.89" y1="136.97" x2="229.98" y2="109.31" gradientUnits="userSpaceOnUse"><stop offset="0" stop-color="#6fa18c"/><stop offset="0.89" stop-color="#7fb8a0"/></linearGradient><linearGradient id="linear-gradient-2" x1="243.45" y1="161.46" x2="260.31" y2="123" gradientUnits="userSpaceOnUse"><stop offset="0.01" stop-color="#91b8a7"/><stop offset="1" stop-color="#aedcc8"/></linearGradient><linearGradient id="linear-gradient-3" x1="192.72" y1="175.2" x2="257.49" y2="173.17" gradientUnits="userSpaceOnUse"><stop offset="0" stop-color="#bd7268"/><stop offset="0.91" stop-color="#ff998c"/></linearGradient><linearGradient id="linear-gradient-4" x1="192.25" y1="160.09" x2="257.02" y2="158.06" xlink:href="#linear-gradient-3"/><linearGradient id="linear-gradient-5" x1="146.55" y1="193.56" x2="146.26" y2="180.06" gradientUnits="userSpaceOnUse"><stop offset="0" stop-color="#bec7d1"/><stop offset="0.88" stop-color="#969ea6"/></linearGradient><linearGradient id="linear-gradient-6" x1="146.3" y1="183.16" x2="146.3" y2="192.15" xlink:href="#linear-gradient-5"/><linearGradient id="linear-gradient-7" x1="71.9" y1="117.85" x2="218.66" y2="108.96" xlink:href="#linear-gradient-5"/><linearGradient id="linear-gradient-8" x1="185.19" y1="134.16" x2="184.68" y2="104.7" xlink:href="#linear-gradient-2"/><linearGradient id="linear-gradient-9" x1="185.32" y1="134.16" x2="184.8" y2="104.7" xlink:href="#linear-gradient-2"/><linearGradient id="linear-gradient-10" x1="85.05" y1="-133.03" x2="77.61" y2="-155.34" gradientTransform="matrix(0.91, 0.42, -0.42, 0.91, 46.95, 189.98)" xlink:href="#linear-gradient-2"/><linearGradient id="linear-gradient-11" x1="178.33" y1="104.97" x2="171.88" y2="85.6" gradientTransform="translate(206.6 -101.14) rotate(69.66)" xlink:href="#linear-gradient-2"/><linearGradient id="linear-gradient-12" x1="40.4" y1="169.13" x2="40.88" y2="195.57" xlink:href="#linear-gradient-5"/></defs><title>Asset 2</title><g id="Layer_2" data-name="Layer 2"><g id="Layer_1-2" data-name="Layer 1"><path class="cls-1" d="M47.32,192.51C19.84,164,.3,31.4,59.35,31.54c20.92.05,46.74,12.68,117.1-24,87.19-45.43,128.2,126.27,69.18,185"/><path class="cls-2" d="M245.66,106.94l10.5-2.32a87.31,87.31,0,0,0-13.54-25.5s-17.05,20.71-17.05,46.25c0,11.82,1.63,22.6,4.32,30.78h25.46c2.69-8.18,4.33-19,4.33-30.78a64.33,64.33,0,0,0-2.06-15.79Z"/><path class="cls-3" d="M269.66,114.91l10.88.93a73.66,73.66,0,0,0,1.12-27.39S255,102.51,241.39,126c-6.28,10.86-10.51,21.25-12.38,29.55l23.4,7.43a131.48,131.48,0,0,0,20.34-27,70.6,70.6,0,0,0,6.49-15.12Z"/><g class="cls-4"><path d="M268.91,132.42a130.92,130.92,0,0,1-20.33,27l-19-6c-.19.72-.39,1.45-.54,2.14l23.4,7.43a131.48,131.48,0,0,0,20.34-27,70.6,70.6,0,0,0,6.49-15.12l-4.14-2.55A69.5,69.5,0,0,1,268.91,132.42Z"/><path d="M281.66,88.45s-1.21.64-3.23,1.86a78.39,78.39,0,0,1-1.72,22l-4.88,2.78,8.71.74A73.66,73.66,0,0,0,281.66,88.45Z"/></g><polygon class="cls-5" points="273.14 153.85 206.31 153.85 218.09 193.97 261.36 193.97 273.14 153.85"/><polygon class="cls-6" points="273.14 153.85 206.31 153.85 213.07 176.85 269.45 166.41 273.14 153.85"/><rect class="cls-7" x="205.19" y="153.89" width="69.07" height="9.43"/><path class="cls-8" d="M235,55.27v116a4.21,4.21,0,0,1-4.21,4.2H63.56a4.21,4.21,0,0,1-4.21-4.2v-116a4.2,4.2,0,0,1,4.21-4.21H230.77A4.2,4.2,0,0,1,235,55.27Z"/><rect class="cls-9" x="155.95" y="76.05" width="56.93" height="60.18"/><line class="cls-10" x1="83.15" y1="106.48" x2="132.52" y2="106.48"/><line class="cls-10" x1="83.15" y1="114.54" x2="132.52" y2="114.54"/><line class="cls-10" x1="83.15" y1="122.61" x2="107.83" y2="122.61"/><rect class="cls-11" x="80.6" y="81.12" width="55.86" height="14.21" rx="5.09"/><path class="cls-10" d="M81.2,137.1c4.24-.55,7.92-3.89,7.92-3.89,1.61,1.4,1,3.72,3,3.88,1.44.13,5.22-2.62,6.55-2.41,1.61.26.2,2.85,6.69,2.4,3.78-.26,4.41-1,13.4-.76"/><line class="cls-10" x1="102.35" y1="15.34" x2="114.73" y2="2.96"/><line class="cls-10" x1="105.53" y1="22.97" x2="117.93" y2="22.97"/><line class="cls-10" x1="95.41" y1="11.58" x2="95.41" y2="1.96"/><rect class="cls-12" x="124.29" y="175.53" width="44.02" height="13.03"/><path class="cls-13" d="M113.38,185.67h65.84a4.28,4.28,0,0,1,4.28,4.28v3.49a0,0,0,0,1,0,0H109.1a0,0,0,0,1,0,0v-3.49A4.28,4.28,0,0,1,113.38,185.67Z"/><path class="cls-14" d="M113.38,185.67h65.84a4.28,4.28,0,0,1,4.28,4.28v3.49a0,0,0,0,1,0,0H109.1a0,0,0,0,1,0,0v-3.49A4.28,4.28,0,0,1,113.38,185.67Z"/><path class="cls-15" d="M63.56,51.06a4.21,4.21,0,0,0-4.21,4.2V171.32a4.22,4.22,0,0,0,4.21,4.21H230.77a4.21,4.21,0,0,0,4.21-4.21V55.26a4.2,4.2,0,0,0-4.21-4.2Zm4.57,101.38V64.05a4.21,4.21,0,0,1,4.21-4.21H226.2v92.6Z"/><circle class="cls-8" cx="147.17" cy="163.98" r="6.03"/><rect class="cls-6" x="124.29" y="175.53" width="44.02" height="4.11"/><rect class="cls-8" x="21.38" y="19.94" width="76.05" height="76.37" rx="2"/><rect class="cls-16" x="21.38" y="19.94" width="76.05" height="76.37" rx="2"/><path class="cls-11" d="M191.14,117.11h-3.69V97.22a1.84,1.84,0,0,1,.73-1.47l10.43-8,2.24,2.93-9.71,7.42Z"/><polygon class="cls-6" points="189.74 97.45 189.74 116.44 187.45 116.44 187.45 117.11 191.14 117.11 191.14 98.13 200.85 90.71 200.01 89.61 189.74 97.45"/><path class="cls-17" d="M197.2,119.18H172.67a13.32,13.32,0,0,0,24.53,0Z"/><path class="cls-18" d="M171.07,112.08a16.34,16.34,0,0,0,1.6,7.1H197.2a16.34,16.34,0,0,0,1.6-7.1c0-.34,0-.69,0-1H171.1C171.08,111.39,171.07,111.74,171.07,112.08Z"/><path class="cls-19" d="M196,102.92H173.86a15.79,15.79,0,0,0-2.23,4.87h26.61A16,16,0,0,0,196,102.92Z"/><path class="cls-20" d="M171.63,107.79a16.68,16.68,0,0,0-.53,3.26h27.66a17.46,17.46,0,0,0-.52-3.26Z"/><path class="cls-6" d="M189,124.31a13.76,13.76,0,0,1-12.27-8.13,16.37,16.37,0,0,1-1.6-7.1c0-.35,0-.69,0-1a16,16,0,0,1,.52-3.26,17.16,17.16,0,0,1,.64-1.87h-2.45a15.79,15.79,0,0,0-2.23,4.87,16.68,16.68,0,0,0-.53,3.26c0,.34,0,.69,0,1a16.34,16.34,0,0,0,1.6,7.1,13.76,13.76,0,0,0,12.26,8.13,13.17,13.17,0,0,0,9.64-4.3A12.62,12.62,0,0,1,189,124.31Z"/><ellipse class="cls-21" cx="181.17" cy="91.6" rx="2.06" ry="6.77" transform="translate(-14.75 38.43) rotate(-11.64)"/><ellipse class="cls-22" cx="175.97" cy="97.88" rx="1.79" ry="5.88" transform="translate(23.04 228.87) rotate(-69.66)"/><polyline class="cls-8" points="174.25 99.82 175.51 98.24 175.97 100.22"/><rect class="cls-23" x="152.52" y="132.8" width="6.85" height="6.85"/><rect class="cls-23" x="152.52" y="72.62" width="6.85" height="6.85"/><rect class="cls-23" x="209.58" y="132.8" width="6.85" height="6.85"/><rect class="cls-23" x="209.58" y="72.62" width="6.85" height="6.85"/><path class="cls-11" d="M50.43,56h1a6.09,6.09,0,0,0,2.22-.38,7.86,7.86,0,0,0,2.25-1.44,45.32,45.32,0,0,0,3.8-3.92c2-2.28,3.44-3.93,4.18-4.95a12.77,12.77,0,0,0,1.88-3.07,4.6,4.6,0,0,0,.39-1.79,2.27,2.27,0,0,0-.74-1.87,3.73,3.73,0,0,0-2-.71V36.33H77.29V37.9a7,7,0,0,0-2,.78,10.44,10.44,0,0,0-2,1.53c-.7.65-1.71,1.72-3,3.21L59.47,55.49l11.62,16.9A31.44,31.44,0,0,0,74,76.14a8.19,8.19,0,0,0,2,1.56,6.59,6.59,0,0,0,2,.66v1.56H64V78.36a4,4,0,0,0,1.72-.45,1.16,1.16,0,0,0,.55-1,3.56,3.56,0,0,0-.37-1.39,12.64,12.64,0,0,0-1.17-2L57.26,62.42a23,23,0,0,0-1.91-2.62A4.09,4.09,0,0,0,54,58.86a4.91,4.91,0,0,0-1.89-.3H50.46V71.94a25.58,25.58,0,0,0,.14,3.13,4.49,4.49,0,0,0,.48,1.56,2.69,2.69,0,0,0,1,1,9.09,9.09,0,0,0,2.13.77v1.56H40.75V78.36a6.4,6.4,0,0,0,2.65-1.14,3,3,0,0,0,.88-1.77,21.39,21.39,0,0,0,.21-3.51V44.31a22.43,22.43,0,0,0-.16-3.21,4,4,0,0,0-.53-1.56,2.68,2.68,0,0,0-1-.89,10.13,10.13,0,0,0-2.08-.75V36.33H54.2V37.9a8.22,8.22,0,0,0-2,.7,2.74,2.74,0,0,0-1,.88,3.72,3.72,0,0,0-.54,1.58,21.2,21.2,0,0,0-.18,3.25Z"/><path class="cls-24" d="M57.4,192.94a6.75,6.75,0,0,0,1.77-4.36c0-5.68-8.25-10.27-18.42-10.27s-18.41,4.59-18.41,10.27a6.74,6.74,0,0,0,1.76,4.36Z"/><line class="cls-10" x1="0.97" y1="193.43" x2="280.49" y2="193.43"/></g></g></svg>