<svg xmlns="http://www.w3.org/2000/svg" xmlns:xlink="http://www.w3.org/1999/xlink" viewBox="0 0 266.08 208.06"><defs><style>.cls-1{fill:#e4f2f5;}.cls-2{fill:#dee7ed;}.cls-3{fill:#697494;}.cls-4,.cls-5{fill:#fff;}.cls-5{opacity:0.8;}.cls-6,.cls-8{fill:none;stroke-linecap:round;stroke-linejoin:round;stroke-width:1.93px;}.cls-6{stroke:#fff;}.cls-7{fill:#aedcc8;}.cls-8{stroke:#4a536b;}.cls-9{fill:url(#linear-gradient);}.cls-10{opacity:0.1;}.cls-11{fill:#89c3e8;}.cls-12{fill:#ff998c;}.cls-13{fill:#b5e2eb;}.cls-14{fill:#4a536c;}</style><linearGradient id="linear-gradient" x1="202.1" y1="137.22" x2="223.88" y2="191.67" gradientUnits="userSpaceOnUse"><stop offset="0" stop-color="#bec7d1"/><stop offset="0.88" stop-color="#969ea6"/></linearGradient></defs><title>Asset 1</title><g id="Layer_2" data-name="Layer 2"><g id="Layer_1-2" data-name="Layer 1"><path class="cls-1" d="M218,38.57C263.51,99.25,240.8,150,165.56,190.5c-78.46,42.28-259.42-48.76-102-154C124.82-4.46,193.11,5.4,218,38.57Z"/><path class="cls-2" d="M52.51,38.51a21.3,21.3,0,0,0-21.3,21.3v77.53a21.3,21.3,0,0,0,21.3,21.29H97.08l46-120.12Z"/><path class="cls-2" d="M197,38.51H152.37l-46,120.12H197a21.29,21.29,0,0,0,21.29-21.29V59.81A21.3,21.3,0,0,0,197,38.51Z"/><path class="cls-3" d="M52.51,38.51a21.3,21.3,0,0,0-21.3,21.3v77.53a21.3,21.3,0,0,0,21.3,21.29H97.08l46-120.12Z"/><path class="cls-4" d="M197,38.51H152.37l-46,120.12H197a21.29,21.29,0,0,0,21.29-21.29V59.81A21.3,21.3,0,0,0,197,38.51Z"/><path class="cls-5" d="M136.53,55.63l6.55-17.12H52.51A21.3,21.3,0,0,0,31.63,55.63Z"/><path class="cls-3" d="M217.83,55.63A21.31,21.31,0,0,0,197,38.51H152.37l-6.55,17.12Z"/><circle class="cls-3" cx="55.81" cy="47.07" r="3.19"/><circle class="cls-3" cx="68.11" cy="47.07" r="3.19"/><circle class="cls-3" cx="80.41" cy="47.07" r="3.19"/><line class="cls-6" x1="55.81" y1="88.72" x2="83.56" y2="88.72"/><line class="cls-6" x1="90.88" y1="88.72" x2="113.3" y2="88.72"/><line class="cls-6" x1="55.81" y1="102.81" x2="95.11" y2="102.81"/><line class="cls-6" x1="55.81" y1="74.62" x2="97.6" y2="74.62"/><line class="cls-6" x1="55.81" y1="116.9" x2="63.56" y2="116.9"/><line class="cls-6" x1="55.81" y1="130.99" x2="71.3" y2="130.99"/><circle class="cls-7" cx="35.18" cy="163" r="35.18"/><circle class="cls-8" cx="37.83" cy="167" r="35.18"/><path class="cls-4" d="M55.4,163.18h-.83a6.36,6.36,0,0,0,.06-.87,7.07,7.07,0,0,0-7.07-7.07,7.17,7.17,0,0,0-1.75.23,11.21,11.21,0,0,0-22.29,1.4,8.31,8.31,0,0,0-1.51-.14,8.56,8.56,0,0,0,0,17.11H55.4a5.33,5.33,0,1,0,0-10.66Z"/><line class="cls-6" x1="71.3" y1="116.9" x2="87.35" y2="116.9"/><path class="cls-9" d="M219.55,197.2l-21.86-2.8s-3.64-32-7.22-47.91a2.81,2.81,0,0,1,4-3.13c14.58,7.3,44.77,18.52,44.77,18.52l-2.53,21.9"/><path class="cls-10" d="M203.56,190.65S190,144.17,190.47,146.49c3.58,15.9,7.22,47.91,7.22,47.91l21.86,2.8,4.94-3.86Z"/><rect class="cls-11" x="212.52" y="188.72" width="33.62" height="6.61" rx="1.9" transform="translate(528.28 201.9) rotate(141.95)"/><rect class="cls-11" x="222.93" y="193.73" width="22.08" height="8.42" transform="translate(540.21 209.63) rotate(141.95)"/><polygon class="cls-10" points="222.68 201.43 240.06 187.82 240.63 188.54 225.62 205.19 222.68 201.43"/><circle class="cls-4" cx="211.99" cy="169.86" r="4.59"/><rect class="cls-4" x="217.94" y="166.56" width="2.95" height="25.57" transform="translate(502.74 185.36) rotate(141.95)"/><rect class="cls-12" x="149.25" y="67.27" width="53.61" height="50.48"/><line class="cls-8" x1="149.25" y1="127.44" x2="202.86" y2="127.44"/><line class="cls-8" x1="149.25" y1="135.85" x2="202.86" y2="135.85"/><line class="cls-8" x1="149.25" y1="144.27" x2="180.75" y2="144.27"/><rect class="cls-13" x="188.99" y="3.82" width="72.72" height="72.72"/><rect class="cls-8" x="192.39" y="0.97" width="72.72" height="72.72"/><rect class="cls-14" x="210.22" y="21.92" width="30.26" height="8.65" rx="3"/><circle class="cls-4" cx="234.66" cy="26.24" r="1.43"/><rect class="cls-14" x="210.22" y="32.63" width="30.26" height="8.65" rx="3"/><circle class="cls-4" cx="234.66" cy="36.95" r="1.43"/><rect class="cls-14" x="210.22" y="43.34" width="30.26" height="8.65" rx="3"/><circle class="cls-4" cx="234.66" cy="47.66" r="1.43"/><line class="cls-8" x1="202.23" y1="58.44" x2="248.47" y2="58.44"/><line class="cls-8" x1="225.35" y1="58.44" x2="225.35" y2="47.66"/><path class="cls-8" d="M191.72,105.37H160.39a1.22,1.22,0,0,1-1-1.9L175.05,80.2a1.21,1.21,0,0,1,2,0l15.67,23.27A1.22,1.22,0,0,1,191.72,105.37Z"/></g></g></svg>