<svg xmlns="http://www.w3.org/2000/svg" xmlns:xlink="http://www.w3.org/1999/xlink" viewBox="0 0 290.85 211.54"><defs><style>.cls-1{fill:#e4f2f5;}.cls-2{fill:none;stroke:#4a536b;stroke-linecap:round;stroke-linejoin:round;stroke-width:1.93px;}.cls-3{fill:#4a536b;}.cls-4{fill:url(#linear-gradient);}.cls-5{fill:#fff;}.cls-6{fill:url(#linear-gradient-2);}.cls-7{fill:url(#linear-gradient-3);}.cls-8{fill:url(#linear-gradient-4);}.cls-9{fill:url(#linear-gradient-5);}.cls-10{fill:url(#linear-gradient-6);}.cls-11{fill:url(#linear-gradient-7);}.cls-12{fill:url(#linear-gradient-8);}.cls-13{fill:url(#linear-gradient-9);}.cls-14{fill:url(#linear-gradient-10);}.cls-15{fill:url(#linear-gradient-11);}.cls-16{fill:url(#linear-gradient-12);}.cls-17{fill:url(#linear-gradient-13);}</style><linearGradient id="linear-gradient" x1="294.1" y1="43.85" x2="180.52" y2="42.9" gradientUnits="userSpaceOnUse"><stop offset="0" stop-color="#4a536c"/><stop offset="1" stop-color="#697494"/></linearGradient><linearGradient id="linear-gradient-2" x1="293.81" y1="70.06" x2="180.36" y2="69.11" xlink:href="#linear-gradient"/><linearGradient id="linear-gradient-3" x1="138.4" y1="147.46" x2="137.06" y2="84.93" xlink:href="#linear-gradient"/><linearGradient id="linear-gradient-4" x1="171.32" y1="146.75" x2="169.98" y2="84.22" xlink:href="#linear-gradient"/><linearGradient id="linear-gradient-5" x1="114.92" y1="147.96" x2="113.58" y2="85.43" xlink:href="#linear-gradient"/><linearGradient id="linear-gradient-6" x1="65.16" y1="205.13" x2="220.87" y2="205.13" gradientUnits="userSpaceOnUse"><stop offset="0" stop-color="#bec7d1"/><stop offset="0.88" stop-color="#969ea6"/></linearGradient><linearGradient id="linear-gradient-7" x1="141.65" y1="120.1" x2="143.18" y2="207.46" xlink:href="#linear-gradient-6"/><linearGradient id="linear-gradient-8" x1="36.81" y1="213.95" x2="35.8" y2="196.28" gradientUnits="userSpaceOnUse"><stop offset="0" stop-color="#c8cede"/><stop offset="1" stop-color="#fff"/></linearGradient><linearGradient id="linear-gradient-9" x1="59.56" y1="216.36" x2="58.45" y2="193.33" gradientUnits="userSpaceOnUse"><stop offset="0" stop-color="#bd7268"/><stop offset="0.91" stop-color="#ff998c"/></linearGradient><linearGradient id="linear-gradient-10" x1="45.49" y1="194.89" x2="45.49" y2="184.12" gradientUnits="userSpaceOnUse"><stop offset="0" stop-color="#dedede"/><stop offset="1" stop-color="#fff"/></linearGradient><linearGradient id="linear-gradient-11" x1="59.39" y1="196.52" x2="58.27" y2="175.71" gradientUnits="userSpaceOnUse"><stop offset="0.01" stop-color="#91b8a7"/><stop offset="1" stop-color="#aedcc8"/></linearGradient><linearGradient id="linear-gradient-12" x1="241.89" y1="243.67" x2="238.78" y2="152.66" xlink:href="#linear-gradient"/><linearGradient id="linear-gradient-13" x1="256.48" y1="243.17" x2="253.38" y2="152.16" xlink:href="#linear-gradient"/></defs><title>Asset 6</title><g id="Layer_2" data-name="Layer 2"><g id="Layer_1-2" data-name="Layer 1"><path class="cls-1" d="M28.71,211H252c18-16.32,15.34-38.05,17.36-64.18,3.74-48.55-35.39-69.89-74.92-99.33-25.78-19.2-124.74-.11-114.34,44.34C84.6,111.21-32.36,117.69,28.71,211Z"/><path class="cls-2" d="M33.12,1h40A13.41,13.41,0,0,1,86.55,14.38V75.65L69.29,63.26H33.12A13.41,13.41,0,0,1,19.71,49.85V14.38A13.41,13.41,0,0,1,33.12,1Z"/><path class="cls-3" d="M48.14,38c-.21-4.59,1.82-6.51,5.21-7.77l1.72-.67a5.41,5.41,0,0,0,4-5.06c0-3.49-2.24-5.42-5.26-5.42a6,6,0,0,0-5.94,6.1h-4.9a10.62,10.62,0,0,1,10.84-10.9c5.73,0,10.32,3.91,10.32,10.17a10.26,10.26,0,0,1-7.45,9.85C54.5,35,53,35.58,53,38l-.05,1.83H48.19Zm-1.2,9.65a3.6,3.6,0,1,1,3.6,3.44A3.48,3.48,0,0,1,46.94,47.63Z"/><rect class="cls-4" x="184.11" y="20.09" width="94.3" height="46.48" rx="16.67"/><circle class="cls-5" cx="209.74" cy="43.33" r="4.91"/><circle class="cls-5" cx="229.64" cy="43.33" r="4.91"/><circle class="cls-5" cx="250.58" cy="43.33" r="4.91"/><polygon class="cls-6" points="199.49 83.14 199.49 55.4 223.94 58.13 199.49 83.14"/><path class="cls-5" d="M148.38,167.36h0a30.61,30.61,0,0,1-30.6-30.61V111.22c0-16.9,61.21-4.32,61.21,12.58v13A30.61,30.61,0,0,1,148.38,167.36Z"/><path class="cls-7" d="M174.08,88.32a12.45,12.45,0,0,0-6.14.89,16,16,0,0,0-13.67-7.75H105.94c-8.8,0-16.34,6.88-16.5,15.67a16,16,0,0,0,16,16.26H145.6l20.71.1A12.73,12.73,0,0,1,179,126.22v10.53a30.84,30.84,0,0,1-.43,4.93c4.24-6.65,6.74-5.14,6.74-13.91V101.3A12.9,12.9,0,0,0,174.08,88.32Z"/><path class="cls-8" d="M160.44,109.23h20.4a0,0,0,0,1,0,0v18.55a0,0,0,0,1,0,0H167a6.6,6.6,0,0,1-6.6-6.6V109.23A0,0,0,0,1,160.44,109.23Z"/><path class="cls-9" d="M117.78,113.39v18.23s-8.11-13.54-7.17-21.62"/><path class="cls-10" d="M65.16,199.68h155.7a0,0,0,0,1,0,0v4.42a6.47,6.47,0,0,1-6.47,6.47H71.64a6.47,6.47,0,0,1-6.47-6.47v-4.42A0,0,0,0,1,65.16,199.68Z"/><rect class="cls-11" x="69.8" y="125.68" width="145.39" height="84.89" rx="6.12"/><ellipse class="cls-5" cx="143.02" cy="165.87" rx="9.05" ry="10.69"/><rect class="cls-12" x="14.34" y="196.59" width="43.69" height="12.97"/><path class="cls-13" d="M101.74,195H12.31a1.3,1.3,0,0,0-1.3,1.31h0a1.3,1.3,0,0,0,1.3,1.3H46.4a4.2,4.2,0,0,1,4.2,4.19v2a4.2,4.2,0,0,1-4.2,4.2H12.31a1.3,1.3,0,0,0-1.3,1.3h0a1.31,1.31,0,0,0,1.3,1.31h89.43a5.25,5.25,0,0,0,5.25-5.25v-5.12A5.25,5.25,0,0,0,101.74,195Z"/><line class="cls-2" x1="19.71" y1="204.45" x2="41.95" y2="204.45"/><rect class="cls-14" x="32.55" y="181.18" width="25.88" height="12.97"/><path class="cls-15" d="M84.32,179.55h-53c-.43,0-.78.59-.78,1.31h0c0,.72.35,1.3.78,1.3H51.54c1.37,0,2.48,1.88,2.48,4.2v2c0,2.32-1.11,4.2-2.48,4.2H31.35c-.43,0-.78.58-.78,1.3h0c0,.72.35,1.31.78,1.31h53c1.72,0,3.11-2.35,3.11-5.25V184.8C87.43,181.9,86,179.55,84.32,179.55Z"/><line class="cls-2" x1="39.2" y1="187.67" x2="46.77" y2="187.67"/><path class="cls-16" d="M253.36,210.69h-27.7l-3-36.5a3.77,3.77,0,0,1,3.75-4.08H252.6a3.77,3.77,0,0,1,3.76,4.08Z"/><path class="cls-17" d="M254.65,202.33a12.89,12.89,0,1,1,12.89-12.89A12.9,12.9,0,0,1,254.65,202.33Zm0-20.78a7.89,7.89,0,1,0,7.89,7.89A7.9,7.9,0,0,0,254.65,181.55Z"/><line class="cls-2" x1="278.41" y1="210.58" x2="289.88" y2="210.58"/><line class="cls-2" x1="0.97" y1="210.58" x2="269.56" y2="210.58"/></g></g></svg>