<?xml version="1.0" encoding="UTF-8"?>
<svg width="297px" height="215px" viewBox="0 0 297 215" version="1.1" xmlns="http://www.w3.org/2000/svg" xmlns:xlink="http://www.w3.org/1999/xlink">
    <!-- Generator: Sketch 52.5 (67469) - http://www.bohemiancoding.com/sketch -->
    <title>Untitled 2</title>
    <desc>Created with Sketch.</desc>
    <defs>
        <linearGradient x1="53.5587816%" y1="115.928297%" x2="49.7380983%" y2="1.56210197%" id="linearGradient-1">
            <stop stop-color="#4A536C" offset="0%"></stop>
            <stop stop-color="#697494" offset="100%"></stop>
        </linearGradient>
        <linearGradient x1="52.94185%" y1="155.881539%" x2="47.9459523%" y2="-24.0513754%" id="linearGradient-2">
            <stop stop-color="#4A536C" offset="0%"></stop>
            <stop stop-color="#697494" offset="100%"></stop>
        </linearGradient>
        <linearGradient x1="49.8706603%" y1="-53.4412955%" x2="50.1565691%" y2="97.2469636%" id="linearGradient-3">
            <stop stop-color="#BEC7D1" offset="0%"></stop>
            <stop stop-color="#969EA6" offset="88%"></stop>
        </linearGradient>
        <linearGradient x1="-7.59960322%" y1="49.1330047%" x2="97.6315807%" y2="50.8179124%" id="linearGradient-4">
            <stop stop-color="#BEC7D1" offset="0%"></stop>
            <stop stop-color="#969EA6" offset="88%"></stop>
        </linearGradient>
        <linearGradient x1="52.2707612%" y1="112.770083%" x2="48.0968858%" y2="-2.50692521%" id="linearGradient-5">
            <stop stop-color="#4A536C" offset="0%"></stop>
            <stop stop-color="#697494" offset="100%"></stop>
        </linearGradient>
        <linearGradient x1="0%" y1="50.0141483%" x2="99.9889258%" y2="50.0141483%" id="linearGradient-6">
            <stop stop-color="#4A536C" offset="0%"></stop>
            <stop stop-color="#697494" offset="100%"></stop>
        </linearGradient>
    </defs>
    <g id="Page-1" stroke="none" stroke-width="1" fill="none" fill-rule="evenodd">
        <g id="Asset-3">
            <rect id="Rectangle" fill="#697494" x="77.26" y="0" width="125.55" height="72.99"></rect>
            <rect id="Rectangle" fill="#FFFFFF" opacity="0.8" x="77.26" y="0" width="125.55" height="9.18"></rect>
            <circle id="Oval" fill="#697494" cx="86.06" cy="4.59" r="1.39"></circle>
            <circle id="Oval" fill="#697494" cx="92.02" cy="4.59" r="1.39"></circle>
            <circle id="Oval" fill="#697494" cx="97.98" cy="4.59" r="1.39"></circle>
            <path d="M92.02,20.31 L121.99,20.31" id="Path" stroke="#FFFFFF" stroke-width="1.93" stroke-linecap="round" stroke-linejoin="round"></path>
            <path d="M172.84,28.96 L183.47,28.96" id="Path" stroke="#FFFFFF" stroke-width="1.93" stroke-linecap="round" stroke-linejoin="round"></path>
            <path d="M110,28.96 L165.56,28.96" id="Path" stroke="#FFFFFF" stroke-width="1.93" stroke-linecap="round" stroke-linejoin="round"></path>
            <path d="M92.02,28.96 L101.65,28.96" id="Path" stroke="#FFFFFF" stroke-width="1.93" stroke-linecap="round" stroke-linejoin="round"></path>
            <path d="M92.02,37.6 L134.04,37.6" id="Path" stroke="#FFFFFF" stroke-width="1.93" stroke-linecap="round" stroke-linejoin="round"></path>
            <path d="M107.06,46.24 L115.5,46.24" id="Path" stroke="#FFFFFF" stroke-width="1.93" stroke-linecap="round" stroke-linejoin="round"></path>
            <path d="M92.02,46.24 L102.85,46.24" id="Path" stroke="#FFFFFF" stroke-width="1.93" stroke-linecap="round" stroke-linejoin="round"></path>
            <path d="M92.02,54.88 L105.07,54.88" id="Path" stroke="#FFFFFF" stroke-width="1.93" stroke-linecap="round" stroke-linejoin="round"></path>
            <path d="M182.41,66.09 L192.83,66.09" id="Path" stroke="#FFFFFF" stroke-width="1.93" stroke-linecap="round" stroke-linejoin="round"></path>
            <path d="M128.62,20.31 L139.45,20.31" id="Path" stroke="#FFFFFF" stroke-width="1.93" stroke-linecap="round" stroke-linejoin="round"></path>
            <path d="M150.48,70.57 L150,70.57 C150.010298,70.3968196 150.010298,70.2231804 150,70.05 C149.994486,67.7398331 148.120173,65.8699934 145.81,65.87 C145.472843,65.8756452 145.137394,65.9192535 144.81,66 C144.313691,62.583249 141.278273,60.1193115 137.832479,60.3361431 C134.386685,60.5529747 131.684082,63.3779856 131.62,66.83 C131.32614,66.7781366 131.028399,66.7513734 130.73,66.75 C128.866761,66.6671894 127.1085,67.6140527 126.152151,69.2152749 C125.195802,70.816497 125.195802,72.813503 126.152151,74.4147251 C127.1085,76.0159473 128.866761,76.9628106 130.73,76.88 L150.5,76.88 C152.173535,76.7857444 153.482306,75.4011872 153.482306,73.725 C153.482306,72.0488128 152.173535,70.6642556 150.5,70.57 L150.48,70.57 Z" id="Path" fill="#FFFFFF"></path>
            <path d="M236.43,213.76 L209.77,213.76 L206.88,178.63 C206.796078,177.620825 207.138699,176.622636 207.824696,175.87773 C208.510693,175.132825 209.477342,174.709314 210.49,174.71 L235.7,174.71 C236.712658,174.709314 237.679307,175.132825 238.365304,175.87773 C239.051301,176.622636 239.393922,177.620825 239.31,178.63 L236.43,213.76 Z" id="Path" fill="url(#linearGradient-1)"></path>
            <path d="M237.67,205.72 C232.649714,205.719998 228.123946,202.695316 226.203701,198.056789 C224.283457,193.418262 225.347038,188.079716 228.898347,184.531269 C232.449655,180.982821 237.789057,179.923544 242.426035,181.847528 C247.063012,183.771511 250.084045,188.299716 250.08,193.32 C250.068975,200.167663 244.517669,205.714495 237.67,205.72 Z M237.67,185.72 C234.596087,185.72 231.824851,187.571681 230.648516,190.411606 C229.47218,193.251531 230.122404,196.520427 232.295988,198.694012 C234.469573,200.867596 237.738469,201.51782 240.578394,200.341484 C243.418319,199.165149 245.27,196.393913 245.27,193.32 C245.264491,189.12492 241.86508,185.725509 237.67,185.72 Z" id="Shape" fill="url(#linearGradient-2)" fill-rule="nonzero"></path>
            <path d="M68.59,201.73 L215.48,201.73 L215.48,205.55 C215.48,210.260989 211.660989,214.08 206.95,214.08 L77.11,214.08 C72.3990111,214.08 68.58,210.260989 68.58,205.55 L68.58,201.73 L68.59,201.73 Z" id="Path" fill="url(#linearGradient-3)"></path>
            <path d="M207.64,208.35 L76.43,208.35 C72.5712373,208.352 69.286309,205.54241 68.69,201.73 L68.59,201.73 L68.59,206.24 C68.59,210.569912 72.1000876,214.08 76.43,214.08 L207.64,214.08 C211.969912,214.08 215.48,210.569912 215.48,206.24 L215.48,201.73 L215.38,201.73 C214.779772,205.54022 211.497207,208.347788 207.64,208.35 Z" id="Path" fill="#000000" opacity="0.1"></path>
            <path d="M84.35,120.39 L199.72,120.39 C202.481424,120.39 204.72,122.628576 204.72,125.39 L204.72,201.7 L79.3199093,201.7 L79.32,125.42 C79.3119567,124.083512 79.8393184,122.799433 80.7843755,121.854376 C81.7294327,120.909318 83.0135115,120.381957 84.35,120.39 Z" id="Path" fill="url(#linearGradient-4)"></path>
            <rect id="Rectangle" fill="#FFFFFF" transform="translate(142.035000, 165.160000) rotate(90.000000) translate(-142.035000, -165.160000) " x="105.475" y="110.665" width="73.12" height="108.99"></rect>
            <rect id="Rectangle" fill="#AEDCC8" x="106.8" y="139.1" width="70.26" height="52.29"></rect>
            <path d="M130.91,180.32 L130.91,149 C130.91473,148.551684 131.164976,148.142084 131.561721,147.933271 C131.958467,147.724458 132.437777,147.75008 132.81,148 L156.08,163.66 C156.406585,163.888236 156.601144,164.261566 156.601144,164.66 C156.601144,165.058434 156.406585,165.431764 156.08,165.66 L132.81,181.32 C132.437777,181.56992 131.958467,181.595542 131.561721,181.386729 C131.164976,181.177916 130.91473,180.768316 130.91,180.32 Z" id="Path" stroke="#4A536B" stroke-width="1.93" stroke-linecap="round" stroke-linejoin="round"></path>
            <path d="M25.77,213.73 L295.76,213.73" id="Path" stroke="#4A536B" stroke-width="1.93" stroke-linecap="round" stroke-linejoin="round"></path>
            <path d="M0.97,213.73 L20.92,213.73" id="Path" stroke="#4A536B" stroke-width="1.93" stroke-linecap="round" stroke-linejoin="round"></path>
            <rect id="Rectangle" fill="url(#linearGradient-5)" x="45.47" y="96.82" width="46.24" height="72.2" rx="2.83"></rect>
            <rect id="Rectangle" fill="#FFFFFF" x="49.01" y="99.77" width="39.14" height="61.78"></rect>
            <rect id="Rectangle" fill="#FFFFFF" x="61.13" y="163.96" width="14.91" height="1.71" rx="0.61"></rect>
            <rect id="Rectangle" fill="#B6E7F0" x="54" y="105.96" width="29.17" height="29.17"></rect>
            <path d="M54,140.98 L83.17,140.98" id="Path" stroke="#4A536B" stroke-width="1.93" stroke-linecap="round" stroke-linejoin="round"></path>
            <path d="M54,147.83 L83.17,147.83" id="Path" stroke="#4A536B" stroke-width="1.93" stroke-linecap="round" stroke-linejoin="round"></path>
            <path d="M54,154.69 L70.7,154.69" id="Path" stroke="#4A536B" stroke-width="1.93" stroke-linecap="round" stroke-linejoin="round"></path>
            <circle id="Oval" stroke="#4A536B" stroke-width="1.93" stroke-linecap="round" stroke-linejoin="round" cx="68.59" cy="120.54" r="8.94"></circle>
            <path d="" id="Path" stroke="#4A536B" stroke-width="1.93" stroke-linecap="round" stroke-linejoin="round"></path>
            <path d="M140.37,99.49 L140.37,111.93" id="Path" stroke="#4A536B" stroke-width="1.93" stroke-linecap="round" stroke-linejoin="round" stroke-dasharray="0"></path>
            <path d="" id="Path" stroke="#4A536B" stroke-width="1.93" stroke-linecap="round" stroke-linejoin="round"></path>
            <rect id="Rectangle" fill="url(#linearGradient-6)" x="183.33" y="99.78" width="90.3" height="70.68" rx="4.35"></rect>
            <rect id="Rectangle" fill="#FFFFFF" x="187.75" y="103.99" width="81.44" height="62.28"></rect>
            <path d="M117.57,86.7 L94.4,96.54" id="Path" stroke="#4A536B" stroke-width="1.93" stroke-linecap="round" stroke-linejoin="round" stroke-dasharray="0"></path>
            <path d="M160.91,86.7 L184.07,96.54" id="Path" stroke="#4A536B" stroke-width="1.93" stroke-linecap="round" stroke-linejoin="round" stroke-dasharray="0"></path>
            <rect id="Rectangle" fill="#F7D18A" x="220.5" y="111.34" width="41.67" height="47.58"></rect>
            <rect id="Rectangle" stroke="#4A536B" stroke-width="1.93" stroke-linecap="round" stroke-linejoin="round" x="231.88" y="125.67" width="18.92" height="18.92"></rect>
            <path d="M193.13,131.87 L212.81,131.87" id="Path" stroke="#4A536B" stroke-width="1.93" stroke-linecap="round" stroke-linejoin="round"></path>
            <path d="M193.13,138.89 L202.97,138.89" id="Path" stroke="#4A536B" stroke-width="1.93" stroke-linecap="round" stroke-linejoin="round"></path>
            <rect id="Rectangle" stroke="#4A536B" stroke-width="1.93" stroke-linecap="round" stroke-linejoin="round" x="192.12" y="118.89" width="22.27" height="6.03" rx="2.16"></rect>
            <circle id="Oval" fill="#A3A6FA" cx="139.42" cy="70.41" r="20.83"></circle>
            <circle id="Oval" stroke="#4A536B" stroke-width="1.93" stroke-linecap="round" stroke-linejoin="round" cx="140.99" cy="68.84" r="20.83"></circle>
            <path d="M151.39,70.52 L150.9,70.52 C150.910228,70.3468176 150.910228,70.1731824 150.9,70 C150.9,68.8913951 150.459608,67.8281957 149.675706,67.0442937 C148.891804,66.2603916 147.828605,65.82 146.72,65.82 C146.382799,65.8250422 146.047282,65.8686594 145.72,65.95 C145.196585,62.5545874 142.169571,60.1191224 138.740823,60.3347178 C135.312076,60.5503133 132.613975,63.3457667 132.52,66.78 C132.226198,66.7276972 131.92842,66.7009306 131.63,66.7 C128.920133,66.8204385 126.785111,69.0524575 126.785111,71.765 C126.785111,74.4775425 128.920133,76.7095615 131.63,76.83 L151.4,76.83 C152.569559,76.895871 153.679596,76.3093525 154.284223,75.3060419 C154.88885,74.3027314 154.88885,73.0472686 154.284223,72.0439581 C153.679596,71.0406475 152.569559,70.454129 151.4,70.52 L151.39,70.52 Z" id="Path" fill="#FFFFFF"></path>
            <path d="M192.12,157.26 C194.75,156.12 197.05,149.26 197.05,149.26 C198.05,152.15 197.67,156.9 198.89,157.26 C199.79,157.51 202.14,151.87 202.97,152.26 C203.97,152.79 203.1,158.11 207.13,157.19 C209.49,156.66 209.88,155.14 215.48,155.62" id="Path" stroke="#4A536B" stroke-width="1.93" stroke-linecap="round" stroke-linejoin="round"></path>
        </g>
    </g>
</svg>