
<svg width="200px" height="146px" viewBox="0 0 200 146" version="1.1" xmlns="http://www.w3.org/2000/svg" xmlns:xlink="http://www.w3.org/1999/xlink">
    <g id="Page-1" stroke="none" stroke-width="1" fill="none" fill-rule="evenodd">
        <g id="Desktop-HD-Copy-2" transform="translate(-1084.000000, -361.000000)">
            <g id="asset4-edited" transform="translate(1084.000000, 362.000000)">
                <polygon id="Path" fill="#323A4F" fill-rule="nonzero" points="142.934307 90.4963504 94.8832117 90.4963504 94.8832117 54.8905109 105.116788 54.8905109 142.934307 54.8905109"></polygon>
                <path d="M101.29927,83.2043796 L136.525547,83.2043796" id="Path" stroke="#FFFFFF" stroke-width="1.93" stroke-linecap="round" stroke-linejoin="round"></path>
                <path d="M103.905109,59.620438 L103.905109,85.7664234" id="Path" stroke="#FFFFFF" stroke-width="1.93" stroke-linecap="round" stroke-linejoin="round"></path>
                <path d="M108.985401,77.7226277 C111.007299,73.0364964 113.773723,70.2262774 116.744526,70.2262774 C120.248175,70.2262774 120.744526,74.5328467 125.839416,74.5328467 C131.29927,74.5328467 133.927007,63.8686131 133.927007,63.8686131" id="Path" stroke="#FFFFFF" stroke-width="1.93" stroke-linecap="round" stroke-linejoin="round"></path>
                <path d="M76.8467153,0 L52.8686131,10.5474453 C52.8686131,10.5474453 52.8686131,46.6788321 76.8759124,58.3284672 C100.854015,46.649635 100.839416,10.5255474 100.839416,10.5255474 L76.8467153,0 Z" id="Path" fill="#B5E2EB" fill-rule="nonzero"></path>
                <path d="M82.8759124,21.4379562 C82.9525905,19.2352195 81.8211927,17.1661838 79.9253212,16.0420835 C78.0294504,14.9179832 75.6712796,14.9179832 73.7754088,16.0420835 C71.8795374,17.1661838 70.7481397,19.2352195 70.8248175,21.4379562 L69.2408759,21.4379562 L69.2408759,36.8905109 L84.459854,36.8905109 L84.459854,21.4379562 L82.8759124,21.4379562 Z M73.2992701,21.4379562 C73.2992701,19.474725 74.8907832,17.8832117 76.8540146,17.8832117 C78.817246,17.8832117 80.4087591,19.474725 80.4087591,21.4379562 L73.2992701,21.4379562 Z" id="Shape" fill="#579FAD" fill-rule="nonzero"></path>
                <path d="M83.7956204,3.91240876 L76.7810219,0.832116788 L52.8029197,11.379562 C52.8029197,11.379562 52.8029197,47.5109489 76.8029197,59.1532847 C100.788321,47.4744526 100.766423,11.3576642 100.766423,11.3576642 L94.3430657,8.54014599" id="Path" stroke="#579FAD" stroke-width="1.93" stroke-linecap="round" stroke-linejoin="round"></path>
                <rect id="Rectangle" fill="#67B6A2" fill-rule="nonzero" x="84.3357664" y="107.773723" width="51.1824818" height="35.270073" rx="5.57"></rect>
                <path d="M108.547445,108.437956 L131.240876,108.437956 C133.96317,108.437953 136.171155,110.642672 136.175182,113.364964 L136.175182,138.773723 C136.171155,141.496014 133.96317,143.700733 131.240876,143.70073 L89.9270073,143.70073 C87.2047131,143.700733 84.9967277,141.496014 84.9927007,138.773723 L84.9927007,113.364964 C84.9967277,110.642672 87.2047131,108.437953 89.9270073,108.437956 L99.0583942,108.437956" id="Path" stroke="#009184" stroke-width="1.93" stroke-linecap="round" stroke-linejoin="round"></path>
                <polygon id="Path" stroke="#FFFFFF" stroke-width="1.93" stroke-linecap="round" stroke-linejoin="round" points="103.642336 133.854015 103.642336 116.970803 119.372263 125.408759"></polygon>
                <path d="M27.5620438,31.9051095 C27.5649965,36.3696186 24.8779134,40.3961653 20.754092,42.1067054 C16.6302705,43.8172454 11.8820799,42.8748122 8.72415044,39.7189712 C5.56622091,36.5631304 4.62064652,31.8155643 6.32845789,27.6906121 C8.03626927,23.5656599 12.0610373,20.8759134 16.5255474,20.8759124 C22.6179866,20.8759111 27.5580144,25.8126716 27.5620438,31.9051095" id="Path" stroke="#4A536B" stroke-width="1.93" stroke-linecap="round" stroke-linejoin="round"></path>
                <path d="M13.1386861,23.5693431 C16.4040534,20.7506033 21.0123656,20.0926675 24.9360647,21.8850132 C28.8597636,23.6773589 31.379585,27.5914261 31.3868613,31.9051095" id="Path" stroke="#4A536B" stroke-width="1.93" stroke-linecap="round" stroke-linejoin="round"></path>
                <path d="M31.3868613,31.9051095 C31.3954605,37.003022 27.9112988,41.4434715 22.9576814,42.647822 C18.0040639,43.8521725 12.8701444,41.506998 10.537267,36.9741766 C8.20438964,32.4413553 9.27967394,26.9005307 13.1386861,23.5693431" id="Path" stroke="#4A536B" stroke-width="1.93" stroke-linecap="round" stroke-linejoin="round"></path>
                <rect id="Rectangle" fill="#FAD078" fill-rule="nonzero" x="0" y="31.9051095" width="38.7445255" height="36.8467153"></rect>
                <path d="M7.34306569,47.5328467 L31.4014599,47.5328467" id="Path" stroke="#FFFFFF" stroke-width="1.93" stroke-linecap="round" stroke-linejoin="round"></path>
                <path d="M13.5620438,52.1240876 L25.1824818,52.1240876" id="Path" stroke="#FFFFFF" stroke-width="1.93" stroke-linecap="round" stroke-linejoin="round"></path>
                <path d="M68.3430657,117.766423 L31.8467153,117.766423 C30.4599566,117.766423 29.3357664,116.642234 29.3357664,115.255474 L29.3357664,81.7518248 C29.3357664,80.3650657 30.4599566,79.2408759 31.8467153,79.2408759 L68.3430657,79.2408759 C69.7298245,79.2408759 70.8540146,80.3650657 70.8540146,81.7518248 L70.8540146,115.255474 C70.8540146,116.642234 69.7298245,117.766423 68.3430657,117.766423 Z" id="Path" fill="#FF998C" fill-rule="nonzero"></path>
                <rect id="Rectangle" fill="#FF998C" fill-rule="nonzero" x="34.7737226" y="76.7007299" width="4.75182482" height="4.75182482" rx="0.9"></rect>
                <rect id="Rectangle" fill="#FF998C" fill-rule="nonzero" x="61.2116788" y="76.7007299" width="4.75182482" height="4.75182482" rx="0.9"></rect>
                <rect id="Rectangle" fill="#FFFFFF" fill-rule="nonzero" x="31.6569343" y="88.7153285" width="36.9124088" height="26.6350365"></rect>
                <rect id="Rectangle" fill="#323A4F" fill-rule="nonzero" x="43.2846715" y="93.4817518" width="4.57664234" height="4.57664234" rx="1"></rect>
                <rect id="Rectangle" fill="#323A4F" fill-rule="nonzero" x="51.1459854" y="93.4817518" width="4.57664234" height="4.57664234" rx="1"></rect>
                <rect id="Rectangle" fill="#323A4F" fill-rule="nonzero" x="59.0145985" y="93.4817518" width="4.57664234" height="4.57664234" rx="1"></rect>
                <rect id="Rectangle" fill="#323A4F" fill-rule="nonzero" x="35.4233577" y="100.70073" width="4.57664234" height="4.57664234" rx="1"></rect>
                <rect id="Rectangle" fill="#323A4F" fill-rule="nonzero" x="43.2846715" y="100.70073" width="4.57664234" height="4.57664234" rx="1"></rect>
                <rect id="Rectangle" fill="#323A4F" fill-rule="nonzero" x="51.1459854" y="100.70073" width="4.57664234" height="4.57664234" rx="1"></rect>
                <rect id="Rectangle" fill="#323A4F" fill-rule="nonzero" x="59.0145985" y="100.70073" width="4.57664234" height="4.57664234" rx="1"></rect>
                <rect id="Rectangle" fill="#323A4F" fill-rule="nonzero" x="35.4233577" y="107.912409" width="4.57664234" height="4.57664234" rx="1"></rect>
                <rect id="Rectangle" fill="#323A4F" fill-rule="nonzero" x="43.2846715" y="107.912409" width="4.57664234" height="4.57664234" rx="1"></rect>
                <rect id="Rectangle" fill="#323A4F" fill-rule="nonzero" x="51.1459854" y="107.912409" width="4.57664234" height="4.57664234" rx="1"></rect>
                <polygon id="Path" fill="#B5E2EB" fill-rule="nonzero" points="199.627737 116.788321 154.430657 116.788321 154.430657 74.7810219 164.051095 74.7810219 199.627737 74.7810219"></polygon>
                <polygon id="Path" fill="#FFFFFF" fill-rule="nonzero" points="193.978102 111.532847 160.080292 111.532847 160.080292 80.0291971 167.29927 80.0291971 193.978102 80.0291971"></polygon>
                <path d="M179.350365,105.474453 L189.452555,105.474453 L181.773723,93.0656934 C181.58518,92.7587161 181.250766,92.5716562 180.890511,92.5716562 C180.530256,92.5716562 180.195842,92.7587161 180.007299,93.0656934 L174.861314,101.379562 L172.350365,97.3211679 C172.159252,97.017735 171.825755,96.8336511 171.467153,96.8336511 C171.108551,96.8336511 170.775055,97.017735 170.583942,97.3211679 L165.540146,105.467153 L179.350365,105.467153" id="Path" stroke="#323A4F" stroke-width="1.93" stroke-linecap="round" stroke-linejoin="round"></path>
                <path d="M171.262774,93.4306569 C172.967638,93.7236518 174.666012,92.879227 175.461442,91.3430956 C176.256872,89.8069642 175.966305,87.932638 174.743111,86.7094438 C173.519917,85.4862496 171.645591,85.1956825 170.109459,85.9911124 C168.573328,86.7865423 167.728903,88.4849168 168.021898,90.189781 C168.306779,91.8474307 169.605124,93.1457759 171.262774,93.4306569 Z" id="Path" stroke="#323A4F" stroke-width="1.93" stroke-linecap="round" stroke-linejoin="round"></path>
                <path d="M175.467153,4.68613139 L135.321168,4.68613139 C129.13316,4.68613139 124.116788,9.70250299 124.116788,15.8905109 L124.116788,24.3065693 C124.116788,30.4945773 129.13316,35.5109489 135.321168,35.5109489 L138.240876,35.5109489 L138.240876,46.5036496 L150.489051,35.5109489 L175.430657,35.5109489 C178.408561,35.520649 181.267824,34.3444745 183.376953,32.2421935 C185.486082,30.1399125 186.671549,27.2844898 186.671533,24.3065693 L186.671533,15.8905109 C186.671533,12.9189247 185.491075,10.0690469 183.389846,7.96781818 C181.288618,5.86658942 178.438739,4.68613139 175.467153,4.68613139 Z" id="Path" fill="#7DC557" fill-rule="nonzero"></path>
                <path d="M175.846715,5.27737226 L135.70073,5.27737226 C132.726606,5.28316909 129.876814,6.47119985 127.77927,8.57969657 C125.681727,10.6881933 124.508555,13.5441343 124.518248,16.5182482 L124.518248,24.8978102 C124.518248,31.0858182 129.53462,36.1021898 135.722628,36.1021898 L138.642336,36.1021898 L138.642336,47.0948905 L150.883212,36.1021898 L175.824818,36.1021898 C178.800196,36.1080049 181.655703,34.9301145 183.76167,32.8282551 C185.867637,30.7263957 187.051101,27.8731944 187.051095,24.8978102 L187.051095,16.5182482 C187.060795,13.5403435 185.88462,10.6810808 183.782339,8.57195197 C181.680058,6.46282307 178.824636,5.27735647 175.846715,5.27737226 Z" id="Path" stroke="#58A438" stroke-width="1.93" stroke-linecap="round" stroke-linejoin="round"></path>
                <circle id="Oval" fill="#FFFFFF" fill-rule="nonzero" cx="141.124088" cy="20.1021898" r="3.25547445"></circle>
                <circle id="Oval" fill="#FFFFFF" fill-rule="nonzero" cx="154.328467" cy="20.1021898" r="3.25547445"></circle>
                <circle id="Oval" fill="#FFFFFF" fill-rule="nonzero" cx="168.218978" cy="20.1021898" r="3.25547445"></circle>
            </g>
        </g>
    </g>
</svg>