
<svg width="126px" height="126px" viewBox="0 0 126 126" version="1.1" xmlns="http://www.w3.org/2000/svg" xmlns:xlink="http://www.w3.org/1999/xlink">
    <g id="Page-1" stroke="none" stroke-width="1" fill="none" fill-rule="evenodd">
        <g id="Desktop-HD-Copy-2" transform="translate(-657.000000, -797.000000)" fill-rule="nonzero">
            <g id="Everything" transform="translate(513.000000, 675.000000)">
                <g id="computer-(1)" transform="translate(144.000000, 122.000000)">
                    <polygon id="Path" fill="#B5E2EB" points="45.3245086 101.476181 80.5303345 101.476181 80.5303345 119.332397 45.3245086 119.332397"></polygon>
                    <path d="M119.393921,104.836899 L6.46092218,104.836899 C2.8925628,104.836899 0,101.944336 0,98.3759766 L0,6.46092218 C0,2.8925628 2.8925628,0 6.46092218,0 L119.39296,0 C122.961319,0 125.854843,2.8925628 125.854843,6.46092218 L125.854843,98.3759766 C125.854843,101.944336 122.96228,104.836899 119.393921,104.836899 Z" id="Path" fill="#F7EB92"></path>
                    <path d="M125.855804,6.46188342 L125.855804,98.3759766 C125.855804,101.945297 122.963242,104.836899 119.393921,104.836899 L111.502579,104.836899 C115.070938,104.836899 117.963501,101.944336 117.963501,98.3759766 L117.963501,6.46188342 C117.963501,2.89352405 115.070938,0.000961303711 111.502579,0.000961303711 L119.393921,0.000961303711 C122.963242,0.000961303711 125.855804,2.89352405 125.855804,6.46188342 Z" id="Path" fill="#FAD078"></path>
                    <path d="M125.854843,89.2714691 L0,89.2714691 L0,98.3759766 C0,101.944336 2.8925628,104.836899 6.46092218,104.836899 L119.39296,104.836899 C122.961319,104.836899 125.854843,101.944336 125.854843,98.3759766 L125.854843,89.2714691 Z" id="Path" fill="#E4F2F5"></path>
                    <path d="M125.855804,89.2705078 L125.855804,98.3759766 C125.855804,101.945297 122.963242,104.836899 119.393921,104.836899 L111.502579,104.836899 C115.070938,104.836899 117.963501,101.944336 117.963501,98.3759766 L117.963501,89.2705078 L125.855804,89.2705078 Z" id="Path" fill="#B5E2EB"></path>
                    <path d="M125.999039,22.0407715 L0.140350219,22.0407715 L0.140350219,6.46092218 C0.140350219,2.8925628 3.03291327,0 6.60031116,0 L119.538117,0 C123.106476,0 125.998078,2.8925628 125.998078,6.46092218 L125.999039,22.0407715 L125.999039,22.0407715 Z" id="Path" fill="#E4F2F5"></path>
                    <path d="M126,6.4589997 L126,22.0417327 L117.963501,22.0417327 L117.963501,6.4589997 C117.963501,2.89352405 115.070938,0.000961303711 111.502579,0.000961303711 L119.539078,0.000961303711 C123.107437,0.000961303711 126,2.89352405 126,6.4589997 Z" id="Path" fill="#B5E2EB"></path>
                    <path d="M15.7855682,10.9665527 C15.7855682,12.9968262 14.1398162,14.6416169 12.1105043,14.6416169 C10.0802308,14.6416169 8.43447888,12.9968262 8.43447888,10.9665527 C8.43447888,8.93724054 10.0802308,7.29148859 12.1105043,7.29148859 C14.1398162,7.29148859 15.7855682,8.93724054 15.7855682,10.9665527 Z" id="Path" fill="#FF998C"></path>
                    <path d="M29.9782562,10.9665527 C29.9782562,12.9968262 28.3325042,14.6416169 26.303192,14.6416169 C24.2738801,14.6416169 22.6281281,12.9968262 22.6281281,10.9665527 C22.6281281,8.93724054 24.2738801,7.29148859 26.303192,7.29148859 C28.3325042,7.29148859 29.9782562,8.93724054 29.9782562,10.9665527 Z" id="Path" fill="#F7EB92"></path>
                    <path d="M44.1719056,10.9665527 C44.1719056,12.9968262 42.5261537,14.6416169 40.4968415,14.6416169 C38.4665681,14.6416169 36.8208161,12.9968262 36.8208161,10.9665527 C36.8208161,8.93724054 38.4665681,7.29148859 40.4968415,7.29148859 C42.5261537,7.29148859 44.1719056,8.93724054 44.1719056,10.9665527 Z" id="Path" fill="#67B6A2"></path>
                    <path d="M15.7836457,10.967514 C15.7836457,12.9968262 14.1398162,14.6406556 12.1114655,14.6406556 C11.1280518,14.6406556 10.2340394,14.2551727 9.5755462,13.6245574 C11.5635223,13.5812988 13.1650544,11.9557342 13.1650544,9.95429999 C13.1650544,8.90647882 12.7266999,7.96343994 12.0249481,7.2953338 C12.0528258,7.29244983 12.0835875,7.29244983 12.1114655,7.29244983 C14.1398162,7.29244983 15.7836457,8.9362793 15.7836457,10.967514 Z" id="Path" fill="#F47C6F"></path>
                    <path d="M29.9772949,10.967514 C29.9772949,12.9968262 28.3334655,14.6406556 26.3022308,14.6406556 C25.3197785,14.6406556 24.4286499,14.2551727 23.7672729,13.6245574 C25.758133,13.5812988 27.3587036,11.9557342 27.3587036,9.95429999 C27.3587036,8.90647882 26.9203491,7.96343994 26.2185973,7.2953338 C26.2464753,7.29244983 26.274353,7.29244983 26.303192,7.29244983 C28.3344269,7.29244983 29.9772949,8.9362793 29.9772949,10.967514 Z" id="Path" fill="#FAD078"></path>
                    <path d="M44.1719056,10.967514 C44.1719056,12.9968262 42.5251922,14.6406556 40.4968415,14.6406556 C39.514389,14.6406556 38.6222991,14.2551727 37.9618834,13.6245574 C39.9527435,13.5812988 41.5504304,11.9557342 41.5504304,9.95429999 C41.5504304,8.90647882 41.1120759,7.96343994 40.4112855,7.2953338 C40.4382018,7.29244983 40.4689635,7.29244983 40.4968415,7.29244983 C42.5251922,7.29244983 44.1719056,8.9362793 44.1719056,10.967514 Z" id="Path" fill="#009184"></path>
                    <path d="M91.9390869,125.858688 L33.9157562,125.858688 C33.2168883,125.858688 32.6497192,125.291519 32.6497192,124.592651 L32.6497192,120.487884 C32.6497192,117.70491 34.9058991,115.449692 37.6888734,115.449692 L88.1659699,115.449692 C90.948944,115.449692 93.2051238,117.70491 93.2051238,120.487884 L93.2051238,124.592651 C93.2051238,125.291519 92.6379548,125.858688 91.9390869,125.858688 L91.9390869,125.858688 Z" id="Path" fill="#E4F2F5"></path>
                    <path d="M93.2051238,120.487884 L93.2051238,124.592651 C93.2051238,125.29248 92.6379548,125.85965 91.9381257,125.85965 L87.4680633,125.85965 L87.4680633,120.486923 C87.4680633,117.705872 85.2109222,115.449692 82.4298706,115.449692 L88.1669312,115.449692 C90.948944,115.449692 93.2051238,117.70491 93.2051238,120.487884 L93.2051238,120.487884 Z" id="Path" fill="#B5E2EB"></path>
                    <polygon id="Path" fill="#4A436B" points="0.140350219 22.0407715 62.674118 22.0407715 62.674118 89.1340026 0.140350219 89.1340026"></polygon>
                    <polygon id="Path" fill="#323A4F" points="56.7496031 22.0407715 62.674118 22.0407715 62.674118 89.1340026 56.7496031 89.1340026"></polygon>
                    <g id="Group" transform="translate(8.121094, 27.562500)">
                        <path d="M11.4952699,3.89520264 L1.86973566,3.89520264 C0.850753723,3.89520264 0.0240325313,3.06848145 0.0240325313,2.04949951 C0.0240325313,1.03051758 0.850753723,0.203796387 1.86973566,0.203796387 L11.4952699,0.203796387 C12.5142516,0.203796387 13.340973,1.03051758 13.340973,2.04949951 C13.340973,3.06848145 12.5142516,3.89520264 11.4952699,3.89520264 Z" id="Path" fill="#E4F2F5"></path>
                        <path d="M22.6396638,3.89520264 L18.0802002,3.89520264 C17.0612183,3.89520264 16.2344971,3.06848145 16.2344971,2.04949951 C16.2344971,1.03051758 17.0612183,0.203796387 18.0802002,0.203796387 L22.6396638,0.203796387 C23.6586457,0.203796387 24.4853669,1.03051758 24.4853669,2.04949951 C24.4853669,3.06848145 23.6586457,3.89520264 22.6396638,3.89520264 Z" id="Path" fill="#E4F2F5"></path>
                        <path d="M16.3075562,10.6012573 L9.97544855,10.6012573 C8.95550537,10.6012573 8.12974542,9.77453613 8.12974542,8.7555542 C8.12974542,7.73561102 8.95550537,6.90985107 9.97544855,6.90985107 L16.3075562,6.90985107 C17.3265381,6.90985107 18.1532593,7.73561102 18.1532593,8.7555542 C18.1532593,9.77453613 17.3265381,10.6012573 16.3075562,10.6012573 Z" id="Path" fill="#E4F2F5"></path>
                        <path d="M19.3462371,17.5466766 L16.053772,17.5466766 C15.03479,17.5466766 14.2080688,16.7199554 14.2080688,15.7009734 C14.2080688,14.6810303 15.03479,13.8552703 16.053772,13.8552703 L19.3462371,13.8552703 C20.3661803,13.8552703 21.1919402,14.6810303 21.1919402,15.7009734 C21.1919402,16.7199554 20.3661803,17.5466766 19.3462371,17.5466766 Z" id="Path" fill="#E4F2F5"></path>
                        <path d="M46.1944886,17.5466766 L39.862381,17.5466766 C38.8433991,17.5466766 38.0166779,16.7199554 38.0166779,15.7009734 C38.0166779,14.6810303 38.8433991,13.8552703 39.862381,13.8552703 L46.1944886,13.8552703 C47.2144318,13.8552703 48.0401918,14.6810303 48.0401918,15.7009734 C48.0401918,16.7199554 47.2144318,17.5466766 46.1944886,17.5466766 Z" id="Path" fill="#E4F2F5"></path>
                        <path d="M37.3293457,10.6012573 L22.1330566,10.6012573 C21.1140747,10.6012573 20.2873535,9.77453613 20.2873535,8.7555542 C20.2873535,7.73561102 21.1140747,6.90985107 22.1330566,6.90985107 L37.3293457,6.90985107 C38.3492889,6.90985107 39.1750488,7.73561102 39.1750488,8.7555542 C39.1750488,9.77453613 38.3492889,10.6012573 37.3293457,10.6012573 Z" id="Path" fill="#E4F2F5"></path>
                        <path d="M34.0368806,17.5466766 L24.9189147,17.5466766 C23.899933,17.5466766 23.0732115,16.7199554 23.0732115,15.7009734 C23.0732115,14.6810303 23.899933,13.8552703 24.9189147,13.8552703 L34.0368806,13.8552703 C35.0568237,13.8552703 35.8825837,14.6810303 35.8825837,15.7009734 C35.8825837,16.7199554 35.0568237,17.5466766 34.0368806,17.5466766 Z" id="Path" fill="#E4F2F5"></path>
                        <path d="M11.4952699,42.1675872 L1.86973566,42.1675872 C0.850753723,42.1675872 0.0240325313,41.340866 0.0240325313,40.3218841 C0.0240325313,39.3019409 0.850753723,38.476181 1.86973566,38.476181 L11.4952699,38.476181 C12.5142516,38.476181 13.340973,39.3019409 13.340973,40.3218841 C13.340973,41.340866 12.5142516,42.1675872 11.4952699,42.1675872 Z" id="Path" fill="#E4F2F5"></path>
                        <path d="M22.6396638,42.1675872 L18.0802002,42.1675872 C17.0612183,42.1675872 16.2344971,41.340866 16.2344971,40.3218841 C16.2344971,39.3019409 17.0612183,38.476181 18.0802002,38.476181 L22.6396638,38.476181 C23.6586457,38.476181 24.4853669,39.3019409 24.4853669,40.3218841 C24.4853669,41.340866 23.6586457,42.1675872 22.6396638,42.1675872 Z" id="Path" fill="#E4F2F5"></path>
                        <path d="M16.3075562,48.8726807 L9.97544855,48.8726807 C8.95550537,48.8726807 8.12974542,48.0469207 8.12974542,47.0269775 C8.12974542,46.0079956 8.95550537,45.1812744 9.97544855,45.1812744 L16.3075562,45.1812744 C17.3265381,45.1812744 18.1532593,46.0079956 18.1532593,47.0269775 C18.1532593,48.0469207 17.3265381,48.8726807 16.3075562,48.8726807 Z" id="Path" fill="#E4F2F5"></path>
                        <path d="M19.3462371,55.8180999 L16.053772,55.8180999 C15.03479,55.8180999 14.2080688,54.9923402 14.2080688,53.9723968 C14.2080688,52.9534149 15.03479,52.1266937 16.053772,52.1266937 L19.3462371,52.1266937 C20.3661803,52.1266937 21.1919402,52.9534149 21.1919402,53.9723968 C21.1919402,54.9923402 20.3661803,55.8180999 19.3462371,55.8180999 Z" id="Path" fill="#E4F2F5"></path>
                        <path d="M46.1944886,55.8180999 L39.862381,55.8180999 C38.8433991,55.8180999 38.0166779,54.9923402 38.0166779,53.9723968 C38.0166779,52.9534149 38.8433991,52.1266937 39.862381,52.1266937 L46.1944886,52.1266937 C47.2144318,52.1266937 48.0401918,52.9534149 48.0401918,53.9723968 C48.0401918,54.9923402 47.2144318,55.8180999 46.1944886,55.8180999 Z" id="Path" fill="#E4F2F5"></path>
                        <path d="M37.3293457,48.8726807 L22.1330566,48.8726807 C21.1140747,48.8726807 20.2873535,48.0469207 20.2873535,47.0269775 C20.2873535,46.0079956 21.1140747,45.1812744 22.1330566,45.1812744 L37.3293457,45.1812744 C38.3492889,45.1812744 39.1750488,46.0079956 39.1750488,47.0269775 C39.1750488,48.0469207 38.3492889,48.8726807 37.3293457,48.8726807 Z" id="Path" fill="#E4F2F5"></path>
                        <path d="M34.0368806,55.8180999 L24.9189147,55.8180999 C23.899933,55.8180999 23.0732115,54.9923402 23.0732115,53.9723968 C23.0732115,52.9534149 23.899933,52.1266937 24.9189147,52.1266937 L34.0368806,52.1266937 C35.0568237,52.1266937 35.8825837,52.9534149 35.8825837,53.9723968 C35.8825837,54.9923402 35.0568237,55.8180999 34.0368806,55.8180999 Z" id="Path" fill="#E4F2F5"></path>
                        <path d="M7.18862927,26.2503205 L1.86973566,26.2503205 C0.850753723,26.2503205 0.0240325313,25.4245605 0.0240325313,24.4046174 C0.0240325313,23.3856354 0.850753723,22.5589142 1.86973566,22.5589142 L7.18862927,22.5589142 C8.20857245,22.5589142 9.0343324,23.3856354 9.0343324,24.4046174 C9.0343324,25.4245605 8.20857245,26.2503205 7.18862927,26.2503205 Z" id="Path" fill="#E4F2F5"></path>
                        <path d="M32.0104523,26.2503205 L12.5075226,26.2503205 C11.4885407,26.2503205 10.6618195,25.4245605 10.6618195,24.4046174 C10.6618195,23.3856354 11.4885407,22.5589142 12.5075226,22.5589142 L32.0104523,22.5589142 C33.0303955,22.5589142 33.8561555,23.3856354 33.8561555,24.4046174 C33.8561555,25.4245605 33.0303955,26.2503205 32.0104523,26.2503205 Z" id="Path" fill="#E4F2F5"></path>
                        <path d="M28.4651642,32.9563752 L9.97544855,32.9563752 C8.95550537,32.9563752 8.12974542,32.129654 8.12974542,31.1106721 C8.12974542,30.0916901 8.95550537,29.2649689 9.97544855,29.2649689 L28.4642028,29.2649689 C29.4841462,29.2649689 30.3099059,30.0916901 30.3099059,31.1106721 C30.3099059,32.129654 29.4841462,32.9563752 28.4651642,32.9563752 Z" id="Path" fill="#E4F2F5"></path>
                        <path d="M37.3293457,32.9563752 L33.7840576,32.9563752 C32.7641144,32.9563752 31.9383545,32.129654 31.9383545,31.1106721 C31.9383545,30.0916901 32.7641144,29.2649689 33.7840576,29.2649689 L37.3293457,29.2649689 C38.3492889,29.2649689 39.1750488,30.0916901 39.1750488,31.1106721 C39.1750488,32.129654 38.3492889,32.9563752 37.3293457,32.9563752 Z" id="Path" fill="#E4F2F5"></path>
                        <path d="M76.9379426,47.7133483 L64.7803345,47.7133483 C63.7613525,47.7133483 62.9346313,46.8866273 62.9346313,45.8676451 C62.9346313,44.8486635 63.7613525,44.021942 64.7803345,44.021942 L76.9379426,44.021942 C77.9578857,44.021942 78.7836457,44.8486635 78.7836457,45.8676451 C78.7836457,46.8866273 77.9578857,47.7133483 76.9379426,47.7133483 L76.9379426,47.7133483 Z" id="Path" fill="#323A4F"></path>
                        <path d="M107.83905,47.7133483 L83.776657,47.7133483 C82.7576751,47.7133483 81.9309539,46.8866273 81.9309539,45.8676451 C81.9309539,44.8486635 82.7576751,44.021942 83.776657,44.021942 L107.83905,44.021942 C108.858032,44.021942 109.684753,44.8486635 109.684753,45.8676451 C109.684753,46.8866273 108.858032,47.7133483 107.83905,47.7133483 Z" id="Path" fill="#323A4F"></path>
                        <path d="M76.9379426,55.0586701 L64.7803345,55.0586701 C63.7613525,55.0586701 62.9346313,54.2319489 62.9346313,53.212967 C62.9346313,52.193985 63.7613525,51.3672639 64.7803345,51.3672639 L76.9379426,51.3672639 C77.9578857,51.3672639 78.7836457,52.193985 78.7836457,53.212967 C78.7836457,54.2319489 77.9578857,55.0586701 76.9379426,55.0586701 L76.9379426,55.0586701 Z" id="Path" fill="#323A4F"></path>
                        <path d="M107.83905,55.0586701 L83.776657,55.0586701 C82.7576751,55.0586701 81.9309539,54.2319489 81.9309539,53.212967 C81.9309539,52.193985 82.7576751,51.3672639 83.776657,51.3672639 L107.83905,51.3672639 C108.858032,51.3672639 109.684753,52.193985 109.684753,53.212967 C109.684753,54.2319489 108.858032,55.0586701 107.83905,55.0586701 Z" id="Path" fill="#323A4F"></path>
                    </g>
                    <path d="M113.008942,65.8598786 L75.8516693,65.8598786 C74.1905364,65.8598786 72.8427888,64.5130922 72.8427888,62.8509979 L72.8427888,32.6208802 C72.8427888,30.9597474 74.1905364,29.6119995 75.8516693,29.6119995 L113.008942,29.6119995 C114.671036,29.6119995 116.017822,30.9597474 116.017822,32.6208802 L116.017822,62.8509979 C116.017822,64.5121307 114.671036,65.8598786 113.008942,65.8598786 L113.008942,65.8598786 Z" id="Path" fill="#E4F2F5"></path>
                    <path d="M116.018784,32.6208802 L116.018784,62.8509979 C116.018784,64.5121307 114.670075,65.8598786 113.009903,65.8598786 L108.092834,65.8598786 C109.754929,65.8598786 111.103638,64.5111694 111.103638,62.8509979 L111.103638,32.6208802 C111.103638,30.9578247 109.754929,29.6119995 108.092834,29.6119995 L113.009903,29.6119995 C114.671036,29.6119995 116.018784,30.9578247 116.018784,32.6208802 Z" id="Path" fill="#BCD9E0"></path>
                    <path d="M103.773697,46.3204192 L97.620392,52.4708405 L89.5194855,43.3413392 C89.0965119,42.8645326 88.3582307,42.8424225 87.9073793,43.2932739 L72.8427888,58.350174 L72.8427888,62.8500366 C72.8427888,64.5121307 74.1905364,65.8589174 75.8516693,65.8589174 L113.008942,65.8589174 C114.671036,65.8589174 116.017822,64.5121307 116.017822,62.8500366 L116.017822,58.350174 L105.386764,46.3694458 C104.963791,45.8916779 104.22551,45.8695679 103.773697,46.3204192 Z" id="Path" fill="#8DCCBD"></path>
                    <path d="M116.018784,58.350174 L116.018784,62.8509979 C116.018784,64.5121307 114.670075,65.8598786 113.009903,65.8598786 L108.092834,65.8598786 C109.754929,65.8598786 111.103638,64.5121307 111.103638,62.8509979 L111.103638,52.8101807 L116.018784,58.350174 Z" id="Path" fill="#67B6A2"></path>
                </g>
            </g>
        </g>
    </g>
</svg>