<svg xmlns="http://www.w3.org/2000/svg" xmlns:xlink="http://www.w3.org/1999/xlink" viewBox="0 0 296.73 214.7"><defs><style>.cls-1{fill:#e4f2f5;}.cls-2{fill:#697494;}.cls-3,.cls-5{fill:#fff;}.cls-3{opacity:0.8;}.cls-12,.cls-15,.cls-17,.cls-4{fill:none;stroke-linecap:round;stroke-linejoin:round;stroke-width:1.93px;}.cls-4{stroke:#fff;}.cls-6{fill:url(#linear-gradient);}.cls-7{fill:url(#linear-gradient-2);}.cls-8{fill:url(#linear-gradient-3);}.cls-9{opacity:0.1;}.cls-10{fill:url(#linear-gradient-4);}.cls-11{fill:#aedcc8;}.cls-12,.cls-15,.cls-17{stroke:#4a536b;}.cls-13{fill:url(#linear-gradient-5);}.cls-14{fill:#b6e7f0;}.cls-15{stroke-dasharray:0 3.55;}.cls-16{fill:url(#linear-gradient-6);}.cls-17{stroke-dasharray:0 3.87;}.cls-18{fill:#f7d18a;}.cls-19{fill:#a3a6fa;}</style><linearGradient id="linear-gradient" x1="224.25" y1="219.98" x2="223.01" y2="175.32" gradientUnits="userSpaceOnUse"><stop offset="0" stop-color="#4a536c"/><stop offset="1" stop-color="#697494"/></linearGradient><linearGradient id="linear-gradient-2" x1="238.4" y1="219.59" x2="237.16" y2="174.93" xlink:href="#linear-gradient"/><linearGradient id="linear-gradient-3" x1="141.84" y1="195.13" x2="142.26" y2="213.74" gradientUnits="userSpaceOnUse"><stop offset="0" stop-color="#bec7d1"/><stop offset="0.88" stop-color="#969ea6"/></linearGradient><linearGradient id="linear-gradient-4" x1="69.79" y1="160.34" x2="201.75" y2="161.71" xlink:href="#linear-gradient-3"/><linearGradient id="linear-gradient-5" x1="69.64" y1="178.24" x2="67.71" y2="95.01" xlink:href="#linear-gradient"/><linearGradient id="linear-gradient-6" x1="183.33" y1="135.13" x2="273.62" y2="135.13" xlink:href="#linear-gradient"/></defs><title>Asset 3</title><g id="Layer_2" data-name="Layer 2"><g id="Layer_1-2" data-name="Layer 1"><path class="cls-1" d="M30.23,213.78C-9.36,164-5.46,89.09,46,48.06,74.32,25.45,169.58,9.34,200.78,18.34c97.17,28,108.76,117.07,63.9,195.44H9.57"/><rect class="cls-2" x="77.26" width="125.55" height="72.99"/><rect class="cls-3" x="77.26" width="125.55" height="9.18"/><circle class="cls-2" cx="86.06" cy="4.59" r="1.39"/><circle class="cls-2" cx="92.02" cy="4.59" r="1.39"/><circle class="cls-2" cx="97.98" cy="4.59" r="1.39"/><line class="cls-4" x1="92.02" y1="20.31" x2="121.99" y2="20.31"/><line class="cls-4" x1="172.84" y1="28.96" x2="183.47" y2="28.96"/><line class="cls-4" x1="110" y1="28.96" x2="165.56" y2="28.96"/><line class="cls-4" x1="92.02" y1="28.96" x2="101.65" y2="28.96"/><line class="cls-4" x1="92.02" y1="37.6" x2="134.04" y2="37.6"/><line class="cls-4" x1="107.06" y1="46.24" x2="115.5" y2="46.24"/><line class="cls-4" x1="92.02" y1="46.24" x2="102.85" y2="46.24"/><line class="cls-4" x1="92.02" y1="54.88" x2="105.07" y2="54.88"/><line class="cls-4" x1="182.41" y1="66.09" x2="192.83" y2="66.09"/><line class="cls-4" x1="128.62" y1="20.31" x2="139.45" y2="20.31"/><path class="cls-5" d="M150.48,70.57H150a4.38,4.38,0,0,0,0-.52,4.19,4.19,0,0,0-4.19-4.18,4.49,4.49,0,0,0-1,.13,6.63,6.63,0,0,0-13.19.83,5.26,5.26,0,0,0-.89-.08,5.07,5.07,0,1,0,0,10.13h19.77a3.16,3.16,0,0,0,0-6.31Z"/><path class="cls-6" d="M236.43,213.76H209.77l-2.89-35.13a3.62,3.62,0,0,1,3.61-3.92H235.7a3.62,3.62,0,0,1,3.61,3.92Z"/><path class="cls-7" d="M237.67,205.72a12.41,12.41,0,1,1,12.41-12.4A12.42,12.42,0,0,1,237.67,205.72Zm0-20a7.6,7.6,0,1,0,7.6,7.6A7.61,7.61,0,0,0,237.67,185.72Z"/><path class="cls-8" d="M68.59,201.73H215.48a0,0,0,0,1,0,0v3.82a8.53,8.53,0,0,1-8.53,8.53H77.11a8.53,8.53,0,0,1-8.53-8.53v-3.82A0,0,0,0,1,68.59,201.73Z"/><path class="cls-9" d="M207.64,208.35H76.43a7.83,7.83,0,0,1-7.74-6.62h-.1v4.51a7.84,7.84,0,0,0,7.84,7.84H207.64a7.84,7.84,0,0,0,7.84-7.84v-4.51h-.1A7.84,7.84,0,0,1,207.64,208.35Z"/><path class="cls-10" d="M84.35,120.39H199.72a5,5,0,0,1,5,5v76.31a0,0,0,0,1,0,0H79.32a0,0,0,0,1,0,0V125.42A5,5,0,0,1,84.35,120.39Z"/><rect class="cls-5" x="105.47" y="110.67" width="73.12" height="108.99" transform="translate(307.2 23.13) rotate(90)"/><rect class="cls-11" x="106.8" y="139.1" width="70.26" height="52.29"/><path class="cls-12" d="M130.91,180.32V149a1.22,1.22,0,0,1,1.9-1l23.27,15.66a1.22,1.22,0,0,1,0,2l-23.27,15.66A1.22,1.22,0,0,1,130.91,180.32Z"/><line class="cls-12" x1="25.77" y1="213.73" x2="295.76" y2="213.73"/><line class="cls-12" x1="0.97" y1="213.73" x2="20.92" y2="213.73"/><rect class="cls-13" x="45.47" y="96.82" width="46.24" height="72.2" rx="2.83"/><rect class="cls-5" x="49.01" y="99.77" width="39.14" height="61.78"/><rect class="cls-5" x="61.13" y="163.96" width="14.91" height="1.71" rx="0.61"/><rect class="cls-14" x="54" y="105.96" width="29.17" height="29.17"/><line class="cls-12" x1="54" y1="140.98" x2="83.17" y2="140.98"/><line class="cls-12" x1="54" y1="147.83" x2="83.17" y2="147.83"/><line class="cls-12" x1="54" y1="154.69" x2="70.7" y2="154.69"/><circle class="cls-12" cx="68.59" cy="120.54" r="8.94"/><line class="cls-12" x1="140.37" y1="95.94" x2="140.37" y2="95.94"/><line class="cls-15" x1="140.37" y1="99.49" x2="140.37" y2="111.93"/><line class="cls-12" x1="140.37" y1="113.71" x2="140.37" y2="113.71"/><rect class="cls-16" x="183.33" y="99.78" width="90.3" height="70.68" rx="4.35"/><rect class="cls-5" x="187.75" y="103.99" width="81.44" height="62.28"/><line class="cls-17" x1="117.57" y1="86.7" x2="94.4" y2="96.54"/><line class="cls-17" x1="160.91" y1="86.7" x2="184.07" y2="96.54"/><rect class="cls-18" x="220.5" y="111.34" width="41.67" height="47.58"/><rect class="cls-12" x="231.88" y="125.67" width="18.92" height="18.92"/><line class="cls-12" x1="193.13" y1="131.87" x2="212.81" y2="131.87"/><line class="cls-12" x1="193.13" y1="138.89" x2="202.97" y2="138.89"/><rect class="cls-12" x="192.12" y="118.89" width="22.27" height="6.03" rx="2.16"/><circle class="cls-19" cx="139.42" cy="70.41" r="20.83"/><circle class="cls-12" cx="140.99" cy="68.84" r="20.83"/><path class="cls-5" d="M151.39,70.52h-.49a4.41,4.41,0,0,0,0-.52,4.18,4.18,0,0,0-4.18-4.18,4.42,4.42,0,0,0-1,.13,6.64,6.64,0,0,0-13.2.83,5.17,5.17,0,0,0-.89-.08,5.07,5.07,0,0,0,0,10.13h19.77a3.16,3.16,0,1,0,0-6.31Z"/><path class="cls-12" d="M192.12,157.26c2.63-1.14,4.93-8,4.93-8,1,2.89.62,7.64,1.84,8,.9.25,3.25-5.39,4.08-5,1,.53.13,5.85,4.16,4.93,2.36-.53,2.75-2.05,8.35-1.57"/></g></g></svg>