
<svg width="126px" height="126px" viewBox="0 0 126 126" version="1.1" xmlns="http://www.w3.org/2000/svg" xmlns:xlink="http://www.w3.org/1999/xlink">
    <g id="Page-1" stroke="none" stroke-width="1" fill="none" fill-rule="evenodd">
        <g id="Desktop-HD-Copy-2" transform="translate(-657.000000, -371.000000)" fill-rule="nonzero">
            <g id="CMS" transform="translate(513.000000, 259.000000)">
                <g id="settings" transform="translate(144.000000, 112.000000)">
                    <path d="M126,27.373043 C126,24.3487461 123.549087,21.8978328 120.525792,21.8978328 L5.56041567,21.8978328 C2.53611876,21.8978328 0.0852055112,24.3487461 0.0852055112,27.373043 L0.0852055112,93.067544 L126,93.067544 L126,27.373043 Z" id="Path" fill="#A5D5C9"></path>
                    <g id="Group-3" transform="translate(0.000000, 6.000000)">
                        <path d="M125.858689,22.0407715 L1.27897692e-13,22.0407715 L1.27897692e-13,6.46092218 C1.27897692e-13,2.8925628 2.89256305,0 6.45996094,0 L119.397766,0 C122.966126,0 125.857727,2.8925628 125.857727,6.46092218 L125.858689,22.0407715 L125.858689,22.0407715 Z" id="Path-Copy-8" fill="#E4F2F5"></path>
                        <path d="M125.85965,6.4589997 L125.85965,22.0417327 L117.823151,22.0417327 L117.823151,6.4589997 C117.823151,2.89352405 114.930588,0.000961303711 111.362229,0.000961303711 L119.398728,0.000961303711 C122.967087,0.000961303711 125.85965,2.89352405 125.85965,6.4589997 Z" id="Path-Copy-7" fill="#B5E2EB"></path>
                        <path d="M15.645218,10.9665527 C15.645218,12.9968262 13.999466,14.6416169 11.9701541,14.6416169 C9.93988062,14.6416169 8.29412866,12.9968262 8.29412866,10.9665527 C8.29412866,8.93724054 9.93988062,7.29148859 11.9701541,7.29148859 C13.999466,7.29148859 15.645218,8.93724054 15.645218,10.9665527 Z" id="Path-Copy-6" fill="#FF998C"></path>
                        <path d="M29.8379059,10.9665527 C29.8379059,12.9968262 28.192154,14.6416169 26.1628418,14.6416169 C24.1335298,14.6416169 22.4877779,12.9968262 22.4877779,10.9665527 C22.4877779,8.93724054 24.1335298,7.29148859 26.1628418,7.29148859 C28.192154,7.29148859 29.8379059,8.93724054 29.8379059,10.9665527 Z" id="Path-Copy-5" fill="#F7EB92"></path>
                        <path d="M44.0315554,10.9665527 C44.0315554,12.9968262 42.3858035,14.6416169 40.3564913,14.6416169 C38.3262178,14.6416169 36.6804659,12.9968262 36.6804659,10.9665527 C36.6804659,8.93724054 38.3262178,7.29148859 40.3564913,7.29148859 C42.3858035,7.29148859 44.0315554,8.93724054 44.0315554,10.9665527 Z" id="Path-Copy-4" fill="#67B6A2"></path>
                        <path d="M15.6432955,10.967514 C15.6432955,12.9968262 13.999466,14.6406556 11.9711153,14.6406556 C10.9877015,14.6406556 10.0936892,14.2551727 9.43519598,13.6245574 C11.4231721,13.5812988 13.0247042,11.9557342 13.0247042,9.95429999 C13.0247042,8.90647882 12.5863497,7.96343994 11.8845978,7.2953338 C11.9124756,7.29244983 11.9432373,7.29244983 11.9711153,7.29244983 C13.999466,7.29244983 15.6432955,8.9362793 15.6432955,10.967514 Z" id="Path-Copy-3" fill="#F47C6F"></path>
                        <path d="M29.8369447,10.967514 C29.8369447,12.9968262 28.1931152,14.6406556 26.1618806,14.6406556 C25.1794283,14.6406556 24.2882997,14.2551727 23.6269227,13.6245574 C25.6177828,13.5812988 27.2183534,11.9557342 27.2183534,9.95429999 C27.2183534,8.90647882 26.7799989,7.96343994 26.0782471,7.2953338 C26.1061251,7.29244983 26.1340028,7.29244983 26.1628418,7.29244983 C28.1940767,7.29244983 29.8369447,8.9362793 29.8369447,10.967514 Z" id="Path-Copy-2" fill="#FAD078"></path>
                        <path d="M44.0315554,10.967514 C44.0315554,12.9968262 42.384842,14.6406556 40.3564913,14.6406556 C39.3740388,14.6406556 38.4819489,14.2551727 37.8215332,13.6245574 C39.8123933,13.5812988 41.4100801,11.9557342 41.4100801,9.95429999 C41.4100801,8.90647882 40.9717256,7.96343994 40.2709353,7.2953338 C40.2978516,7.29244983 40.3286133,7.29244983 40.3564913,7.29244983 C42.384842,7.29244983 44.0315554,8.9362793 44.0315554,10.967514 Z" id="Path-Copy" fill="#009184"></path>
                    </g>
                    <path d="M0.0852055112,93.067544 L0.0852055112,104.015959 C0.0852055112,107.040256 2.53611876,109.491169 5.56041567,109.491169 L120.525792,109.491169 C123.549087,109.491169 126,107.040256 126,104.015959 L126,93.067544 L0.0852055112,93.067544 Z" id="Path" fill="#E4F2F5"></path>
                    <polygon id="Path" fill="#B5E2EB" points="46.6194788 109.491169 79.4667293 109.491169 79.4667293 125.914794 46.6194788 125.914794"></polygon>
                    <path d="M76.7291242,16.4236253 L76.7291242,5.47420755 C76.7381459,2.45492292 79.1840472,0.00902175397 82.2033318,0 L120.525792,0 C123.545077,0.00902175397 125.990978,2.45492292 126,5.47420755 L126,16.4236253 C125.990978,19.4429099 123.545077,21.8888111 120.525792,21.8978328 L82.2033318,21.8978328 C79.1840472,21.8888111 76.7381459,19.4429099 76.7291242,16.4236253 Z" id="Path" fill="#F7EB92"></path>
                    <polygon id="Path" fill="#E4F2F5" points="38.4076662 120.439584 87.6785419 120.439584 87.6785419 125.914794 38.4076662 125.914794"></polygon>
                    <g id="Group" transform="translate(84.940937, 8.211813)" fill="#FAD078">
                        <path d="M18.3592955,32.0453157 L14.487955,28.1749778 L21.8978328,20.7651 L21.8978328,13.6860202 L27.373043,13.6860202 L27.373043,21.8978328 C27.373043,22.6235838 27.0843464,23.3202648 26.5711081,23.8335031 L18.3592955,32.0453157 Z" id="Path"></path>
                        <polygon id="Path" points="0 0 5.47420755 0 5.47420755 5.47420755 0 5.47420755"></polygon>
                        <polygon id="Path" points="10.9494177 0 32.8472505 0 32.8472505 5.47420755 10.9494177 5.47420755"></polygon>
                    </g>
                    <path d="M13.7722283,43.7966682 L8.29701814,43.7966682 L8.29701814,38.3214581 C8.29701814,33.7865166 11.9738893,30.1096454 16.5088308,30.1096454 L21.9840409,30.1096454 L21.9840409,35.5848556 L16.5088308,35.5848556 C14.9971836,35.5848556 13.7722283,36.8098109 13.7722283,38.3214581 L13.7722283,43.7966682 Z" id="Path" fill="#67B6A2"></path>
                    <polygon id="Path" fill="#67B6A2" points="8.29701814 49.2708758 13.7722283 49.2708758 13.7722283 54.7450833 8.29701814 54.7450833"></polygon>
                    <polygon id="Path" fill="#4A536B" points="90.416147 100.458376 97.8059762 93.0685463 106.428781 101.691351 99.0389511 109.08118"></polygon>
                    <path d="M118.993094,121.644492 C118.015736,122.630871 116.685527,123.185209 115.297177,123.185209 C113.908828,123.185209 112.578618,122.630871 111.602263,121.644492 L99.0379488,109.080178 L106.428781,101.689346 L118.993094,114.253659 C119.978472,115.230015 120.533812,116.561227 120.533812,117.948574 C120.533812,119.336924 119.978472,120.667133 118.993094,121.644492 L118.993094,121.644492 Z" id="Path" fill="#E4F2F5"></path>
                    <path d="M120.927762,112.317989 L99.7416464,91.1318737 C98.6720658,90.0632957 96.9398866,90.0632957 95.8713086,91.1318737 L94.1110616,92.8921207 L84.139002,82.9200611 L80.2686641,86.790399 L90.2407237,96.7624586 L88.4804768,98.5227055 C87.4118985,99.5912838 87.4118985,101.324465 88.4804768,102.393043 L109.666592,123.579159 C111.160196,125.080782 113.191096,125.920809 115.308204,125.914794 L115.335269,125.914794 C118.554035,125.90477 121.450022,123.958074 122.673975,120.981893 C123.897928,118.00471 123.209267,114.583455 120.927762,112.312977 L120.927762,112.317989 Z M97.8059762,96.9378819 L102.558443,101.689346 L99.0379488,105.20984 L94.2864849,100.457373 L97.8059762,96.9378819 Z M117.046398,119.719848 C116.592302,120.18096 115.971805,120.440587 115.324243,120.439584 C114.650617,120.478679 113.995036,120.207023 113.54495,119.703809 L102.908287,109.080178 L106.428781,105.559684 L117.057424,116.18933 C117.532571,116.658462 117.799214,117.300009 117.796207,117.968623 C117.794202,118.629217 117.523549,119.261743 117.046398,119.719848 L117.046398,119.719848 Z" id="Shape" fill="#323A4F"></path>
                    <path d="M83.5445679,86.1969672 L79.6581911,90.0562787 L73.390068,83.7881554 C71.0554353,85.2777495 68.4812245,86.3513398 65.7797065,86.962815 L65.7797065,95.8041464 L54.8312914,95.8041464 L54.8312914,86.962815 C52.1297734,86.3513398 49.5555626,85.2777495 47.2209299,83.7881554 L40.9528069,90.0562787 L33.2061165,82.3095883 L39.4752419,76.041465 C37.985648,73.7068323 36.9110554,71.1326215 36.2995799,68.4321061 L27.4582485,68.4321061 L27.4582485,57.4826884 L36.2995799,57.4826884 C36.9110554,54.7821727 37.985648,52.2069596 39.4752419,49.8733292 L33.2061165,43.6052062 L40.9528069,35.8585158 L47.2209299,42.1266388 C49.5555626,40.637045 52.1297734,39.5624523 54.8312914,38.9509769 L54.8312914,30.1096454 L65.7797065,30.1096454 L65.7797065,38.9509769 C68.4812245,39.5624523 71.0554353,40.637045 73.390068,42.1266388 L79.6581911,35.8585158 L87.4048815,43.6052062 L81.1357561,49.8733292 C82.6253499,52.2069596 83.6999426,54.7821727 84.311418,57.4826884 L93.1527495,57.4826884 L93.1527495,68.4321061 L84.311418,68.4321061 C83.6999426,71.1326215 82.6253499,73.7068323 81.1357561,76.041465 L87.4048815,82.3095883 L83.5445679,86.1969672 Z M68.5173116,62.9568959 C68.5173116,58.4219545 64.8404404,54.7450833 60.305499,54.7450833 C55.7705575,54.7450833 52.0936864,58.4219545 52.0936864,62.9568959 C52.0936864,67.4928397 55.7705575,71.1687086 60.305499,71.1687086 C64.8404404,71.1687086 68.5173116,67.4928397 68.5173116,62.9568959 Z" id="Shape" fill="#67B6A2"></path>
                    <path d="M60.305499,73.9063136 C54.2589104,73.9063136 49.3560813,69.0044871 49.3560813,62.9568959 C49.3560813,56.9103073 54.2589104,52.0084808 60.305499,52.0084808 C66.3520876,52.0084808 71.2549167,56.9103073 71.2549167,62.9568959 C71.2549167,69.0044871 66.3520876,73.9063136 60.305499,73.9063136 L60.305499,73.9063136 Z M60.305499,57.4826884 C57.2822047,57.4826884 54.8312914,59.9336016 54.8312914,62.9568959 C54.8312914,65.9811928 57.2822047,68.4321061 60.305499,68.4321061 C63.3287933,68.4321061 65.7797065,65.9811928 65.7797065,62.9568959 C65.7797065,59.9336016 63.3287933,57.4826884 60.305499,57.4826884 L60.305499,57.4826884 Z" id="Shape" fill="#323A4F"></path>
                </g>
            </g>
        </g>
    </g>
</svg>