<svg xmlns="http://www.w3.org/2000/svg" viewBox="0 0 174.45 182.51"><defs><style>.cls-1{fill:#eeeef1;}</style></defs><title>Asset 6</title><g id="Layer_2" data-name="Layer 2"><g id="Layer_1-2" data-name="Layer 1"><path class="cls-1" d="M169.51,36.68c-6.13-4.57-11.7-10.65-12.22-14.75A104.64,104.64,0,0,0,170.64,1.55a1.08,1.08,0,0,0-.49-1.44,1.39,1.39,0,0,0-.33-.1,1.08,1.08,0,0,0-1.11.59,107.58,107.58,0,0,1-20.09,27.69C141.47,31,131.87,29.37,124,20.93c-9-9.66-20.23,3.76-20.23,3.76,4.35-.81,8.32-1.09,18.7,7.08,9.21,7.25,12.44,6,21.45,1.13A224.81,224.81,0,0,1,116.65,54l.82-.93c-8.33,4.1-11.06,1-20.21-8.08s-18.49.92-18.49.92c6.27,0,8.88,1.25,17.56,8.73,7.13,6.14,9.75,4.82,14.28,3.37-3.62,2.38-7.26,4.71-10.88,7-3.92,2.51-7.85,5-11.76,7.6-10.91,1.82-7.23-6.13-15.62-12.81-9.29-7.38-17.85-.14-17.85-.14,7.53,2,12,2.85,14.68,8.66S70.43,75.41,83,75.9c-1.79,1.21-3.57,2.42-5.34,3.66l-.33,0-.44.49q-3.09,2.18-6.11,4.43C63.48,84.84,60.57,79,54.86,73.2c-7-7.12-22.17,1.27-22.17,1.27,6.46-1.21,16.16,5.11,21.25,10.86,3.9,4.42,5.48,5,9.8,4.69a159.14,159.14,0,0,0-13.46,12.22c-6.73.62-10.26-6.85-17.9-13.62-8-7.12-21.41-.4-21.41-.4,5.43-.78,14.63,4.42,20.91,8.22s10.17,8.7,16.87,7.4a115.47,115.47,0,0,0-9.49,11.37c-3.26.73-10.74,2.35-12.78,2.31C23.84,117.46,17.2,115,8,116.15S.06,128.41.06,128.41c1.29-4.8,11.51-6.62,20.9-4.83,9.21,1.76,7.17,3.72,15.39-4.14a101,101,0,0,0-12,25.14c-3.5,1.06-9.77,3.74-10.57,9.41-1.12,7.93,5.93,28.52,5.93,28.52.75-4.44,2.78-16.4,8.11-22.18s5.88-7.56-1.05-16.25a98.75,98.75,0,0,1,9.31-20.19l-.21,1.68c-1.54,5.55,2.75,9.84,6.57,12S58,146,57,151.8c0,0,5.85-12.18-1.07-15.51a62.11,62.11,0,0,1-12-7.2c-3.18-2.25-6.35-2.58-7.21-6.13A113.38,113.38,0,0,1,52.9,102.67c-2.86,6.18-3.18,8.73,1.49,11.42,5.28,3,13.71,12.28,12.78,18.86,0,0,4.16-18.07-4.42-25.5-6.86-6-7.63-5.58-7-7.6,3.78-3.59,7.76-7,11.87-10.2l.84-.09,4.79-3.73C72,89.65,73,94,79.87,98.7,91,106.18,91.73,110.48,92,119.29c0,0,9.43-8.4,1.33-19.94-6.94-9.89-16.48-12.21-15.51-17.23,5.44-3.84,11-7.53,16.61-11.14-1.66,3.58-.81,7.87,3,10.88,5.6,4.38,15,13.18,10.4,17.5,0,0,11.4-4.61,3.32-17.26-6.64-10.4-12.78-10.72-11.61-14.43l1.35-.86c8.32-5.34,16.72-10.73,24.81-16.52-2.48,4.74-.83,11.14,5.11,15.56,7.65,5.7,11.45,8.7,9.85,17.55,0,0,9.4-11.62.8-20.59-7.92-8.25-12-10.15-9.53-17.12a161.12,161.12,0,0,0,22-19.85c-3.23,7.59-3.71,9.27,5.23,16.81,10,8.45,12.24,8.76,10.08,15.5C169.2,58.15,180.8,45.1,169.51,36.68Z"/></g></g></svg>