<svg xmlns="http://www.w3.org/2000/svg" viewBox="0 0 968.43 778.45"><defs><style>.cls-1{fill:#4a536b;}.cls-2{fill:#ff998c;}.cls-3{fill:#fad078;}.cls-4{fill:#ffef7a;}</style></defs><title>MAIN</title><g id="Layer_2" data-name="Layer 2"><g id="Layer_1-2" data-name="Layer 1"><path class="cls-1" d="M42.34,748.29v30.16H0V562.19H42.34v131l65.38-70.36h52.69L94.73,692.86l63.05,85.59H104.47L65.79,723.62Z"/><path class="cls-1" d="M376.72,748.29v30.16H334.38V562.19h42.34v131L442.1,622.8h52.69l-65.68,70.06,63.05,85.59h-53.3l-38.69-54.83Z"/><path class="cls-1" d="M554.75,748.29v30.16H512.41V562.19h42.34v131l65.38-70.36h52.69l-65.68,70.06,63.05,85.59H616.88L578.2,723.62Z"/><path class="cls-1" d="M311,701.08c0,44.47-32.9,77.37-77.67,77.37-45.08,0-78.28-32.9-78.28-77.37,0-44.16,33.2-76.15,78.28-76.15C278.06,624.93,311,656.92,311,701.08Zm-41.73,0c0-21.63-14-38.38-35.94-38.38-22.24,0-36.55,16.75-36.55,38.38,0,21.93,14.31,39.6,36.55,39.6C255.22,740.68,269.23,723,269.23,701.08Z"/><path class="cls-1" d="M821,701.08c0,44.47-32.9,77.37-77.67,77.37-45.08,0-78.28-32.9-78.28-77.37,0-44.16,33.2-76.15,78.28-76.15C788.06,624.93,821,656.92,821,701.08Zm-41.73,0c0-21.63-14-38.38-35.94-38.38-22.24,0-36.56,16.75-36.56,38.38,0,21.93,14.32,39.6,36.56,39.6C765.22,740.68,779.23,723,779.23,701.08Z"/><path class="cls-1" d="M872.48,723.62c2.44,15.53,13.71,21.63,30.46,21.63,14.62,0,24.67-4.88,24.67-12.49,0-5.79-4.87-10.36-14.62-12.19l-31.07-5.17c-22.23-4-42.94-16.15-42.94-43.26C839,642,864.56,624,902,624c25,0,62.44,8.53,65.48,49.65l-38.68.3c-.91-13.1-12.79-18.27-26.8-18.27-14.62,0-21.63,5.78-21.63,12.48,0,5.49,4,11.27,17.36,13.71l26.5,4.27c23.76,4.26,44.17,15.53,44.17,42.94,0,32.9-28.64,49.35-65.79,49.35-33.81,0-65.8-13.71-68.84-55.13Z"/><rect class="cls-1" x="231.7" y="363.13" width="64.82" height="40.36" rx="20.18"/><path class="cls-2" d="M625.07,242.1a20.19,20.19,0,0,1-20.18-20.92c.39-10.94,9.71-19.45,20.66-19.45h107.2C708.67,86.53,606.56,0,484.21,0,376.36,0,284.28,67.27,247.47,162.11h19.26c10.56,0,19.55,8.21,19.93,18.76a19.47,19.47,0,0,1-19.46,20.18H235.83a255.47,255.47,0,0,0-4,81.42H736.56a256.17,256.17,0,0,0,1.59-28.54c0-4-.12-7.9-.3-11.83ZM394.79,181.58a19.57,19.57,0,0,1-19.58,19.58H342.52a19.58,19.58,0,0,1-19.58-19.58h0A19.58,19.58,0,0,1,342.52,162h32.69a19.57,19.57,0,0,1,19.58,19.57Zm89.44-81.43c.39-10.94,9.71-19.45,20.65-19.45H624.81c11,0,20.27,8.51,20.66,19.45a20.19,20.19,0,0,1-20.17,20.92H504.4A20.19,20.19,0,0,1,484.23,100.15Z"/><path class="cls-3" d="M625.07,242.1a20.19,20.19,0,0,1-20.18-20.92c.39-10.94,9.71-19.45,20.66-19.45H649.3a176.45,176.45,0,0,0-60.7-80.66H504.88c-10.65,0-19.82-8-20.61-18.66a20.11,20.11,0,0,1,5.62-15.52c-1.89-.06-3.77-.14-5.68-.14a175.72,175.72,0,0,0-144.45,75.53,19.4,19.4,0,0,1,2.76-.27h32.69a19.57,19.57,0,0,1,19.58,19.57h0a19.57,19.57,0,0,1-19.58,19.58H342.52A19.56,19.56,0,0,1,324.43,189a175.2,175.2,0,0,0-16.16,73.66,179.3,179.3,0,0,0,1.09,19.77h349.7a174.84,174.84,0,0,0-.14-40.37Z"/><path class="cls-4" d="M587.48,282.47a106.21,106.21,0,0,0,.64-13.17c-.79-56-46.57-101.72-102.6-102.41A104,104,0,0,0,381,282.47Z"/><path class="cls-1" d="M786.58,282.41H181.86a20.18,20.18,0,0,0-20.19,20.18h0a20.19,20.19,0,0,0,20.19,20.19h228.3A20.19,20.19,0,0,1,430.35,343h0a20.19,20.19,0,0,1-20.19,20.2H345.74a20.15,20.15,0,0,0-20.16,20.16h0a20.16,20.16,0,0,0,20.16,20.16h93a20.18,20.18,0,0,1,20.18,20.17h0a20.18,20.18,0,0,1-20.18,20.18H382.26A20.19,20.19,0,0,0,362.07,464h0a20.18,20.18,0,0,0,20.19,20.18H569.77A20.17,20.17,0,0,0,590,464h0a20.18,20.18,0,0,0-20.18-20.19h-21a20.19,20.19,0,1,1,0-40.37h78.56l.41,0h81.43a20.17,20.17,0,0,0,20.16-20.16h0a20.16,20.16,0,0,0-20.16-20.16H638.07A20.2,20.2,0,0,1,617.87,343h0a20.2,20.2,0,0,1,20.2-20.2H786.58a20.18,20.18,0,0,0,20.18-20.18h0A20.18,20.18,0,0,0,786.58,282.41ZM576.45,343a20.2,20.2,0,0,1-20.2,20.2H493.49A20.19,20.19,0,0,1,473.3,343h0a20.19,20.19,0,0,1,20.19-20.19h62.76A20.2,20.2,0,0,1,576.45,343Z"/></g></g></svg>