<svg xmlns="http://www.w3.org/2000/svg" viewBox="0 0 973.53 730.75"><defs><style>.cls-1{fill:#FFFFFF;}.cls-2{fill:#ff998c;}.cls-3{fill:#fad078;}.cls-4{fill:#ffef7a;}</style></defs><title>icon</title><g id="Layer_2" data-name="Layer 2"><g id="Layer_1-2" data-name="Layer 1"><path class="cls-1" d="M943.08,426.19H30.46A30.47,30.47,0,0,0,0,456.66H0a30.47,30.47,0,0,0,30.47,30.46H377.3a28.18,28.18,0,0,1,28.18,28.18v4.6a28.18,28.18,0,0,1-28.18,28.17H275.53a28.17,28.17,0,0,0-28.17,28.17v4.51a28.17,28.17,0,0,0,28.17,28.17h144.9a28.17,28.17,0,0,1,28.17,28.17v4.56a28.17,28.17,0,0,1-28.17,28.17H332.89a30.46,30.46,0,0,0-30.46,30.46h0a30.47,30.47,0,0,0,30.46,30.47H619a27.36,27.36,0,0,0,27.37-27.4h0a33.56,33.56,0,0,0-33.52-33.52H588a28.17,28.17,0,0,1-28.17-28.17v-4.56A28.17,28.17,0,0,1,588,608.92H828.48a28.17,28.17,0,0,0,28.17-28.17v-4.51a28.17,28.17,0,0,0-28.17-28.17H716.64a28.17,28.17,0,0,1-28.17-28.17v-4.64a28.17,28.17,0,0,1,28.17-28.17H943.08a30.45,30.45,0,0,0,30.45-30.45h0A30.46,30.46,0,0,0,943.08,426.19ZM470.29,519.9v-4.6a28.18,28.18,0,0,1,28.18-28.18h99.31A28.18,28.18,0,0,1,626,515.3v4.6a28.17,28.17,0,0,1-28.17,28.17H498.47A28.18,28.18,0,0,1,470.29,519.9Z"/><rect class="cls-1" x="105.68" y="548.02" width="97.83" height="60.91" rx="30.45"/><path class="cls-2" d="M699.33,365.37a30.47,30.47,0,0,1,0-60.94H861.84C825.5,130.59,671.4,0,486.76,0,324,0,185,101.52,129.48,244.65h29.78a29.39,29.39,0,0,1,0,58.77H111.92a385.3,385.3,0,0,0-6,122.86H867.59A387.42,387.42,0,0,0,870,383.22c0-6-.18-11.93-.45-17.85ZM351.81,274a29.55,29.55,0,0,1-29.54,29.55H272.93A29.55,29.55,0,0,1,243.38,274h0a29.55,29.55,0,0,1,29.55-29.54h49.34A29.55,29.55,0,0,1,351.81,274Zm135-121.78a30.46,30.46,0,0,1,30.47-30.46H699.68a30.47,30.47,0,0,1,0,60.93H517.23A30.47,30.47,0,0,1,486.76,152.25Z"/><path class="cls-3" d="M699.33,365.37a30.47,30.47,0,0,1,0-60.94H735.9a266.2,266.2,0,0,0-91.61-121.71H517.23a30.42,30.42,0,0,1-21.89-51.59c-2.86-.09-5.7-.21-8.58-.21-90.3,0-170,45.11-218,114a29.91,29.91,0,0,1,4.16-.42h49.34A29.55,29.55,0,0,1,351.81,274h0a29.55,29.55,0,0,1-29.54,29.55H272.93a29.53,29.53,0,0,1-27.3-18.29,264.38,264.38,0,0,0-24.4,111.16,269.59,269.59,0,0,0,1.66,29.83H750.63a263.84,263.84,0,0,0-.21-60.91Z"/><path class="cls-4" d="M642.6,426.29a156.83,156.83,0,1,0-312.66-17.63,160.38,160.38,0,0,0,1,17.63Z"/></g></g></svg>